STARTFONT 2.1
FONT -FontForge-Lobster-Book-R-Normal--36-360-72-72-P-212-ISO10646-1
SIZE 36 72 72
FONTBOUNDINGBOX 73 54 -17 -18
COMMENT "Generated by fontforge, http://fontforge.sourceforge.net"
COMMENT "Copyright 2010 The Lobster Project Authors (https://github.com/impallari/The-Lobster-Font), with Reserved Font Name "Lobster"."
STARTPROPERTIES 40
FOUNDRY "FontForge"
FAMILY_NAME "Lobster"
WEIGHT_NAME "Book"
SLANT "R"
SETWIDTH_NAME "Normal"
ADD_STYLE_NAME ""
PIXEL_SIZE 36
POINT_SIZE 360
RESOLUTION_X 72
RESOLUTION_Y 72
SPACING "P"
AVERAGE_WIDTH 212
CHARSET_REGISTRY "ISO10646"
CHARSET_ENCODING "1"
FONTNAME_REGISTRY ""
CHARSET_COLLECTIONS "ISO8859-2 ISO8859-5 ISO8859-9 ISO8859-4 ISO10646-1"
FONT_NAME "Lobster-Regular"
FACE_NAME "Lobster Regular"
COPYRIGHT "Copyright 2010 The Lobster Project Authors (https://github.com/impallari/The-Lobster-Font), with Reserved Font Name "Lobster"."
FONT_VERSION "2.100"
FONT_ASCENT 29
FONT_DESCENT 7
UNDERLINE_POSITION -4
UNDERLINE_THICKNESS 2
X_HEIGHT 19
CAP_HEIGHT 26
DEFAULT_CHAR 1
RAW_ASCENT 800
RAW_DESCENT 200
NORM_SPACE 8
RELATIVE_WEIGHT 40
RELATIVE_SETWIDTH 50
SUPERSCRIPT_X 0
SUPERSCRIPT_Y 12
SUPERSCRIPT_SIZE 21
SUBSCRIPT_X 0
SUBSCRIPT_Y 2
SUBSCRIPT_SIZE 21
AVG_LOWERCASE_WIDTH 170
AVG_UPPERCASE_WIDTH 224
ENDPROPERTIES
CHARS 1148
STARTCHAR NULL.dup1
ENCODING 0
SWIDTH 600 0
DWIDTH 22 0
BBX 1 1 0 0
BITMAP
00
ENDCHAR
STARTCHAR nonmarkingreturn
ENCODING 13
SWIDTH 600 0
DWIDTH 22 0
BBX 1 1 0 0
BITMAP
00
ENDCHAR
STARTCHAR space
ENCODING 32
SWIDTH 217 0
DWIDTH 8 0
BBX 1 1 0 0
BITMAP
00
ENDCHAR
STARTCHAR exclam
ENCODING 33
SWIDTH 257 0
DWIDTH 9 0
BBX 11 27 1 0
BITMAP
00E0
07C0
07C0
07C0
07C0
0780
0F80
0F80
0F00
0F00
0F00
0F00
1E00
1E00
1E00
1C00
1C00
1C00
1C00
0000
0000
7800
7800
FC00
FC00
7800
7800
ENDCHAR
STARTCHAR quotedbl
ENCODING 34
SWIDTH 353 0
DWIDTH 13 0
BBX 12 8 3 19
BITMAP
3CF0
3CE0
39E0
79C0
71C0
7380
E380
E300
ENDCHAR
STARTCHAR numbersign
ENCODING 35
SWIDTH 659 0
DWIDTH 24 0
BBX 19 23 2 2
BITMAP
01C380
01C380
018380
018380
038300
038300
038700
3FFFE0
3FFFE0
070600
070E00
070E00
060E00
060E00
7FFFC0
FFFF80
0C1C00
0C1C00
1C1800
1C3800
1C3800
183800
183800
ENDCHAR
STARTCHAR dollar
ENCODING 36
SWIDTH 548 0
DWIDTH 20 0
BBX 19 36 0 -5
BITMAP
000300
000600
000600
000600
003F00
00FFC0
01EDC0
03CCE0
07CCE0
07C9E0
07D9E0
07DBC0
07F800
03F000
03F000
01F800
01FC00
00FE00
007F00
007F00
007F80
1C7F80
7E4F80
7DCF80
78C780
F0C780
70CF80
798F00
799E00
3FFC00
0FF800
038000
030000
030000
030000
060000
ENDCHAR
STARTCHAR percent
ENCODING 37
SWIDTH 796 0
DWIDTH 29 0
BBX 26 27 2 0
BITMAP
07801C00
1CC03800
38E03000
78E07000
70E06000
F0E0E000
F0E1C000
E0E1C000
E1E38000
E1C30000
E1C70000
E3860000
730E0F00
7E0C3980
001C71C0
0038F1C0
0038E1C0
0071E1C0
0061E1C0
00E1C1C0
00C1C1C0
01C1C3C0
0181C380
0381C380
0701C700
0700EE00
0E007800
ENDCHAR
STARTCHAR ampersand
ENCODING 38
SWIDTH 682 0
DWIDTH 25 0
BBX 24 28 0 -1
BITMAP
003F00
00FF80
01F3C0
03E1C0
03C1E0
07C1E0
07C3C0
07C3C0
07C000
07C000
03E000
03F002
01F803
07C01F
1F83FF
1F07FE
3F0FFC
7E0FF0
7E0C60
7E0860
7E00C0
FE00C0
7E0180
7F0380
7FFF00
3FFE00
1FF800
010000
ENDCHAR
STARTCHAR quotesingle
ENCODING 39
SWIDTH 196 0
DWIDTH 7 0
BBX 6 8 3 19
BITMAP
3C
3C
38
78
70
70
E0
E0
ENDCHAR
STARTCHAR parenleft
ENCODING 40
SWIDTH 437 0
DWIDTH 16 0
BBX 14 36 5 -9
BITMAP
000C
0038
0070
00E0
01C0
03C0
0780
0700
0F00
1E00
1E00
3C00
3C00
3C00
7C00
7800
7800
7800
7800
F800
F800
F800
F800
7800
7800
7800
7800
7800
3800
3800
3C00
1C00
0C00
0E00
0600
0200
ENDCHAR
STARTCHAR parenright
ENCODING 41
SWIDTH 413 0
DWIDTH 15 0
BBX 13 36 -2 -9
BITMAP
0380
0180
01C0
00E0
00E0
00F0
0070
0070
0078
0078
0078
0078
0078
0078
0078
0078
0078
0078
0078
00F8
00F0
00F0
00F0
01E0
01E0
03C0
03C0
0780
0700
0F00
0E00
1C00
3800
E000
C000
8000
ENDCHAR
STARTCHAR asterisk
ENCODING 42
SWIDTH 515 0
DWIDTH 19 0
BBX 13 14 3 13
BITMAP
0700
0700
4700
6770
F6F8
7FF8
3FC0
1FC0
FFF0
F6F0
6770
0720
0700
0E00
ENDCHAR
STARTCHAR plus
ENCODING 43
SWIDTH 442 0
DWIDTH 16 0
BBX 13 13 1 6
BITMAP
0380
0380
0380
0380
0700
FFF8
FFF8
FFF8
0600
0E00
0E00
0E00
0E00
ENDCHAR
STARTCHAR comma
ENCODING 44
SWIDTH 216 0
DWIDTH 8 0
BBX 5 10 1 -5
BITMAP
70
F8
F8
F8
F8
30
30
60
40
80
ENDCHAR
STARTCHAR hyphen
ENCODING 45
SWIDTH 290 0
DWIDTH 10 0
BBX 8 3 1 8
BITMAP
FF
FE
FE
ENDCHAR
STARTCHAR period
ENCODING 46
SWIDTH 263 0
DWIDTH 9 0
BBX 6 6 1 0
BITMAP
78
F8
FC
FC
F8
78
ENDCHAR
STARTCHAR slash
ENCODING 47
SWIDTH 311 0
DWIDTH 11 0
BBX 11 36 0 -9
BITMAP
00E0
00C0
01C0
01C0
01C0
0180
0180
0380
0380
0380
0300
0300
0700
0700
0700
0600
0600
0E00
0E00
0C00
0C00
1C00
1C00
1C00
1800
1800
3800
3800
3800
3000
3000
7000
7000
7000
6000
E000
ENDCHAR
STARTCHAR zero
ENCODING 48
SWIDTH 546 0
DWIDTH 20 0
BBX 19 27 1 0
BITMAP
007E00
01FF00
03E780
07C7C0
0F83C0
1F03E0
3F03E0
3E03E0
3E03E0
7E03E0
7C03E0
7C03E0
FC03E0
FC03C0
FC07C0
F807C0
F807C0
F80780
F80F80
F80F80
F80F00
F81F00
F81E00
7C3C00
7E7800
3FF000
0FC000
ENDCHAR
STARTCHAR one
ENCODING 49
SWIDTH 317 0
DWIDTH 11 0
BBX 11 27 1 0
BITMAP
0020
00C0
07C0
7FC0
7FC0
0FC0
0F80
0F80
0F80
0F80
1F00
1F00
1F00
1F00
3F00
3E00
3E00
3E00
3E00
7E00
7C00
7C00
7C00
FC00
F800
F800
F800
ENDCHAR
STARTCHAR two
ENCODING 50
SWIDTH 492 0
DWIDTH 18 0
BBX 17 28 0 -1
BITMAP
01F800
07FE00
0F3F00
1C1F00
1C1F80
3C0F80
3C0F80
1E0F80
1F1F80
0E1F00
001F00
003E00
007C00
00F800
01F000
03E000
078000
0F0000
1E0000
3C0000
380000
700100
FFFF00
FFFF00
FFFF00
FFFE00
81FC00
001000
ENDCHAR
STARTCHAR three
ENCODING 51
SWIDTH 514 0
DWIDTH 19 0
BBX 18 27 0 0
BITMAP
00FC00
03FF00
078F80
0F07C0
0F07C0
0F07C0
0F07C0
0F8780
020F80
001F00
003E00
01FC00
00FC00
003F00
001F80
001F80
3E0F80
7E0FC0
780FC0
F80F80
F00F80
F01F80
F01F00
783E00
7C7C00
3FF800
0FE000
ENDCHAR
STARTCHAR four
ENCODING 52
SWIDTH 476 0
DWIDTH 17 0
BBX 17 27 0 0
BITMAP
00E000
00F000
00F800
00F800
00F800
01F000
01F000
01E700
03C700
03C600
078E00
0F0E00
0E0E00
1C1E00
381C80
3FFF80
7FFF80
FFFF80
E3FF00
007C00
007800
007800
00F800
00F000
00F000
01F000
01F000
ENDCHAR
STARTCHAR five
ENCODING 53
SWIDTH 517 0
DWIDTH 19 0
BBX 17 26 1 0
BITMAP
000180
0FFF80
0FFF80
0FFF00
0E7E00
0E0000
1C0000
1C0000
1C0000
1DF800
1FFC00
3FFE00
387F00
203F00
001F00
001F00
3C1F00
7E1F00
F81F00
F01F00
F03E00
F03E00
F07C00
FDF800
7FF000
1FC000
ENDCHAR
STARTCHAR six
ENCODING 54
SWIDTH 500 0
DWIDTH 18 0
BBX 17 27 1 0
BITMAP
007E00
01FF00
03E780
07C380
0F8380
1F0380
3E0780
3E0200
7E0000
7C0000
7C0000
FCFC00
FBFE00
FE1F00
FC1F00
F80F00
F80F00
F80F00
F80F00
F80F00
F81F00
F81E00
F81E00
7C3C00
7E7800
3FF000
0FC000
ENDCHAR
STARTCHAR seven
ENCODING 55
SWIDTH 464 0
DWIDTH 17 0
BBX 17 27 2 0
BITMAP
3E0000
7F8180
FFFF00
FFFF00
C1FE00
801C00
003C00
007800
007000
00F000
01E000
03E000
07C000
078000
0F8000
1F0000
1F0000
3E0000
3E0000
7E0000
7C0000
7C0000
7C0000
7C0000
7C0000
7E0000
3C0000
ENDCHAR
STARTCHAR eight
ENCODING 56
SWIDTH 499 0
DWIDTH 18 0
BBX 18 27 0 0
BITMAP
00FC00
03FF00
07C780
0F83C0
0F83C0
0F83C0
0F83C0
0F83C0
0FC780
0FCF00
07FE00
03F800
03FC00
07FE00
0FFF00
3E7F00
7C3F80
781F80
F80F80
F80F80
F80F80
F80F80
F80F00
7C1F00
7E3E00
1FF800
07E000
ENDCHAR
STARTCHAR nine
ENCODING 57
SWIDTH 489 0
DWIDTH 18 0
BBX 18 27 0 0
BITMAP
00FC00
03FE00
0F9F00
1F0F80
1E0F80
3C0F80
3C07C0
7C07C0
7C0FC0
7C0FC0
7C0FC0
7C0FC0
7C1FC0
3E3F80
1FEF80
0F8F80
001F80
001F00
001F00
001F00
783E00
703C00
F07C00
70F800
7BF000
7FE000
1F8000
ENDCHAR
STARTCHAR colon
ENCODING 58
SWIDTH 267 0
DWIDTH 10 0
BBX 8 14 1 2
BITMAP
0E
1F
3F
3F
1F
1E
00
00
38
7C
FC
FC
7C
38
ENDCHAR
STARTCHAR semicolon
ENCODING 59
SWIDTH 276 0
DWIDTH 10 0
BBX 7 19 2 -4
BITMAP
1C
3E
7E
7E
3E
1C
00
00
00
70
F8
F8
F8
F8
70
30
60
C0
80
ENDCHAR
STARTCHAR less
ENCODING 60
SWIDTH 358 0
DWIDTH 13 0
BBX 13 13 0 3
BITMAP
0018
0078
01F0
07E0
1F80
7E00
F800
FC00
3F00
0F80
03E0
01E0
0040
ENDCHAR
STARTCHAR equal
ENCODING 61
SWIDTH 515 0
DWIDTH 19 0
BBX 16 12 1 4
BITMAP
3FFF
3FFF
3FFE
3FFE
0000
0000
0000
0000
7FFC
7FFC
FFFC
FFFC
ENDCHAR
STARTCHAR greater
ENCODING 62
SWIDTH 362 0
DWIDTH 13 0
BBX 13 13 0 3
BITMAP
1000
3C00
3E00
0F80
03E0
01F8
00F8
03E0
0F80
3E00
F800
E000
8000
ENDCHAR
STARTCHAR question
ENCODING 63
SWIDTH 441 0
DWIDTH 16 0
BBX 14 27 2 0
BITMAP
0FC0
3FF0
79F8
F0F8
E07C
E07C
F0F8
F8F8
70F0
01E0
03C0
0780
0F00
1E00
1C00
3800
3000
3000
0000
0000
0000
7000
F800
F800
F800
F800
7000
ENDCHAR
STARTCHAR at
ENCODING 64
SWIDTH 688 0
DWIDTH 25 0
BBX 23 25 0 -4
BITMAP
001FC0
00FFF0
01F878
07C01C
0F801E
1E000E
1C3DCE
3C7F8E
78F38E
71E38E
71E78E
F3C70E
E3C71E
E3871C
E38F38
E3CF78
E3F7F0
E1E3C0
E00000
F00180
F00380
7C0F80
3FFF00
1FFE00
07F000
ENDCHAR
STARTCHAR A
ENCODING 65
SWIDTH 668 0
DWIDTH 24 0
BBX 25 31 0 -4
BITMAP
00000F80
00003F80
0000FF80
0001DF00
00039F00
00071F00
00073F00
000E3E00
001C3E00
003C3E00
00383E00
0FF87E00
3FFFFC00
78F1FC00
F1E07C00
F9E07C00
73C0FC00
03C0F800
07C0F800
0780F800
0781F800
0F81F000
0F01F000
0F01F000
1F01F000
1F03F000
1F03E000
1F000000
1E000000
0E000000
07000000
ENDCHAR
STARTCHAR B
ENCODING 66
SWIDTH 641 0
DWIDTH 23 0
BBX 22 28 0 -1
BITMAP
003F80
01FFE0
07C1F0
0F0078
1CFC78
38F878
78F878
70F878
F0F870
F1F0F0
71F3C0
71FFE0
11FFF0
01F1F8
03E0F8
03E07C
03E07C
03E07C
07E07C
07C07C
07C0F8
07C0F8
07C0F8
0FE1F0
0FBFE0
0FBFE0
0F9FC0
000400
ENDCHAR
STARTCHAR C
ENCODING 67
SWIDTH 497 0
DWIDTH 18 0
BBX 18 28 1 -1
BITMAP
007E00
01FF80
03F3C0
07C1C0
0FC1C0
1F81C0
1F01C0
3F03C0
3F0100
7E0000
7E0000
7E0000
FC0000
FC0000
FC0000
FC0000
FC0000
FC0000
FC0000
FC0000
FC0000
FC0040
FC0080
FE0380
7FFF00
3FFC00
1FF000
010000
ENDCHAR
STARTCHAR D
ENCODING 68
SWIDTH 663 0
DWIDTH 24 0
BBX 23 28 0 -1
BITMAP
003F80
01FFE0
07C1F8
0F0078
3C7C7C
38F83C
78F83E
70F83E
F1F83E
F1F03E
F1F03E
71F03E
71F03E
03F03E
03E03E
03E03E
03E07C
07E07C
07C07C
07C0F8
07C0F8
07C1F8
0FC1F0
0F83E0
0FFFE0
0FFFC0
1FBF00
000400
ENDCHAR
STARTCHAR E
ENCODING 69
SWIDTH 459 0
DWIDTH 17 0
BBX 18 28 0 -1
BITMAP
003E00
00FF80
01F380
03E1C0
03C1C0
07C1C0
078380
078780
078000
07C000
07C000
03E000
03F800
0FC000
1F8000
3F0000
3F0000
7E0000
7E0000
FE0000
FE0000
FE0080
FE0180
7E0300
7FFE00
3FFC00
1FF000
020000
ENDCHAR
STARTCHAR F
ENCODING 70
SWIDTH 459 0
DWIDTH 17 0
BBX 22 27 0 0
BITMAP
00FFFC
07FFF8
0FFFF8
1CFBF0
38F800
70F800
70F800
71F800
F1F000
F1F000
F1F000
73FF80
33FF80
03FF80
03E000
03E000
07E000
07C000
07C000
07C000
07C000
0FC000
0F8000
0F8000
0F8000
1F8000
1F0000
ENDCHAR
STARTCHAR G
ENCODING 71
SWIDTH 578 0
DWIDTH 21 0
BBX 19 34 1 -7
BITMAP
007F00
01FFC0
07F1E0
0FC0E0
1F80E0
3F00E0
3F01E0
7E03E0
7C00C0
FC0000
FC0000
FC0000
F803E0
F803C0
F803C0
F807C0
F807C0
FC0FC0
FC0F80
7E3F80
7FFF80
3FEF80
0F8F00
001F00
001F00
0F9F00
3F9E00
3FBE00
383E00
783C00
387C00
3CF800
1FF000
0FC000
ENDCHAR
STARTCHAR H
ENCODING 72
SWIDTH 665 0
DWIDTH 24 0
BBX 25 27 0 0
BITMAP
003E0F80
01FC1F80
07FC1F00
0E7C1F00
1CFC1F00
38F81F00
78F83F00
70F83E00
F0F83E00
F1F83E00
71F03E00
71FFFE00
31FFFC00
03FFFC00
03E07C00
03E07C00
03E0FC00
03E0F800
07E0F800
07C0F800
07C1F800
07C1F000
07C1F000
0FC1F000
0F81F000
0F83F000
0F83E000
ENDCHAR
STARTCHAR I
ENCODING 73
SWIDTH 375 0
DWIDTH 14 0
BBX 14 27 0 0
BITMAP
007C
01FC
07FC
0EFC
3CF8
38F8
70F8
70F8
F1F8
F1F0
F1F0
71F0
33F0
03E0
03E0
03E0
03E0
07E0
07C0
07C0
07C0
07C0
0FC0
0F80
0F80
0F80
1F80
ENDCHAR
STARTCHAR J
ENCODING 74
SWIDTH 536 0
DWIDTH 19 0
BBX 20 34 1 -7
BITMAP
0001F0
000FF0
003FE0
007BE0
00E3E0
01C7E0
03C7C0
03C7C0
0387C0
0387C0
038FC0
038F80
01CF80
000F80
001F80
001F80
001F00
001F00
001F00
003F00
003E00
003E00
003E00
007E00
007E00
7E7C00
FF7C00
FEFC00
E0F800
E0F800
E1F000
F1F000
7FC000
3F8000
ENDCHAR
STARTCHAR K
ENCODING 75
SWIDTH 601 0
DWIDTH 22 0
BBX 24 28 0 -1
BITMAP
007C0F
01FC1E
07FC3C
0EFC38
1CF870
38F8E0
70F9C0
70F9C0
F1FB80
F1F700
F1F600
71FC00
73FFC0
03FFE0
03E3E0
03E1F0
03E1F0
07E1E0
07C3E0
07C3E0
07C3E0
07C3C0
0FC7C0
0F87C0
0F87C0
0F87C0
1F87E0
000100
ENDCHAR
STARTCHAR L
ENCODING 76
SWIDTH 379 0
DWIDTH 14 0
BBX 24 36 0 -9
BITMAP
007C00
01FC00
07FC00
0EFC00
3CF800
38F800
70F800
70F800
F1F800
F1F000
F1F000
71F000
33F000
03E000
03E000
03E000
03E000
07E000
07C000
07C000
07C000
07C000
0F8000
0F8000
0F8000
0F8000
1FC000
1FF000
00FC00
003F00
001FC1
000FFF
0007FE
0001FE
0000FE
00003C
ENDCHAR
STARTCHAR M
ENCODING 77
SWIDTH 787 0
DWIDTH 28 0
BBX 27 27 2 0
BITMAP
007C0000
03FE03E0
07FE07E0
0F7E07E0
1C7E0FC0
38FC0FC0
78FC1FC0
70FC1FC0
71FC1FC0
F1FC3FC0
71FC3FC0
73FC7F80
33FC7F80
077CEF80
077CEF80
077CCF80
0E7DDF80
0E7DDF80
0E7F9F00
1C7F9F00
1C7F1F00
387F1F00
387E1F00
387E3F00
707E3F00
707C3E00
E07C3E00
ENDCHAR
STARTCHAR N
ENCODING 78
SWIDTH 668 0
DWIDTH 24 0
BBX 26 27 0 0
BITMAP
00FC03C0
07FC03C0
0FFC0380
1EFE0380
3CFE0780
78FE0780
70FE0700
F0FF0700
F1FF0700
F1FF0F00
F1FF0F00
71DF0E00
71CF8E00
0BCF8E00
03CF9E00
038F9C00
0387DC00
0787DC00
0787DC00
0707FC00
0707F800
0703F800
0F03F800
0F03F800
0E03F800
0E01F000
1E01F000
ENDCHAR
STARTCHAR O
ENCODING 79
SWIDTH 665 0
DWIDTH 24 0
BBX 23 27 1 0
BITMAP
003FC0
01FFF0
07C1F8
1F0278
3C7C7C
78F83C
71F03C
F1F03E
E3E03E
E7E03E
E7C03E
E7C03C
6FC07C
0F807C
0F807C
1F807C
1F80F8
1F00F8
1F00F8
1F01F0
1F01F0
1F03E0
1F87C0
1F8F80
0FFF00
07FE00
03F800
ENDCHAR
STARTCHAR P
ENCODING 80
SWIDTH 573 0
DWIDTH 21 0
BBX 21 27 0 0
BITMAP
007F00
01FFE0
07C1F0
0E00F0
1C3C78
38F878
78F878
70F878
F1F878
F1F078
F1F078
71F0F0
31F0F0
03F1E0
03E3C0
03EF00
03FC00
07E000
07C000
07C000
07C000
07C000
0FC000
0F8000
0F8000
0F8000
1F8000
ENDCHAR
STARTCHAR Q
ENCODING 81
SWIDTH 665 0
DWIDTH 24 0
BBX 23 31 1 -4
BITMAP
003FC0
01FFF0
07C1F8
1F0278
3C7C7C
78F83C
71F03C
F1E03E
E3E03E
E7E03E
E7C03E
EFC03C
6F807C
0F807C
0F807C
1F807C
1F80F8
1F00F8
1F01F8
1F01F0
1F03F0
1FFBE0
1FBFC0
1F8F80
0FFF00
07FF00
03FF80
0007C0
0007F8
0003F0
0001E0
ENDCHAR
STARTCHAR R
ENCODING 82
SWIDTH 601 0
DWIDTH 22 0
BBX 21 28 0 -1
BITMAP
007F80
01FFE0
07C1F0
0F00F0
1C3C78
38F878
78F878
70F878
F1F870
F1F0F0
F1F1E0
71F3C0
71FFC0
03FFE0
03E3E0
03E1F0
03E1F0
07E1E0
07C3E0
07C3E0
07C3E0
07C3C0
0FC7C0
0F87C0
0F87C0
0F87C0
1F87E0
000100
ENDCHAR
STARTCHAR S
ENCODING 83
SWIDTH 570 0
DWIDTH 21 0
BBX 19 28 1 -1
BITMAP
007F00
01FF80
03E3C0
07C1E0
07C1E0
07C1E0
0FC1E0
0FC3C0
07E180
07E000
03F000
03F800
01FC00
00FE00
007F00
003F00
1E1F80
3F1F80
7C0F80
F80FC0
F00F80
F00F80
F00F80
781F00
7C3E00
3FFC00
1FF800
010000
ENDCHAR
STARTCHAR T
ENCODING 84
SWIDTH 481 0
DWIDTH 17 0
BBX 26 27 0 0
BITMAP
00FF0040
07FFE0C0
0FFFFFC0
1E1FFF80
3C3FFF80
783F7F00
703F0000
F03E0000
F03E0000
F07E0000
F07E0000
F07C0000
707C0000
307C0000
00FC0000
00F80000
00F80000
00F80000
01F80000
01F80000
01F00000
01F00000
01F00000
03F00000
03E00000
03E00000
03E00000
ENDCHAR
STARTCHAR U
ENCODING 85
SWIDTH 716 0
DWIDTH 26 0
BBX 27 27 0 0
BITMAP
007E03E0
03FE03E0
0FBE03E0
1E7E03E0
387C07C0
787C07C0
F07C07C0
F0F807C0
E0F80FC0
E0F80F80
E0F80F80
E1F00F80
31F00F80
01F01F80
01F01F00
03E01F00
03E01F00
03E01F00
03E03E00
03C03E00
03C03E00
03C07C00
03E0F800
03E1F800
01FFF000
00FFC000
007F0000
ENDCHAR
STARTCHAR V
ENCODING 86
SWIDTH 615 0
DWIDTH 22 0
BBX 25 27 0 0
BITMAP
007C0380
01FC0300
07FC0700
0E7C0600
3C7C0600
387C0E00
707C0C00
707C0C00
F07C1C00
F07C1800
F07C1800
707C3000
307C3000
007C3000
007C6000
007E6000
007E6000
007EC000
007EC000
007E8000
007F8000
007F8000
007F0000
007F0000
007F0000
007E0000
007E0000
ENDCHAR
STARTCHAR W
ENCODING 87
SWIDTH 962 0
DWIDTH 35 0
BBX 37 27 0 0
BITMAP
007C03E038
01FC03E038
07FC07E030
0E7C07E070
3C7C07E070
387C0FE060
707C0FE0E0
707C0FE0C0
F07C1FE0C0
F07C1BE1C0
F07C1BE180
707C3BE180
307C33E380
007C33E300
007C63E300
007E63E600
007E63E600
007EC3E600
007EC3EC00
007EC3EC00
007F83EC00
007F83F800
007F03F800
007F03F000
007F03F000
007E03F000
007E03E000
ENDCHAR
STARTCHAR X
ENCODING 88
SWIDTH 620 0
DWIDTH 22 0
BBX 23 27 0 0
BITMAP
007C0E
01FE1C
07FE18
0E7E38
3C7E30
383E60
703FE0
703FC0
F03FC0
F03F80
F01F80
701F80
301F80
001F80
001F80
001F80
001FC0
003FC0
003FC0
0067C0
00E7E0
00C7E0
01C7E0
0187E0
0303E0
0303F0
0603F0
ENDCHAR
STARTCHAR Y
ENCODING 89
SWIDTH 620 0
DWIDTH 22 0
BBX 25 27 0 0
BITMAP
007C0180
01FE0300
07FE0300
0E7E0700
3C7E0600
383F0E00
703F0C00
703F0C00
F03F1800
F01F9800
F01FB800
701FB000
300FB000
000FE000
000FE000
000FC000
000FC000
000FC000
000FC000
000F8000
001F8000
001F8000
001F8000
001F8000
001F0000
003F0000
003F0000
ENDCHAR
STARTCHAR Z
ENCODING 90
SWIDTH 542 0
DWIDTH 20 0
BBX 20 27 0 0
BITMAP
07FFF0
0FFFE0
1E07E0
1E0FC0
1E0FC0
0E1F80
001F80
003F00
003F00
007E00
007E00
00FC00
00FC00
01F800
01F800
03F000
03F000
07E000
07E000
0FC000
0FC000
1F81C0
1F83C0
3F03C0
3F03C0
7FFF80
FFFE00
ENDCHAR
STARTCHAR bracketleft
ENCODING 91
SWIDTH 400 0
DWIDTH 14 0
BBX 15 36 0 -9
BITMAP
01FE
01FE
01E0
01C0
03C0
03C0
03C0
0380
0380
0780
0780
0780
0700
0F00
0F00
0F00
0F00
0E00
1E00
1E00
1E00
1C00
1C00
3C00
3C00
3C00
3800
3800
7800
7800
7800
7000
F000
F000
FF00
FF00
ENDCHAR
STARTCHAR backslash
ENCODING 92
SWIDTH 362 0
DWIDTH 13 0
BBX 10 36 2 -9
BITMAP
C000
C000
E000
E000
E000
6000
6000
7000
7000
3000
3000
3800
3800
3800
1800
1800
1C00
1C00
1C00
0C00
0C00
0E00
0E00
0E00
0600
0700
0700
0700
0300
0300
0380
0380
0380
0180
0180
01C0
ENDCHAR
STARTCHAR bracketright
ENCODING 93
SWIDTH 400 0
DWIDTH 14 0
BBX 15 36 -2 -9
BITMAP
01FE
01FE
001E
001C
003C
003C
003C
003C
0038
0078
0078
0078
0070
0070
00F0
00F0
00F0
00E0
00E0
01E0
01E0
01E0
01C0
03C0
03C0
03C0
03C0
0380
0780
0780
0780
0780
0700
0F00
FF00
FF00
ENDCHAR
STARTCHAR asciicircum
ENCODING 94
SWIDTH 421 0
DWIDTH 15 0
BBX 10 7 2 20
BITMAP
0100
0380
0780
0F80
1FC0
30C0
C040
ENDCHAR
STARTCHAR underscore
ENCODING 95
SWIDTH 444 0
DWIDTH 16 0
BBX 14 3 1 0
BITMAP
7FFC
7FF8
FFF8
ENDCHAR
STARTCHAR grave
ENCODING 96
SWIDTH 201 0
DWIDTH 7 0
BBX 5 7 1 20
BITMAP
F0
F0
70
70
30
30
38
ENDCHAR
STARTCHAR a
ENCODING 97
SWIDTH 526 0
DWIDTH 19 0
BBX 20 18 0 0
BITMAP
03EF80
0FFF80
1F9F80
3F1F80
3E1F00
7C1F00
7C1F00
FC1F00
F83F00
F83E00
F83E00
F83E00
F87E10
F87E30
F8FE60
FFBFC0
7F3F80
3E1F00
ENDCHAR
STARTCHAR b
ENCODING 98
SWIDTH 444 0
DWIDTH 16 0
BBX 15 25 0 0
BITMAP
0380
0F80
1F80
1F00
1F00
1F00
1F00
3FF0
3FFC
3E3C
3E1C
7E1E
7C1E
7C1E
7C1E
7C1C
FC1C
F83C
F83C
F878
F878
F8F0
FFE0
7FC0
3F00
ENDCHAR
STARTCHAR c
ENCODING 99
SWIDTH 384 0
DWIDTH 14 0
BBX 15 18 0 0
BITMAP
03F0
0FF8
1FB8
3F38
3E38
7C30
7C00
FC00
F800
F800
F800
F800
F806
F80C
FC38
FFF0
7FC0
3F00
ENDCHAR
STARTCHAR d
ENCODING 100
SWIDTH 525 0
DWIDTH 19 0
BBX 20 25 0 0
BITMAP
0000E0
0007E0
0007C0
0007C0
0007C0
000FC0
000F80
03EF80
0FFF80
1F9F80
3F1F80
3E1F00
7C1F00
7C1F00
FC1F00
F83F00
F83E00
F83E00
F83E00
F87E10
F87E30
F8FE60
FFBFC0
7F3F80
3E1F00
ENDCHAR
STARTCHAR e
ENCODING 101
SWIDTH 384 0
DWIDTH 14 0
BBX 15 18 0 0
BITMAP
03F0
0FF8
1FB8
3F38
3E38
7C38
7C78
FCF0
F9E0
FFC0
FF00
F800
F806
F80C
FC38
FFF0
7FE0
3F00
ENDCHAR
STARTCHAR f
ENCODING 102
SWIDTH 267 0
DWIDTH 10 0
BBX 21 36 -7 -9
BITMAP
0003E0
000FF0
001FF8
001F98
003F18
003E00
003E00
003E00
003E00
007F80
007C00
007C00
007C00
00FC00
00F800
00F800
00F800
00F800
01F800
01F000
01F000
01F000
01F000
03F000
03E000
03E000
03E000
1FE000
77C000
E7C000
C7C000
C7C000
CF8000
FF8000
FF0000
3C0000
ENDCHAR
STARTCHAR g
ENCODING 103
SWIDTH 507 0
DWIDTH 18 0
BBX 20 27 0 -9
BITMAP
03EF80
0FFF80
1F9F80
3F1F80
3E1F00
7C1F00
7C1F00
FC1F00
F83E00
F83E00
F83E00
F83E00
F87E30
F87C20
F8FC60
FFFCC0
7F7F80
3EFF00
01F800
07F800
0EF800
18F800
39F000
31F000
3BE000
1FE000
0F8000
ENDCHAR
STARTCHAR h
ENCODING 104
SWIDTH 505 0
DWIDTH 18 0
BBX 21 25 -1 0
BITMAP
01C000
07C000
0FC000
0F8000
0F8000
0F8000
0F8000
1FBE00
1F7F00
1FFF00
1F9F00
1F1F00
3F1F00
3E1F00
3E1F00
3E1F00
7E1F00
7C3E00
7C3E00
7C3E18
7C3E30
FC3E20
F83FE0
F83FC0
F80F00
ENDCHAR
STARTCHAR i
ENCODING 105
SWIDTH 267 0
DWIDTH 10 0
BBX 11 25 0 0
BITMAP
0F00
0F00
1F80
1F80
0F80
0F00
0000
3F00
3E00
3E00
3E00
7E00
7C00
7C00
7C00
7C00
FC00
F800
F820
F860
F8C0
FDC0
FF80
FF00
7C00
ENDCHAR
STARTCHAR j
ENCODING 106
SWIDTH 240 0
DWIDTH 9 0
BBX 17 34 -7 -9
BITMAP
001C00
003E00
003F00
003F00
003E00
001C00
000000
007E00
007C00
007C00
007C00
007C00
00FC00
00F800
00F800
00F800
01F800
01F800
01F000
01F180
01F180
03F100
03E200
03E600
03F800
07E000
3FE000
7FC000
E7C000
C7C000
CF8000
CF8000
FF0000
7C0000
ENDCHAR
STARTCHAR k
ENCODING 107
SWIDTH 518 0
DWIDTH 19 0
BBX 21 25 -1 0
BITMAP
03C000
07C000
0FC000
0F8000
0F8000
0F8000
0F8000
1F83C0
1F0700
1F1C00
1F3800
1F7000
3FFC00
3FFE00
3FFF00
3F3F00
7E1F00
7C1F00
7C3F00
7C3E18
7C3E10
FC3E30
F83FE0
F81FC0
F80F80
ENDCHAR
STARTCHAR l
ENCODING 108
SWIDTH 267 0
DWIDTH 10 0
BBX 11 25 0 0
BITMAP
0380
0F80
1F80
1F00
1F00
1F00
1F00
3F00
3E00
3E00
3E00
3E00
7C00
7C00
7C00
7C00
FC00
F800
F820
F860
F8C0
FFC0
FF80
FF00
7C00
ENDCHAR
STARTCHAR m
ENCODING 109
SWIDTH 752 0
DWIDTH 27 0
BBX 30 18 -1 0
BITMAP
1FBE1F00
1F7F7F80
1FFF7F80
1F9FCF80
3F1F8F80
3F1F0F80
3E1F0F80
3E1F0F80
3E1F0F80
7E3F1F00
7C3E1F00
7C3E1F04
7C3E1F08
7C7E1F18
FC7C1F30
F87C1FF0
F87C1FE0
F87C0780
ENDCHAR
STARTCHAR n
ENCODING 110
SWIDTH 505 0
DWIDTH 18 0
BBX 21 18 -1 0
BITMAP
1FBE00
1F7F00
1FFF00
1F9F00
3F1F00
3F1F00
3E1F00
3E1F00
3E1F00
7E1F00
7C3E00
7C3E00
7C3E18
7C3E30
FC3E20
F83FE0
F83FC0
F80F00
ENDCHAR
STARTCHAR o
ENCODING 111
SWIDTH 439 0
DWIDTH 16 0
BBX 21 18 -1 0
BITMAP
01F800
07FC00
0FDC00
1F8E00
1F0E18
3E1E70
3E1FC0
7E0E00
7C0E00
7C1E00
7C1C00
7C1C00
FC3C00
7C3800
7C7800
7FF000
3FE000
1F8000
ENDCHAR
STARTCHAR p
ENCODING 112
SWIDTH 468 0
DWIDTH 17 0
BBX 19 28 -3 -9
BITMAP
03E000
07EF80
07FFC0
07E7C0
07C3E0
07C3E0
0F83E0
0F83E0
0F83E0
0F83E0
1F87E0
1F07C0
1F07C0
1F0FC0
1F0F80
3F1F80
3FFF00
3FFE00
3EF800
7E0000
7C0000
7C0000
7C0000
7C0000
FC0000
F80000
F80000
800000
ENDCHAR
STARTCHAR q
ENCODING 113
SWIDTH 486 0
DWIDTH 18 0
BBX 17 27 0 -9
BITMAP
03EF80
0FFF80
1F9F80
3F1F80
3E1F00
7C1F00
7C1F00
FC3F00
F83E00
F83E00
F83E00
F83E00
F87E00
F87C00
F8FC00
FFFC00
7FFC00
3EF800
00F800
00F800
00F800
01F800
01F000
01F000
01F000
01E000
020000
ENDCHAR
STARTCHAR r
ENCODING 114
SWIDTH 376 0
DWIDTH 14 0
BBX 15 18 -1 0
BITMAP
1FBC
1F7E
1FFE
1F1E
3F1C
3E00
3E00
3E00
3E00
7E00
7C00
7C00
7C00
7C00
FC00
F800
F800
F800
ENDCHAR
STARTCHAR s
ENCODING 115
SWIDTH 382 0
DWIDTH 14 0
BBX 16 19 -1 0
BITMAP
00F0
03F0
03F0
07F0
07F0
0FF0
0DF0
09F0
19F0
11F0
31F0
71F0
F1F1
F1F6
C1FC
C3F8
FFE0
7FC0
1F00
ENDCHAR
STARTCHAR t
ENCODING 116
SWIDTH 267 0
DWIDTH 10 0
BBX 11 24 0 0
BITMAP
0080
1F80
1F00
1F00
1F00
1F00
7FC0
3E00
3E00
3E00
7E00
7C00
7C00
7C00
7C00
FC00
F800
F820
F860
F8C0
FFC0
FF80
FF00
7C00
ENDCHAR
STARTCHAR u
ENCODING 117
SWIDTH 505 0
DWIDTH 18 0
BBX 20 18 0 0
BITMAP
3F1F80
3E1F00
3E1F00
3E1F00
7E3F00
7C3E00
7C3E00
7C3E00
7C3E00
FC7E00
F87C00
F87C30
F8FC20
F8FC60
FFFFC0
FF7FC0
FE7F80
7C3E00
ENDCHAR
STARTCHAR v
ENCODING 118
SWIDTH 414 0
DWIDTH 15 0
BBX 14 18 0 0
BITMAP
3F1C
3E3C
3E3C
3E3C
7E0C
7C0C
7C0C
7C0C
7C1C
FC18
F818
F838
F870
F860
F8E0
FFC0
FF80
3E00
ENDCHAR
STARTCHAR w
ENCODING 119
SWIDTH 661 0
DWIDTH 24 0
BBX 23 18 0 0
BITMAP
3F1F9C
3E1F1E
3E1F1E
3E1F1E
7E3F06
7C3E06
7C3E06
7C3E06
7C3E0C
FC7E0C
F87C1C
F87C18
F87C38
F8FC30
F9FC70
FFFFE0
FF7FC0
7C3F00
ENDCHAR
STARTCHAR x
ENCODING 120
SWIDTH 522 0
DWIDTH 19 0
BBX 20 20 0 0
BITMAP
000380
0003C0
03C3C0
07E3C0
0FF0C0
19F1C0
11F180
30FB00
20FE00
60FE00
40FC00
40F800
C0F800
C1F800
037810
067C30
0E7C60
1C3FC0
383F80
701E00
ENDCHAR
STARTCHAR y
ENCODING 121
SWIDTH 486 0
DWIDTH 18 0
BBX 19 27 0 -9
BITMAP
3F1F80
3E1F00
3E1F00
3E1F00
7E3F00
7C3E00
7C3E00
7C3E00
7C7E00
FC7C00
F87C00
F87C60
F8FC60
F8FC40
FFF8C0
FFF980
FEFF00
7CFE00
03F800
0FF000
1DF000
31F000
33F000
33E000
3FE000
3FC000
1F0000
ENDCHAR
STARTCHAR z
ENCODING 122
SWIDTH 428 0
DWIDTH 15 0
BBX 15 18 0 0
BITMAP
0FFE
1FFE
387C
3CF8
38F8
11F0
01F0
03E0
03E0
07C0
0FC0
0F80
1F00
1F1C
3E3C
7E1C
7FF8
FFF0
ENDCHAR
STARTCHAR braceleft
ENCODING 123
SWIDTH 352 0
DWIDTH 13 0
BBX 12 36 2 -9
BITMAP
00F0
03F0
03C0
0780
0780
0F00
0F00
0F00
0F00
0F00
0F00
0F00
0E00
0E00
1E00
1E00
1C00
F800
F800
3C00
3C00
3C00
3C00
3800
7800
7800
7800
F000
F000
F000
F000
F000
F000
F800
7C00
3C00
ENDCHAR
STARTCHAR bar
ENCODING 124
SWIDTH 532 0
DWIDTH 19 0
BBX 3 36 8 -9
BITMAP
E0
E0
E0
E0
E0
E0
E0
E0
E0
E0
E0
E0
E0
E0
E0
E0
E0
E0
E0
E0
E0
E0
E0
E0
E0
E0
E0
E0
E0
E0
E0
E0
E0
E0
E0
E0
ENDCHAR
STARTCHAR braceright
ENCODING 125
SWIDTH 352 0
DWIDTH 13 0
BBX 12 36 -2 -9
BITMAP
03C0
03E0
01F0
00F0
00F0
00F0
00F0
00F0
00F0
01E0
01E0
01E0
01C0
03C0
03C0
03C0
01C0
01F0
01F0
03C0
0780
0780
0700
0700
0F00
0F00
0F00
0F00
0F00
0F00
0F00
1E00
1E00
3E00
FC00
F000
ENDCHAR
STARTCHAR asciitilde
ENCODING 126
SWIDTH 431 0
DWIDTH 16 0
BBX 14 4 2 20
BITMAP
1F84
7FFC
FFF8
83E0
ENDCHAR
STARTCHAR uni00A0
ENCODING 160
SWIDTH 217 0
DWIDTH 8 0
BBX 1 1 0 0
BITMAP
00
ENDCHAR
STARTCHAR exclamdown
ENCODING 161
SWIDTH 219 0
DWIDTH 8 0
BBX 10 27 -2 -9
BITMAP
0380
07C0
07C0
07C0
07C0
0380
0000
0000
0000
0700
0700
0F00
0E00
0E00
1E00
1E00
1E00
1E00
3E00
3C00
3C00
7C00
7C00
7C00
7C00
F800
F800
ENDCHAR
STARTCHAR cent
ENCODING 162
SWIDTH 384 0
DWIDTH 14 0
BBX 15 26 0 -1
BITMAP
0030
0020
0060
0060
01F8
07FC
0FCE
1ECE
3CCE
3CDC
7880
7980
7980
F980
F900
FB00
FB00
7B10
7E30
3FF0
3FF0
0FC0
0600
0C00
0C00
0C00
ENDCHAR
STARTCHAR sterling
ENCODING 163
SWIDTH 455 0
DWIDTH 16 0
BBX 19 27 0 0
BITMAP
001F80
007FC0
00F9C0
01F1E0
01F1C0
01E3C0
03E180
03E000
03E000
03C000
07C000
07C000
3FFE00
7FFE00
078000
0F8000
0F8000
0F8000
0F0000
1F0000
1F0000
1E0040
1FE0C0
3FFFC0
7FFFC0
FFFF80
407E00
ENDCHAR
STARTCHAR currency
ENCODING 164
SWIDTH 500 0
DWIDTH 18 0
BBX 14 13 2 6
BITMAP
4008
E79C
7FF8
3C70
3030
3018
7018
3018
3030
3870
3FF0
EFDC
4008
ENDCHAR
STARTCHAR yen
ENCODING 165
SWIDTH 558 0
DWIDTH 20 0
BBX 18 27 3 0
BITMAP
7E01C0
7E0180
7E0380
3F0300
3F0700
3F0600
3F0600
1F8C00
1F8C00
1F9C00
1F9800
0FD800
0FF000
0FF000
0FE000
07E000
7FFE00
7FFE00
0FC000
0FC000
FFFC00
FFFC00
0F8000
1F8000
1F8000
1F8000
1F0000
ENDCHAR
STARTCHAR brokenbar
ENCODING 166
SWIDTH 532 0
DWIDTH 19 0
BBX 3 36 8 -9
BITMAP
E0
E0
E0
E0
E0
E0
E0
E0
E0
E0
E0
E0
E0
E0
E0
E0
00
00
00
E0
E0
E0
E0
E0
E0
E0
E0
E0
E0
E0
E0
E0
E0
E0
E0
E0
ENDCHAR
STARTCHAR section
ENCODING 167
SWIDTH 542 0
DWIDTH 20 0
BBX 19 28 0 -1
BITMAP
001F80
0078C0
00F0E0
01E0E0
01E0E0
01E1C0
01E000
01F000
07F800
0EFC00
1E7F00
1E3F80
1F1F80
1F87C0
0FC7C0
0FE3C0
03F3C0
01FBC0
00FBC0
387F80
7E7F00
787C00
F07C00
F07C00
F07800
707800
7FF000
1FC000
ENDCHAR
STARTCHAR dieresis
ENCODING 168
SWIDTH 392 0
DWIDTH 14 0
BBX 11 4 2 20
BITMAP
71C0
F1E0
F3E0
71C0
ENDCHAR
STARTCHAR copyright
ENCODING 169
SWIDTH 587 0
DWIDTH 21 0
BBX 17 18 2 3
BITMAP
03E000
0FF800
3C0E00
33E600
67F300
CE1980
CC1980
CC0080
9C0080
8C0080
CC1080
CE1980
C7F180
63E300
300600
1C0E00
0FF800
03E000
ENDCHAR
STARTCHAR ordfeminine
ENCODING 170
SWIDTH 345 0
DWIDTH 12 0
BBX 10 9 2 16
BITMAP
1FC0
7380
6380
E380
E700
C700
E700
FF80
F780
ENDCHAR
STARTCHAR guillemotleft
ENCODING 171
SWIDTH 589 0
DWIDTH 21 0
BBX 19 11 1 4
BITMAP
006060
01E1C0
078700
1E1C00
787000
E1C000
E1E000
387800
1E1E00
078780
018100
ENDCHAR
STARTCHAR logicalnot
ENCODING 172
SWIDTH 444 0
DWIDTH 16 0
BBX 13 9 1 2
BITMAP
FFF8
FFF8
FFF8
0078
00F0
00F0
00F0
00F0
01F0
ENDCHAR
STARTCHAR uni00AD
ENCODING 173
SWIDTH 290 0
DWIDTH 10 0
BBX 8 3 1 8
BITMAP
FF
FE
FE
ENDCHAR
STARTCHAR registered
ENCODING 174
SWIDTH 553 0
DWIDTH 20 0
BBX 18 18 1 3
BITMAP
03F000
0FFC00
1C0E00
300300
67F100
661980
461880
C618C0
C7F0C0
C620C0
C630C0
461080
661980
661900
300300
1C0E00
0FFC00
03F000
ENDCHAR
STARTCHAR macron
ENCODING 175
SWIDTH 446 0
DWIDTH 16 0
BBX 12 2 3 21
BITMAP
FFF0
FFE0
ENDCHAR
STARTCHAR degree
ENCODING 176
SWIDTH 314 0
DWIDTH 11 0
BBX 9 11 1 13
BITMAP
0F00
3980
3180
7180
6180
E180
E180
E300
E300
6600
7C00
ENDCHAR
STARTCHAR plusminus
ENCODING 177
SWIDTH 479 0
DWIDTH 17 0
BBX 15 18 1 4
BITMAP
00E0
00E0
00C0
01C0
01C0
3FFE
7FFE
7FFE
0380
0380
0380
0700
0700
0000
0000
FFF8
FFF8
FFF8
ENDCHAR
STARTCHAR uni00B2
ENCODING 178
SWIDTH 328 0
DWIDTH 12 0
BBX 9 15 2 12
BITMAP
1F00
3380
6380
6380
3380
0380
0700
0E00
1C00
3800
7000
6000
F880
FF80
8F00
ENDCHAR
STARTCHAR uni00B3
ENCODING 179
SWIDTH 336 0
DWIDTH 12 0
BBX 10 15 2 12
BITMAP
0F00
3380
31C0
31C0
3B80
0380
0E00
0700
0380
F380
E380
C380
C380
E700
7E00
ENDCHAR
STARTCHAR acute
ENCODING 180
SWIDTH 316 0
DWIDTH 11 0
BBX 7 7 4 20
BITMAP
0E
1E
1C
38
30
60
E0
ENDCHAR
STARTCHAR uni00B5
ENCODING 181
SWIDTH 505 0
DWIDTH 18 0
BBX 23 24 -3 -6
BITMAP
07E3F0
07C3E0
07C3E0
07C3E0
0FC7E0
0F87C0
0F87C0
0F87C0
0F87C0
1F8FC0
1F0F80
1F0F80
1F0F86
1F1F8C
3F3F88
3FFFF8
3FEFF0
3F87C0
3E0000
7C0000
7C0000
7C0000
7C0000
C00000
ENDCHAR
STARTCHAR paragraph
ENCODING 182
SWIDTH 542 0
DWIDTH 20 0
BBX 15 29 3 -2
BITMAP
07F0
1FFC
3FFC
7FEE
7FEE
FFEE
FFCE
FFCE
FFDE
FFDE
FFDC
FF9C
FF9C
7FBC
3FFC
1FF8
0738
0778
0F78
0F78
0E70
0E70
0EF0
1EF0
1EE0
1CE0
1CE0
1DE0
3DE0
ENDCHAR
STARTCHAR periodcentered
ENCODING 183
SWIDTH 434 0
DWIDTH 16 0
BBX 7 7 4 6
BITMAP
3C
7E
FE
FE
FE
7E
3C
ENDCHAR
STARTCHAR cedilla
ENCODING 184
SWIDTH 227 0
DWIDTH 8 0
BBX 9 9 0 -8
BITMAP
0800
1800
1000
3E00
3F00
0780
8700
FF00
3C00
ENDCHAR
STARTCHAR uni00B9
ENCODING 185
SWIDTH 229 0
DWIDTH 8 0
BBX 6 16 2 11
BITMAP
04
1C
F8
F8
38
38
38
70
70
70
70
70
E0
E0
E0
E0
ENDCHAR
STARTCHAR ordmasculine
ENCODING 186
SWIDTH 329 0
DWIDTH 12 0
BBX 9 10 2 16
BITMAP
1E00
7280
6700
E200
E200
C200
C600
E400
FC00
F800
ENDCHAR
STARTCHAR guillemotright
ENCODING 187
SWIDTH 586 0
DWIDTH 21 0
BBX 19 11 1 4
BITMAP
303000
383800
1E1E00
078780
03C3C0
00E0E0
01E1E0
078780
3E3E00
F0F000
C0C000
ENDCHAR
STARTCHAR onequarter
ENCODING 188
SWIDTH 749 0
DWIDTH 27 0
BBX 25 27 2 0
BITMAP
04007000
1C00E000
F800C000
F801C000
38038000
38030000
38070000
70060000
700E0000
700C0000
701C0000
70180000
E0386380
E0707700
E0607700
E0E07700
00C0E700
01C0EE00
0180CE00
03818E00
0301FF00
0703FF00
0E001C00
0C001C00
1C001C00
18001C00
38003C00
ENDCHAR
STARTCHAR onehalf
ENCODING 189
SWIDTH 745 0
DWIDTH 27 0
BBX 24 27 2 0
BITMAP
040070
1C00E0
F800C0
F801C0
380380
380300
380700
700600
700E00
700C00
701C00
701800
E0383E
E07067
E060C7
E0E0C7
00C067
01C007
01800E
03801C
030038
070060
0E00C0
0C00C0
1C01FF
1801FF
38011E
ENDCHAR
STARTCHAR threequarters
ENCODING 190
SWIDTH 836 0
DWIDTH 30 0
BBX 28 27 2 0
BITMAP
0F000E00
33801C00
31C01800
31C03800
3B803000
03807000
0E00E000
0700C000
0381C000
F3818000
E3838000
C3830000
C3870C70
E7060EE0
7E0E0EE0
001C0EE0
00180CE0
00381DE0
003019C0
007031C0
00603FE0
00E07FE0
00C003C0
01C00380
03800380
03000380
07000780
ENDCHAR
STARTCHAR questiondown
ENCODING 191
SWIDTH 439 0
DWIDTH 16 0
BBX 13 27 0 -9
BITMAP
0070
00F8
00F8
00F8
00F8
0070
0000
0000
0060
0060
0060
00E0
00C0
01C0
0780
0F00
1E00
3C00
7870
F8F8
F878
F038
F838
F878
FCF0
7FE0
1F80
ENDCHAR
STARTCHAR Agrave
ENCODING 192
SWIDTH 668 0
DWIDTH 24 0
BBX 25 40 0 -4
BITMAP
00007800
00003C00
00003C00
00001C00
00001C00
00001C00
00001C00
00000000
00000000
00000F80
00003F80
0000FF80
0001DF00
00039F00
00071F00
00073F00
000E3E00
001C3E00
003C3E00
00383E00
0FF87E00
3FFFFC00
78F1FC00
F1E07C00
F9E07C00
73C0FC00
03C0F800
07C0F800
0780F800
0781F800
0F81F000
0F01F000
0F01F000
1F01F000
1F03F000
1F03E000
1F000000
1E000000
0E000000
07000000
ENDCHAR
STARTCHAR Aacute
ENCODING 193
SWIDTH 668 0
DWIDTH 24 0
BBX 28 40 0 -4
BITMAP
000000F0
000001E0
000001C0
000001C0
00000380
00000380
00000700
00000600
00000000
00000F80
00003F80
0000FF80
0001DF00
00039F00
00071F00
00073F00
000E3E00
001C3E00
003C3E00
00383E00
0FF87E00
3FFFFC00
78F1FC00
F1E07C00
F9E07C00
73C0FC00
03C0F800
07C0F800
0780F800
0781F800
0F81F000
0F01F000
0F01F000
1F01F000
1F03F000
1F03E000
1F000000
1E000000
0E000000
07000000
ENDCHAR
STARTCHAR Acircumflex
ENCODING 194
SWIDTH 668 0
DWIDTH 24 0
BBX 28 40 0 -4
BITMAP
00000080
000001C0
000003C0
000007C0
00000FE0
00001C60
00003020
00006030
00000000
00000F80
00003F80
0000FF80
0001DF00
00039F00
00071F00
00073F00
000E3E00
001C3E00
003C3E00
00383E00
0FF87E00
3FFFFC00
78F1FC00
F1E07C00
F9E07C00
73C0FC00
03C0F800
07C0F800
0780F800
0781F800
0F81F000
0F01F000
0F01F000
1F01F000
1F03F000
1F03E000
1F000000
1E000000
0E000000
07000000
ENDCHAR
STARTCHAR Atilde
ENCODING 195
SWIDTH 668 0
DWIDTH 24 0
BBX 29 37 0 -4
BITMAP
00003E08
0000FFF8
0001FFF0
000207C0
00000000
00000000
00000F80
00003F80
0000FF80
0001DF00
00039F00
00071F00
00073F00
000E3E00
001C3E00
003C3E00
00383E00
0FF87E00
3FFFFC00
78F1FC00
F1E07C00
F9E07C00
73C0FC00
03C0F800
07C0F800
0780F800
0781F800
0F81F000
0F01F000
0F01F000
1F01F000
1F03F000
1F03E000
1F000000
1E000000
0E000000
07000000
ENDCHAR
STARTCHAR Adieresis
ENCODING 196
SWIDTH 668 0
DWIDTH 24 0
BBX 27 37 0 -4
BITMAP
000070C0
0000F9E0
0000F9E0
000070C0
00000000
00000000
00000F80
00003F80
0000FF80
0001DF00
00039F00
00071F00
00073F00
000E3E00
001C3E00
003C3E00
00383E00
0FF87E00
3FFFFC00
78F1FC00
F1E07C00
F9E07C00
73C0FC00
03C0F800
07C0F800
0780F800
0781F800
0F81F000
0F01F000
0F01F000
1F01F000
1F03F000
1F03E000
1F000000
1E000000
0E000000
07000000
ENDCHAR
STARTCHAR Aring
ENCODING 197
SWIDTH 668 0
DWIDTH 24 0
BBX 25 38 0 -4
BITMAP
00000F00
00000900
00001980
00001180
00001900
00000F00
00000000
00000F80
00003F80
0000FF80
0001DF00
00039F00
00071F00
00073F00
000E3E00
001C3E00
003C3E00
00383E00
0FF87E00
3FFFFC00
78F1FC00
F1E07C00
F9E07C00
73C0FC00
03C0F800
07C0F800
0780F800
0781F800
0F81F000
0F01F000
0F01F000
1F01F000
1F03F000
1F03E000
1F000000
1E000000
0E000000
07000000
ENDCHAR
STARTCHAR AE
ENCODING 198
SWIDTH 764 0
DWIDTH 28 0
BBX 33 31 0 -4
BITMAP
00000F8080
00003FFF00
0000FFFF00
0001DF3E00
00039F0000
00071F0000
00073F0000
000E3E0000
001C3E0000
003C3E0000
00383E0000
0FFC7E0000
3FFFFFF000
78F1FFF000
F1E07FE000
F9E07C0000
73C0F80000
03C0F80000
07C0F80000
0780F80000
0781F80000
0F81F00000
0F01F00000
0F01FFF000
1F01FFF000
1F03FFF000
1F03FFE000
1E00000000
1E00000000
0E00000000
0700000000
ENDCHAR
STARTCHAR Ccedilla
ENCODING 199
SWIDTH 497 0
DWIDTH 18 0
BBX 18 35 1 -8
BITMAP
007E00
01FF80
03F3C0
07E1C0
0FC1C0
1F81C0
1F01C0
3F03C0
3F0000
7E0000
7E0000
7E0000
FC0000
FC0000
FC0000
FC0000
FC0000
FC0000
FC0000
FC0000
FC0000
FC00C0
FE0180
FF0700
7FFE00
3FFC00
1FF000
038000
010000
03E000
03F000
007000
007000
0E6000
07C000
ENDCHAR
STARTCHAR Egrave
ENCODING 200
SWIDTH 459 0
DWIDTH 17 0
BBX 18 37 0 -1
BITMAP
007800
003800
003800
003800
003C00
001C00
001C00
000000
000000
003E00
00FF80
01F380
03E1C0
03C1C0
07C1C0
078380
078780
078000
07C000
07C000
03E000
03F800
0FC000
1F8000
3F0000
3F0000
7E0000
7E0000
FE0000
FE0000
FE0080
FE0180
7E0300
7FFE00
3FFC00
1FF000
020000
ENDCHAR
STARTCHAR Eacute
ENCODING 201
SWIDTH 459 0
DWIDTH 17 0
BBX 19 37 0 -1
BITMAP
0001E0
0001C0
0003C0
000380
000700
000700
000E00
000000
000000
003E00
00FF80
01F380
03E1C0
03C1C0
07C1C0
078380
078780
078000
07C000
07C000
03E000
03F800
0FC000
1F8000
3F0000
3F0000
7E0000
7E0000
FE0000
FE0000
FE0080
FE0180
7E0300
7FFE00
3FFC00
1FF000
020000
ENDCHAR
STARTCHAR Ecircumflex
ENCODING 202
SWIDTH 459 0
DWIDTH 17 0
BBX 18 37 0 -1
BITMAP
000100
000300
000700
001F80
003D80
007180
01C0C0
000000
000000
003E00
00FF80
01F380
03E1C0
03C1C0
07C1C0
078380
078780
078000
07C000
07C000
03E000
03F800
0FC000
1F8000
3F0000
3F0000
7E0000
7E0000
FE0000
FE0000
FE0080
FE0180
7E0300
7FFE00
3FFC00
1FF000
020000
ENDCHAR
STARTCHAR Edieresis
ENCODING 203
SWIDTH 459 0
DWIDTH 17 0
BBX 19 34 0 -1
BITMAP
0070E0
0079E0
0079E0
0070E0
000000
000000
003E00
00FF80
01F380
03E1C0
03C1C0
07C1C0
078380
078780
078000
07C000
07C000
03E000
03F800
0FC000
1F8000
3F0000
3F0000
7E0000
7E0000
FE0000
FE0000
FE0080
FE0180
7E0300
7FFE00
3FFC00
1FF000
020000
ENDCHAR
STARTCHAR Igrave
ENCODING 204
SWIDTH 375 0
DWIDTH 14 0
BBX 14 36 0 0
BITMAP
00F0
00F0
00F0
0070
0070
0070
0038
0000
0000
007C
01FC
07FC
0EFC
3CF8
38F8
70F8
70F8
F1F8
F1F0
F1F0
71F0
33F0
03E0
03E0
03E0
03E0
07E0
07C0
07C0
07C0
07C0
0FC0
0F80
0F80
0F80
1F80
ENDCHAR
STARTCHAR Iacute
ENCODING 205
SWIDTH 375 0
DWIDTH 14 0
BBX 18 36 0 0
BITMAP
0003C0
000780
000700
000F00
000E00
001E00
001C00
001800
000000
007C00
01FC00
07FC00
0EFC00
3CF800
38F800
70F800
70F800
F1F800
F1F000
F1F000
71F000
33F000
03E000
03E000
03E000
03E000
07E000
07C000
07C000
07C000
07C000
0FC000
0F8000
0F8000
0F8000
1F8000
ENDCHAR
STARTCHAR Icircumflex
ENCODING 206
SWIDTH 375 0
DWIDTH 14 0
BBX 17 36 0 0
BITMAP
000200
000600
000E00
003E00
007F00
00F300
01C100
030080
000000
007C00
01FC00
07FC00
0EFC00
3CF800
38F800
70F800
70F800
F1F800
F1F000
F1F000
71F000
33F000
03E000
03E000
03E000
03E000
07E000
07C000
07C000
07C000
07C000
0FC000
0F8000
0F8000
0F8000
1F8000
ENDCHAR
STARTCHAR Idieresis
ENCODING 207
SWIDTH 375 0
DWIDTH 14 0
BBX 18 33 0 0
BITMAP
01C380
01E7C0
01E7C0
01C380
000000
000000
007C00
01FC00
07FC00
0EFC00
3CF800
38F800
70F800
70F800
F1F800
F1F000
F1F000
71F000
33F000
03E000
03E000
03E000
03E000
07E000
07C000
07C000
07C000
07C000
0FC000
0F8000
0F8000
0F8000
1F8000
ENDCHAR
STARTCHAR Eth
ENCODING 208
SWIDTH 663 0
DWIDTH 24 0
BBX 23 28 0 -1
BITMAP
007F80
01FFE0
07C1F8
0F007C
1C3C3C
38F83E
78F83E
70F83E
F1F83E
F1F03E
F1F03E
F1F03E
71F23E
17FC3E
07FC3E
03E03E
03E07C
07E07C
07C07C
07C0F8
07C0F8
07C1F8
0FC1F0
0F83E0
0FFFE0
0FFFC0
1FBF00
000400
ENDCHAR
STARTCHAR Ntilde
ENCODING 209
SWIDTH 686 0
DWIDTH 25 0
BBX 26 33 0 0
BITMAP
0003F040
0007FF80
001FFF00
00003C00
00000000
00000000
00FC03C0
07FC03C0
0FFC0380
1EFE0380
3CFE0780
78FE0780
70FE0700
F0FF0700
F1FF0700
F1FF0F00
F1FF0F00
71DF0E00
71CF8E00
0BCF8E00
03CF9E00
038F9C00
0387DC00
0787DC00
0787DC00
0707FC00
0707F800
0703F800
0F03F800
0F03F800
0E03F800
0E01F000
1E01F000
ENDCHAR
STARTCHAR Ograve
ENCODING 210
SWIDTH 665 0
DWIDTH 24 0
BBX 23 36 1 0
BITMAP
003C00
003C00
001C00
001C00
001C00
000C00
000E00
000000
000000
003FC0
01FFF0
07C1F8
1F0278
3C7C7C
78F83C
71F03C
F1F03E
E3E03E
E7E03E
E7C03E
E7C03C
6FC07C
0F807C
0F807C
1F807C
1F80F8
1F00F8
1F00F8
1F01F0
1F01F0
1F03E0
1F87C0
1F8F80
0FFF00
07FE00
03F800
ENDCHAR
STARTCHAR Oacute
ENCODING 211
SWIDTH 665 0
DWIDTH 24 0
BBX 23 36 1 0
BITMAP
000070
0000F0
0000E0
0001C0
0001C0
000380
000700
000000
000000
003FC0
01FFF0
07C1F8
1F0278
3C7C7C
78F83C
71F03C
F1F03E
E3E03E
E7E03E
E7C03E
E7C03C
6FC07C
0F807C
0F807C
1F807C
1F80F8
1F00F8
1F00F8
1F01F0
1F01F0
1F03E0
1F87C0
1F8F80
0FFF00
07FE00
03F800
ENDCHAR
STARTCHAR Ocircumflex
ENCODING 212
SWIDTH 665 0
DWIDTH 24 0
BBX 23 36 1 0
BITMAP
000080
0001C0
0003C0
0007C0
000FE0
001860
006020
000000
000000
003FC0
01FFF0
07C1F8
1F0278
3C7C7C
78F83C
71F03C
F1F03E
E3E03E
E7E03E
E7C03E
E7C03C
6FC07C
0F807C
0F807C
1F807C
1F80F8
1F00F8
1F00F8
1F01F0
1F01F0
1F03E0
1F87C0
1F8F80
0FFF00
07FE00
03F800
ENDCHAR
STARTCHAR Otilde
ENCODING 213
SWIDTH 665 0
DWIDTH 24 0
BBX 23 33 1 0
BITMAP
000FC2
003FFE
007FFC
0041F0
000000
000000
003FC0
01FFF0
07C1F8
1F0278
3C7C7C
78F83C
71F03C
F1F03E
E3E03E
E7E03E
E7C03E
E7C03C
6FC07C
0F807C
0F807C
1F807C
1F80F8
1F00F8
1F00F8
1F01F0
1F01F0
1F03E0
1F87C0
1F8F80
0FFF00
07FE00
03F800
ENDCHAR
STARTCHAR Odieresis
ENCODING 214
SWIDTH 665 0
DWIDTH 24 0
BBX 23 33 1 0
BITMAP
003860
007CF0
007CF0
003860
000000
000000
003FC0
01FFF0
07C1F8
1F0278
3C7C7C
78F83C
71F03C
F1F03E
E3E03E
E7E03E
E7C03E
E7C03C
6FC07C
0F807C
0F807C
1F807C
1F80F8
1F00F8
1F00F8
1F01F0
1F01F0
1F03E0
1F87C0
1F8F80
0FFF00
07FE00
03F800
ENDCHAR
STARTCHAR multiply
ENCODING 215
SWIDTH 414 0
DWIDTH 15 0
BBX 11 11 2 7
BITMAP
4040
E0E0
F1E0
7BC0
3F80
1F00
1F00
3F80
7BC0
F1E0
60C0
ENDCHAR
STARTCHAR Oslash
ENCODING 216
SWIDTH 658 0
DWIDTH 24 0
BBX 22 30 1 -3
BITMAP
000180
000100
007F80
03FFE0
0F83F0
1E3FF8
38F678
71F678
F3E67C
E3E67C
E7C67C
E7CC7C
EF8C7C
6F8C7C
0F8CF8
1F98F8
1F18F8
1F18F8
1F19F0
1F19F0
1F33E0
1F33E0
1F37C0
1F3F80
0FFF80
0FFE00
03FC00
006000
006000
006000
ENDCHAR
STARTCHAR Ugrave
ENCODING 217
SWIDTH 716 0
DWIDTH 26 0
BBX 27 36 0 0
BITMAP
0001C000
0001E000
0001E000
0000E000
0000E000
0000E000
00006000
00000000
00000000
007E03E0
03FE03E0
07FE03E0
1E7C07C0
3C7C07C0
787C07C0
70FC07C0
F0F807C0
E0F80F80
E0F80F80
E1F00F80
E1F00F80
71F01F80
01F01F00
03E01F00
03E01F00
03E03F00
03E03E00
03C03E00
07C03E00
07C07C00
07C07C00
07E0F800
03E1F800
03FFF000
01FFC000
007F0000
ENDCHAR
STARTCHAR Uacute
ENCODING 218
SWIDTH 716 0
DWIDTH 26 0
BBX 27 36 0 0
BITMAP
00001E00
00001C00
00003C00
00003800
00007000
00007000
0000E000
00000000
00000000
007E03E0
03FE03E0
07FE03E0
1E7C07C0
3C7C07C0
787C07C0
70FC07C0
F0F807C0
E0F80F80
E0F80F80
E1F00F80
E1F00F80
71F01F80
01F01F00
03E01F00
03E01F00
03E03F00
03E03E00
03C03E00
07C03E00
07C07C00
07C07C00
07E0F800
03E1F800
03FFF000
01FFC000
007F0000
ENDCHAR
STARTCHAR Ucircumflex
ENCODING 219
SWIDTH 716 0
DWIDTH 26 0
BBX 27 36 0 0
BITMAP
00000800
00001C00
00003C00
00007C00
0000FE00
0001C600
00070200
00000000
00000000
007E03E0
03FE03E0
07FE03E0
1E7C07C0
3C7C07C0
787C07C0
70FC07C0
F0F807C0
E0F80F80
E0F80F80
E1F00F80
E1F00F80
71F01F80
01F01F00
03E01F00
03E01F00
03E03F00
03E03E00
03C03E00
07C03E00
07C07C00
07C07C00
07E0F800
03E1F800
03FFF000
01FFC000
007F0000
ENDCHAR
STARTCHAR Udieresis
ENCODING 220
SWIDTH 716 0
DWIDTH 26 0
BBX 27 34 0 0
BITMAP
00038700
0003CF00
0003CF00
00038700
00000000
00000000
00000000
007E03E0
03FE03E0
07FE03E0
1E7C07C0
3C7C07C0
787C07C0
70FC07C0
F0F807C0
E0F80F80
E0F80F80
E1F00F80
E1F00F80
71F01F80
01F01F00
03E01F00
03E01F00
03E03F00
03E03E00
03C03E00
07C03E00
07C07C00
07C07C00
07E0F800
03E1F800
03FFF000
01FFC000
007F0000
ENDCHAR
STARTCHAR Yacute
ENCODING 221
SWIDTH 620 0
DWIDTH 22 0
BBX 25 36 0 0
BITMAP
00000780
00000700
00000F00
00000E00
00001C00
00001C00
00003800
00003000
00000000
007C0180
01FE0300
07FE0300
0E7E0700
3C7E0600
383F0E00
703F0C00
703F0C00
F03F1800
F01F9800
F01FB800
701FB000
300FB000
000FE000
000FE000
000FC000
000FC000
000FC000
000FC000
000F8000
001F8000
001F8000
001F8000
001F8000
001F0000
003F0000
003F0000
ENDCHAR
STARTCHAR Thorn
ENCODING 222
SWIDTH 583 0
DWIDTH 21 0
BBX 21 27 0 0
BITMAP
001C00
007C00
007C00
00FC00
00FF80
01FFE0
07F9F0
0FF8F0
1DF878
39F078
79F078
71F078
F1F078
F3F078
F3E078
F3E0F0
73E0F0
07E1E0
07E3C0
07C780
07FE00
07C000
0FC000
0F8000
0F8000
0F8000
1F8000
ENDCHAR
STARTCHAR germandbls
ENCODING 223
SWIDTH 480 0
DWIDTH 17 0
BBX 19 34 -3 -9
BITMAP
001F00
007F80
00FBC0
01F1C0
01F1C0
03E1C0
03E180
03E380
07E380
07C700
07C600
07CE00
07CF00
0FC780
0F8380
0F83C0
0F83C0
1F83E0
1F03E0
1F03E0
1F03E0
1F03C0
3F47C0
3E7F80
3E7E00
3E0000
7E0000
7C0000
7C0000
7C0000
7C0000
FC0000
F80000
800000
ENDCHAR
STARTCHAR agrave
ENCODING 224
SWIDTH 526 0
DWIDTH 19 0
BBX 20 27 0 0
BITMAP
00F000
00F000
007000
007000
007000
007000
003800
000000
000000
03EF80
0FFF80
1F9F80
3F1F80
3E1F00
7C1F00
7C1F00
FC1F00
F83F00
F83E00
F83E00
F83E00
F87E10
F87E30
F8FE60
FFBFC0
7F3F80
3E1F00
ENDCHAR
STARTCHAR aacute
ENCODING 225
SWIDTH 526 0
DWIDTH 19 0
BBX 20 27 0 0
BITMAP
000F00
001E00
001C00
003C00
003800
007000
007000
000000
000000
03EF80
0FFF80
1F9F80
3F1F80
3E1F00
7C1F00
7C1F00
FC1F00
F83F00
F83E00
F83E00
F83E00
F87E10
F87E30
F8FE60
FFBFC0
7F3F80
3E1F00
ENDCHAR
STARTCHAR acircumflex
ENCODING 226
SWIDTH 526 0
DWIDTH 19 0
BBX 20 27 0 0
BITMAP
000400
000C00
003E00
007E00
00F600
01C300
030100
000000
000000
03EF80
0FFF80
1F9F80
3F1F80
3E1F00
7C1F00
7C1F00
FC1F00
F83F00
F83E00
F83E00
F83E00
F87E10
F87E30
F8FE60
FFBFC0
7F3F80
3E1F00
ENDCHAR
STARTCHAR atilde
ENCODING 227
SWIDTH 526 0
DWIDTH 19 0
BBX 20 25 0 0
BITMAP
002000
01FC20
07FFC0
07FF80
080800
000000
000000
03EF80
0FFF80
1F9F80
3F1F80
3E1F00
7C1F00
7C1F00
FC1F00
F83F00
F83E00
F83E00
F83E00
F87E10
F87E30
F8FE60
FFBFC0
7F3F80
3E1F00
ENDCHAR
STARTCHAR adieresis
ENCODING 228
SWIDTH 526 0
DWIDTH 19 0
BBX 20 25 0 0
BITMAP
01C380
01E780
03E780
01C380
000000
000000
000000
03EF80
0FFF80
1F9F80
3F1F80
3E1F00
7C1F00
7C1F00
FC1F00
F83F00
F83E00
F83E00
F83E00
F87E10
F87E30
F8FE60
FFBFC0
7F3F80
3E1F00
ENDCHAR
STARTCHAR aring
ENCODING 229
SWIDTH 526 0
DWIDTH 19 0
BBX 20 25 0 0
BITMAP
003800
004400
00C400
004C00
007800
000000
000000
03EF80
0FFF80
1F9F80
3F1F80
3E1F00
7C1F00
7C1F00
FC1F00
F83F00
F83E00
F83E00
F83E00
F87E10
F87E30
F8FE60
FFBFC0
7F3F80
3E1F00
ENDCHAR
STARTCHAR ae
ENCODING 230
SWIDTH 650 0
DWIDTH 23 0
BBX 25 18 0 0
BITMAP
03F0F800
0FFFFC00
1C7FCE00
103F8E00
003F0E00
003F0C00
003E1C00
003E3800
1FFEF800
7FFFE000
FC7F8000
F87C0000
F87C0180
F8FE0200
F8FE0E00
FFBFFC00
7F3FF000
3E0FC000
ENDCHAR
STARTCHAR ccedilla
ENCODING 231
SWIDTH 384 0
DWIDTH 14 0
BBX 15 25 0 -7
BITMAP
03F0
0FF8
1FB8
3F38
3E38
7C30
7C00
FC00
F800
F800
F800
F800
F806
F80C
FC38
FFF0
7FE0
3F80
0300
0200
07C0
07E0
00E0
08C0
1F80
ENDCHAR
STARTCHAR egrave
ENCODING 232
SWIDTH 384 0
DWIDTH 14 0
BBX 15 27 0 0
BITMAP
03C0
03C0
03C0
01C0
01C0
01C0
00E0
0000
0000
03F0
0FF8
1FB8
3F38
3E38
7C38
7C78
FCF0
F9E0
FFC0
FF00
F800
F806
F80C
FC38
FFF0
7FE0
3F00
ENDCHAR
STARTCHAR eacute
ENCODING 233
SWIDTH 384 0
DWIDTH 14 0
BBX 15 27 0 0
BITMAP
001E
001C
003C
0038
0070
0070
00E0
0000
0000
03F0
0FF8
1FB8
3F38
3E38
7C38
7C78
FCF0
F9E0
FFC0
FF00
F800
F806
F80C
FC38
FFF0
7FE0
3F00
ENDCHAR
STARTCHAR ecircumflex
ENCODING 234
SWIDTH 384 0
DWIDTH 14 0
BBX 15 27 0 0
BITMAP
0010
0038
0078
00F8
01DC
070C
0C04
0000
0000
03F0
0FF8
1FB8
3F38
3E38
7C38
7C78
FCF0
F9E0
FFC0
FF00
F800
F806
F80C
FC38
FFF0
7FE0
3F00
ENDCHAR
STARTCHAR edieresis
ENCODING 235
SWIDTH 384 0
DWIDTH 14 0
BBX 15 25 0 0
BITMAP
070C
0F9E
0F9E
071C
0000
0000
0000
03F0
0FF8
1FB8
3F38
3E38
7C38
7C78
FCF0
F9E0
FFC0
FF00
F800
F806
F80C
FC38
FFF0
7FE0
3F00
ENDCHAR
STARTCHAR igrave
ENCODING 236
SWIDTH 267 0
DWIDTH 10 0
BBX 11 27 0 0
BITMAP
3C00
3C00
1C00
1C00
1C00
0E00
0E00
0000
0000
3F00
3E00
3E00
3E00
7E00
7C00
7C00
7C00
7C00
FC00
F800
F820
F860
F8C0
FDC0
FF80
FF00
7C00
ENDCHAR
STARTCHAR iacute
ENCODING 237
SWIDTH 267 0
DWIDTH 10 0
BBX 11 27 0 0
BITMAP
01E0
01C0
0380
0380
0700
0700
0E00
0000
0000
3F00
3E00
3E00
3E00
7E00
7C00
7C00
7C00
7C00
FC00
F800
F820
F860
F8C0
FDC0
FF80
FF00
7C00
ENDCHAR
STARTCHAR icircumflex
ENCODING 238
SWIDTH 267 0
DWIDTH 10 0
BBX 11 27 0 0
BITMAP
0180
0380
0780
0FC0
1CC0
70C0
C060
0000
0000
3F00
3E00
3E00
3E00
7E00
7C00
7C00
7C00
7C00
FC00
F800
F820
F860
F8C0
FDC0
FF80
FF00
7C00
ENDCHAR
STARTCHAR idieresis
ENCODING 239
SWIDTH 267 0
DWIDTH 10 0
BBX 11 25 0 0
BITMAP
71C0
79E0
79E0
71C0
0000
0000
0000
3F00
3E00
3E00
3E00
7E00
7C00
7C00
7C00
7C00
FC00
F800
F820
F860
F8C0
FDC0
FF80
FF00
7C00
ENDCHAR
STARTCHAR eth
ENCODING 240
SWIDTH 526 0
DWIDTH 19 0
BBX 20 27 0 0
BITMAP
000800
003C00
003E60
001FF0
007F80
01FF00
018F80
000F80
000F80
03EF80
0FFF80
1F9F80
3F1F80
3E1F00
7C1F00
7C1F00
FC1F00
F83F00
F83E00
F83E00
F83E00
F87E10
F87E30
F8FE60
FFBFC0
7F3F80
3E1F00
ENDCHAR
STARTCHAR ntilde
ENCODING 241
SWIDTH 505 0
DWIDTH 18 0
BBX 21 24 -1 0
BITMAP
01F820
03FFC0
07FF80
083E00
000000
000000
1FBE00
1F7F00
1FFF00
1F9F00
3F1F00
3F1F00
3E1F00
3E1F00
3E1F00
7E1F00
7C3E00
7C3E00
7C3E18
7C3E30
FC3E20
F83FE0
F83FC0
F80F00
ENDCHAR
STARTCHAR ograve
ENCODING 242
SWIDTH 433 0
DWIDTH 16 0
BBX 21 27 -1 0
BITMAP
01E000
00E000
00F000
00F000
007000
007000
007000
000000
000000
01F000
07FC00
0FDC00
1F0E00
1F1E18
3E1E70
3E1FC0
7C1E00
7C1E00
7C1C00
FC1C00
FC1C00
FC3800
FC3800
7C7000
7FE000
3FC000
1F8000
ENDCHAR
STARTCHAR oacute
ENCODING 243
SWIDTH 439 0
DWIDTH 16 0
BBX 21 27 -1 0
BITMAP
000F00
000E00
001E00
001C00
003800
003800
007000
000000
000000
01F800
07FC00
0FDC00
1F8E00
1F0E18
3E1E70
3E1FC0
7E0E00
7C0E00
7C1E00
7C1C00
7C1C00
FC3C00
7C3800
7C7800
7FF000
3FE000
1F8000
ENDCHAR
STARTCHAR ocircumflex
ENCODING 244
SWIDTH 433 0
DWIDTH 16 0
BBX 21 27 -1 0
BITMAP
001800
003800
007C00
00FC00
01EC00
038400
060600
080000
000000
01F000
07FC00
0FDC00
1F0E00
1F1E18
3E1E70
3E1FC0
7C1E00
7C1E00
7C1C00
FC1C00
FC1C00
FC3800
FC3800
7C7000
7FE000
3FC000
1F8000
ENDCHAR
STARTCHAR otilde
ENCODING 245
SWIDTH 433 0
DWIDTH 16 0
BBX 21 24 -1 0
BITMAP
03F080
0FFF00
1FFE00
203000
000000
000000
01F000
07FC00
0FDC00
1F0E00
1F1E18
3E1E70
3E1FC0
7C1E00
7C1E00
7C1C00
FC1C00
FC1C00
FC3800
FC3800
7C7000
7FE000
3FC000
1F8000
ENDCHAR
STARTCHAR odieresis
ENCODING 246
SWIDTH 433 0
DWIDTH 16 0
BBX 21 25 -1 0
BITMAP
030E00
079F00
079F00
030E00
000000
000000
000000
01F000
07FC00
0FDC00
1F0E00
1F1E18
3E1E70
3E1FC0
7C1E00
7C1E00
7C1C00
FC1C00
FC1C00
FC3800
FC3800
7C7000
7FE000
3FC000
1F8000
ENDCHAR
STARTCHAR divide
ENCODING 247
SWIDTH 415 0
DWIDTH 15 0
BBX 14 18 1 3
BITMAP
01C0
03E0
07E0
07E0
03E0
01C0
0000
7FFC
7FF8
FFF8
0000
0000
0F00
0F80
1F80
1F80
0F80
0F00
ENDCHAR
STARTCHAR oslash
ENCODING 248
SWIDTH 428 0
DWIDTH 15 0
BBX 20 20 -3 -2
BITMAP
003E30
00FF60
03F7C0
07E380
07C380
0F8780
0F8780
1F8F80
1F1B80
1F3780
1F6700
1FC700
1F8F00
1F8E00
1F1C00
1FF800
0FF000
1FC000
300000
E00000
ENDCHAR
STARTCHAR ugrave
ENCODING 249
SWIDTH 505 0
DWIDTH 18 0
BBX 20 27 0 0
BITMAP
01E000
01E000
01E000
00E000
00E000
00E000
006000
000000
000000
3F1F80
3E1F00
3E1F00
3E1F00
7E3F00
7C3E00
7C3E00
7C3E00
7C3E00
FC7E00
F87C00
F87C30
F8FC20
F8FC60
FFFFC0
FF7FC0
FE7F80
7C3E00
ENDCHAR
STARTCHAR uacute
ENCODING 250
SWIDTH 505 0
DWIDTH 18 0
BBX 20 27 0 0
BITMAP
000F00
001E00
001C00
003800
003800
007000
007000
000000
000000
3F1F80
3E1F00
3E1F00
3E1F00
7E3F00
7C3E00
7C3E00
7C3E00
7C3E00
FC7E00
F87C00
F87C30
F8FC20
F8FC60
FFFFC0
FF7FC0
FE7F80
7C3E00
ENDCHAR
STARTCHAR ucircumflex
ENCODING 251
SWIDTH 505 0
DWIDTH 18 0
BBX 20 27 0 0
BITMAP
000800
003800
007C00
00FC00
01EC00
038600
060200
000000
000000
3F1F80
3E1F00
3E1F00
3E1F00
7E3F00
7C3E00
7C3E00
7C3E00
7C3E00
FC7E00
F87C00
F87C30
F8FC20
F8FC60
FFFFC0
FF7FC0
FE7F80
7C3E00
ENDCHAR
STARTCHAR udieresis
ENCODING 252
SWIDTH 505 0
DWIDTH 18 0
BBX 20 25 0 0
BITMAP
038E00
079F00
079F00
038E00
000000
000000
000000
3F1F80
3E1F00
3E1F00
3E1F00
7E3F00
7C3E00
7C3E00
7C3E00
7C3E00
FC7E00
F87C00
F87C30
F8FC20
F8FC60
FFFFC0
FF7FC0
FE7F80
7C3E00
ENDCHAR
STARTCHAR yacute
ENCODING 253
SWIDTH 505 0
DWIDTH 18 0
BBX 19 36 0 -9
BITMAP
000F00
001E00
001C00
003800
003800
007000
006000
000000
000000
3F1F80
3E1F00
3E1F00
3E1F00
7E3F00
7C3E00
7C3E00
7C3E00
7C7E00
FC7C00
F87C00
F87C60
F8FC60
F8FC40
FFF8C0
FFF980
FEFF00
7CFE00
03F800
0FF000
1DF000
31F000
33F000
33E000
3FE000
3FC000
1F0000
ENDCHAR
STARTCHAR thorn
ENCODING 254
SWIDTH 473 0
DWIDTH 17 0
BBX 19 36 -3 -9
BITMAP
001800
01F000
01F000
01F000
03F000
03E000
03E000
03E000
03E000
07CF80
07FFC0
07E7C0
07C3E0
07C3E0
0F83E0
0F83E0
0F83E0
0F83E0
1F83E0
1F07C0
1F07C0
1F0FC0
1F0F80
3F1F00
3F3F00
3FFE00
3EF800
7E0000
7C0000
7C0000
7C0000
7C0000
FC0000
F80000
F80000
800000
ENDCHAR
STARTCHAR ydieresis
ENCODING 255
SWIDTH 505 0
DWIDTH 18 0
BBX 19 34 0 -9
BITMAP
070C00
0F9E00
0F9E00
070E00
000000
000000
000000
3F1F80
3E1F00
3E1F00
3E1F00
7E3F00
7C3E00
7C3E00
7C3E00
7C7E00
FC7C00
F87C00
F87C60
F8FC60
F8FC40
FFF8C0
FFF980
FEFF00
7CFE00
03F800
0FF000
1DF000
31F000
33F000
33E000
3FE000
3FC000
1F0000
ENDCHAR
STARTCHAR Amacron
ENCODING 256
SWIDTH 668 0
DWIDTH 24 0
BBX 28 36 0 -4
BITMAP
0000FFF0
0000FFF0
00000000
00000000
00000000
00000F80
00003F80
0000FF80
0001DF00
00039F00
00071F00
00073F00
000E3E00
001C3E00
003C3E00
00383E00
0FF87E00
3FFFFC00
78F1FC00
F1E07C00
F9E07C00
73C0FC00
03C0F800
07C0F800
0780F800
0781F800
0F81F000
0F01F000
0F01F000
1F01F000
1F03F000
1F03E000
1F000000
1E000000
0E000000
07000000
ENDCHAR
STARTCHAR amacron
ENCODING 257
SWIDTH 526 0
DWIDTH 19 0
BBX 20 24 0 0
BITMAP
03FFC0
03FFC0
000000
000000
000000
000000
03EF80
0FFF80
1F9F80
3F1F80
3E1F00
7C1F00
7C1F00
FC1F00
F83F00
F83E00
F83E00
F83E00
F87E10
F87E30
F8FE60
FFBFC0
7F3F80
3E1F00
ENDCHAR
STARTCHAR Abreve
ENCODING 258
SWIDTH 668 0
DWIDTH 24 0
BBX 30 38 0 -4
BITMAP
0000701C
00007038
00007878
00003FF0
00001F80
00000000
00000000
00000F80
00003F80
0000FF80
0001DF00
00039F00
00071F00
00073F00
000E3E00
001C3E00
003C3E00
00383E00
0FF87E00
3FFFFC00
78F1FC00
F1E07C00
F9E07C00
73C0FC00
03C0F800
07C0F800
0780F800
0781F800
0F81F000
0F01F000
0F01F000
1F01F000
1F03F000
1F03E000
1F000000
1E000000
0E000000
07000000
ENDCHAR
STARTCHAR abreve
ENCODING 259
SWIDTH 526 0
DWIDTH 19 0
BBX 20 26 0 0
BITMAP
0781E0
0381C0
03C380
01FF00
00FC00
000000
000000
000000
03EF80
0FFF80
1F9F80
3F1F80
3E1F00
7C1F00
7C1F00
FC1F00
F83F00
F83E00
F83E00
F83E00
F87E10
F87E30
F8FE60
FFBFC0
7F3F80
3E1F00
ENDCHAR
STARTCHAR Aogonek
ENCODING 260
SWIDTH 668 0
DWIDTH 24 0
BBX 25 34 0 -7
BITMAP
00000F80
00003F80
0000FF80
0001DF00
00039F00
00071F00
00073F00
000E3E00
001C3E00
003C3E00
00383E00
0FF87E00
3FFFFC00
78F1FC00
F1E07C00
F9E07C00
73C0FC00
03C0F800
07C0F800
0780F800
0781F800
0F81F000
0F01F000
0F01F000
1F01F000
1F03F000
1F03E000
1E018000
1E030000
1E070000
0F070000
0007B000
0007E000
0003C000
ENDCHAR
STARTCHAR aogonek
ENCODING 261
SWIDTH 526 0
DWIDTH 19 0
BBX 20 25 0 -7
BITMAP
03EF80
0FFF80
1F9F80
3F1F80
3E1F00
7C1F00
7C1F00
FC1F00
F83F00
F83E00
F83E00
F83E00
F87E10
F87E30
F8FE60
FFBFC0
7F3FC0
3E1F00
000E00
001C00
001800
003800
003C80
001F00
000E00
ENDCHAR
STARTCHAR Cacute
ENCODING 262
SWIDTH 497 0
DWIDTH 18 0
BBX 18 37 1 -1
BITMAP
0003C0
0003C0
000780
000700
000F00
000E00
001C00
000000
000000
007E00
01FF80
03F3C0
07C1C0
0FC1C0
1F81C0
1F01C0
3F03C0
3F0100
7E0000
7E0000
7E0000
FC0000
FC0000
FC0000
FC0000
FC0000
FC0000
FC0000
FC0000
FC0000
FC0040
FC0080
FE0380
7FFF00
3FFC00
1FF000
010000
ENDCHAR
STARTCHAR cacute
ENCODING 263
SWIDTH 384 0
DWIDTH 14 0
BBX 16 27 0 0
BITMAP
000F
001E
001C
003C
0038
0070
0070
0000
0000
03F0
0FF8
1FB8
3F38
3E38
7C30
7C00
FC00
F800
F800
F800
F800
F806
F80C
FC38
FFF0
7FC0
3F00
ENDCHAR
STARTCHAR Ccircumflex
ENCODING 264
SWIDTH 497 0
DWIDTH 18 0
BBX 18 37 1 -1
BITMAP
000200
000600
000E00
003F00
007B00
00E300
038180
000000
000000
007E00
01FF80
03F3C0
07C1C0
0FC1C0
1F81C0
1F01C0
3F03C0
3F0100
7E0000
7E0000
7E0000
FC0000
FC0000
FC0000
FC0000
FC0000
FC0000
FC0000
FC0000
FC0000
FC0040
FC0080
FE0380
7FFF00
3FFC00
1FF000
010000
ENDCHAR
STARTCHAR ccircumflex
ENCODING 265
SWIDTH 384 0
DWIDTH 14 0
BBX 15 27 0 0
BITMAP
0010
0038
0078
00F8
01DC
030C
0E04
0000
0000
03F0
0FF8
1FB8
3F38
3E38
7C30
7C00
FC00
F800
F800
F800
F800
F806
F80C
FC38
FFF0
7FC0
3F00
ENDCHAR
STARTCHAR Cdotaccent
ENCODING 266
SWIDTH 497 0
DWIDTH 18 0
BBX 18 36 1 -1
BITMAP
000780
0007C0
000FC0
000FC0
0007C0
000780
000000
000000
007E00
01FF80
03F3C0
07C1C0
0FC1C0
1F81C0
1F01C0
3F03C0
3F0100
7E0000
7E0000
7E0000
FC0000
FC0000
FC0000
FC0000
FC0000
FC0000
FC0000
FC0000
FC0000
FC0040
FC0080
FE0380
7FFF00
3FFC00
1FF000
010000
ENDCHAR
STARTCHAR cdotaccent
ENCODING 267
SWIDTH 384 0
DWIDTH 14 0
BBX 15 27 0 0
BITMAP
0070
00F8
00F8
00FC
00F8
0070
0000
0000
0000
03F0
0FF8
1FB8
3F38
3E38
7C30
7C00
FC00
F800
F800
F800
F800
F806
F80C
FC38
FFF0
7FC0
3F00
ENDCHAR
STARTCHAR Ccaron
ENCODING 268
SWIDTH 497 0
DWIDTH 18 0
BBX 20 37 1 -1
BITMAP
002030
0020E0
0033C0
001F80
001E00
001C00
001800
000000
000000
007E00
01FF80
03F3C0
07C1C0
0FC1C0
1F81C0
1F01C0
3F03C0
3F0100
7E0000
7E0000
7E0000
FC0000
FC0000
FC0000
FC0000
FC0000
FC0000
FC0000
FC0000
FC0000
FC0040
FC0080
FE0380
7FFF00
3FFC00
1FF000
010000
ENDCHAR
STARTCHAR ccaron
ENCODING 269
SWIDTH 384 0
DWIDTH 14 0
BBX 18 27 0 0
BITMAP
0181C0
008700
00DE00
00FC00
00F800
007000
006000
000000
000000
03F000
0FF800
1FB800
3F3800
3E3800
7C3000
7C0000
FC0000
F80000
F80000
F80000
F80000
F80600
F80C00
FC3800
FFF000
7FC000
3F0000
ENDCHAR
STARTCHAR Dcaron
ENCODING 270
SWIDTH 663 0
DWIDTH 24 0
BBX 23 37 0 -1
BITMAP
001008
001830
0018E0
000FC0
000F80
000F00
000600
000400
000000
003F80
01FFE0
07C1F8
0F0078
3C7C7C
38F83C
78F83E
70F83E
F1F83E
F1F03E
F1F03E
71F03E
71F03E
03F03E
03E03E
03E03E
03E07C
07E07C
07C07C
07C0F8
07C0F8
07C1F8
0FC1F0
0F83E0
0FFFE0
0FFFC0
1FBF00
000400
ENDCHAR
STARTCHAR dcaron
ENCODING 271
SWIDTH 525 0
DWIDTH 19 0
BBX 25 27 0 0
BITMAP
00000700
00000F00
00006F80
0007E700
0007C300
0007C600
0007CC00
000FC400
000F8000
03EF8000
0FFF8000
1F9F8000
3F1F8000
3E1F0000
7C1F0000
7C1F0000
FC1F0000
F83F0000
F83E0000
F83E0000
F83E0000
F87E1000
F87E3000
F8FE6000
FFBFC000
7F3F8000
3E1F0000
ENDCHAR
STARTCHAR Dcroat
ENCODING 272
SWIDTH 663 0
DWIDTH 24 0
BBX 23 28 0 -1
BITMAP
007F80
01FFE0
07C1F8
0F007C
1C3C3C
38F83E
78F83E
70F83E
F1F83E
F1F03E
F1F03E
F1F03E
71F23E
17FC3E
07FC3E
03E03E
03E07C
07E07C
07C07C
07C0F8
07C0F8
07C1F8
0FC1F0
0F83E0
0FFFE0
0FFFC0
1FBF00
000400
ENDCHAR
STARTCHAR dcroat
ENCODING 273
SWIDTH 525 0
DWIDTH 19 0
BBX 21 25 0 0
BITMAP
0007E0
0007C0
0007C0
003FF8
007FF8
000FC0
000F80
03EF80
0FFF80
1F9F80
3F1F80
3E1F00
7C1F00
7C1F00
FC1F00
F83F00
F83E00
F83E00
F83E00
F87E10
F87E30
F8FE60
FFBFC0
7F3F80
3E1F00
ENDCHAR
STARTCHAR Emacron
ENCODING 274
SWIDTH 459 0
DWIDTH 17 0
BBX 20 33 0 -1
BITMAP
00FFF0
00FFF0
000000
000000
000000
003E00
00FF80
01F380
03E1C0
03C1C0
07C1C0
078380
078780
078000
07C000
07C000
03E000
03F800
0FC000
1F8000
3F0000
3F0000
7E0000
7E0000
FE0000
FE0000
FE0080
FE0180
7E0300
7FFE00
3FFC00
1FF000
020000
ENDCHAR
STARTCHAR emacron
ENCODING 275
SWIDTH 384 0
DWIDTH 14 0
BBX 15 24 0 0
BITMAP
1FFE
1FFE
0000
0000
0000
0000
03F0
0FF8
1FB8
3F38
3E38
7C38
7C78
FCF0
F9E0
FFC0
FF00
F800
F806
F80C
FC38
FFF0
7FE0
3F00
ENDCHAR
STARTCHAR Ebreve
ENCODING 276
SWIDTH 459 0
DWIDTH 17 0
BBX 21 35 0 -1
BITMAP
00E038
00E078
00F0F0
007FE0
001F80
000000
000000
003E00
00FF80
01F380
03E1C0
03C1C0
07C1C0
078380
078780
078000
07C000
07C000
03E000
03F800
0FC000
1F8000
3F0000
3F0000
7E0000
7E0000
FE0000
FE0000
FE0080
FE0180
7E0300
7FFE00
3FFC00
1FF000
020000
ENDCHAR
STARTCHAR ebreve
ENCODING 277
SWIDTH 384 0
DWIDTH 14 0
BBX 16 26 0 0
BITMAP
1C0F
1C0E
1E1C
0FF8
07E0
0000
0000
0000
03F0
0FF8
1FB8
3F38
3E38
7C38
7C78
FCF0
F9E0
FFC0
FF00
F800
F806
F80C
FC38
FFF0
7FE0
3F00
ENDCHAR
STARTCHAR Edotaccent
ENCODING 278
SWIDTH 459 0
DWIDTH 17 0
BBX 18 36 0 -1
BITMAP
000700
000F80
000F80
000F80
000F80
000700
000000
000000
003E00
00FF80
01F380
03E1C0
03C1C0
07C1C0
078380
078780
078000
07C000
07C000
03E000
03F800
0FC000
1F8000
3F0000
3F0000
7E0000
7E0000
FE0000
FE0000
FE0080
FE0180
7E0300
7FFE00
3FFC00
1FF000
020000
ENDCHAR
STARTCHAR edotaccent
ENCODING 279
SWIDTH 384 0
DWIDTH 14 0
BBX 15 27 0 0
BITMAP
0070
00F8
00F8
00F8
00F8
0070
0000
0000
0000
03F0
0FF8
1FB8
3F38
3E38
7C38
7C78
FCF0
F9E0
FFC0
FF00
F800
F806
F80C
FC38
FFF0
7FE0
3F00
ENDCHAR
STARTCHAR Eogonek
ENCODING 280
SWIDTH 459 0
DWIDTH 17 0
BBX 18 34 0 -7
BITMAP
00FC00
03FF00
07E380
0F81C0
0F81C0
1F01C0
1F03C0
1F0780
0F8100
0F8000
07C000
03F000
03F800
0FC000
1F8000
3F0000
7E0000
7E0000
7E0000
FE0000
FE0080
7E0080
7F0180
7F8700
3FFE00
1FFC00
07F800
003000
006000
00E000
00E000
00E200
00FC00
007800
ENDCHAR
STARTCHAR eogonek
ENCODING 281
SWIDTH 384 0
DWIDTH 14 0
BBX 15 25 0 -7
BITMAP
03F0
0FF8
1FB8
3F38
3E38
7C38
7C78
FCF0
F9E0
FFC0
FF00
F800
F806
F80C
F838
FFF0
7FE0
3FC0
0300
0700
0600
0E00
0F20
07C0
0780
ENDCHAR
STARTCHAR Ecaron
ENCODING 282
SWIDTH 459 0
DWIDTH 17 0
BBX 21 37 0 -1
BITMAP
001008
001830
0018E0
000FC0
000F80
000E00
000400
000000
000000
003E00
00FF80
01F380
03E1C0
03C1C0
07C1C0
078380
078780
078000
07C000
07C000
03E000
03F800
0FC000
1F8000
3F0000
3F0000
7E0000
7E0000
FE0000
FE0000
FE0080
FE0180
7E0300
7FFE00
3FFC00
1FF000
020000
ENDCHAR
STARTCHAR ecaron
ENCODING 283
SWIDTH 384 0
DWIDTH 14 0
BBX 18 27 0 0
BITMAP
0101C0
018700
00DE00
00FC00
00F800
007000
004000
000000
000000
03F000
0FF800
1FB800
3F3800
3E3800
7C3800
7C7000
FC7000
F9E000
FF8000
FC0000
F80200
F80400
F80C00
FC3800
FFF000
7FC000
3F0000
ENDCHAR
STARTCHAR Gcircumflex
ENCODING 284
SWIDTH 578 0
DWIDTH 21 0
BBX 19 42 1 -7
BITMAP
000180
000380
000780
001FC0
0038C0
006040
008020
000000
007F00
01FFC0
07F1E0
0FC0E0
1F80E0
3F00E0
3F01E0
7E03E0
7C01C0
FC0000
FC0000
FC0000
F80020
F803C0
F803C0
F807C0
F807C0
FC0FC0
FC0F80
7E3F80
7FFF80
3FEF80
0F8F00
001F00
001F00
0F9F00
3F9E00
3FBE00
383E00
783C00
387C00
3CF800
1FF000
0FC000
ENDCHAR
STARTCHAR gcircumflex
ENCODING 285
SWIDTH 507 0
DWIDTH 18 0
BBX 20 36 0 -9
BITMAP
000400
000C00
003E00
007E00
00F600
01C300
030100
000000
000000
03EF80
0FFF80
1F9F80
3F1F80
3E1F00
7C1F00
7C1F00
FC1F00
F83E00
F83E00
F83E00
F83E00
F87E30
F87C20
F8FC60
FFFCC0
7F7F80
3EFF00
01F800
07F800
0EF800
18F800
39F000
31F000
3BE000
1FE000
0F8000
ENDCHAR
STARTCHAR Gbreve
ENCODING 286
SWIDTH 578 0
DWIDTH 21 0
BBX 22 41 1 -7
BITMAP
00701C
00701C
007878
003FF0
000FC0
000000
000000
007F00
01FFC0
07F1E0
0FC0E0
1F80E0
3F00E0
3F01E0
7E03E0
7C00C0
FC0000
FC0000
FC0000
F803E0
F803C0
F803C0
F807C0
F807C0
FC0FC0
FC0F80
7E3F80
7FFF80
3FEF80
0F8F00
001F00
001F00
0F9F00
3F9E00
3FBE00
383E00
783C00
387C00
3CF800
1FF000
0FC000
ENDCHAR
STARTCHAR gbreve
ENCODING 287
SWIDTH 507 0
DWIDTH 18 0
BBX 20 35 0 -9
BITMAP
0781E0
0381C0
03C3C0
03FF00
00FC00
000000
000000
000000
03EF80
0FFF80
1F9F80
3F1F80
3E1F00
7C1F00
7C1F00
FC1F00
F83E00
F83E00
F83E00
F83E00
F87E30
F87C20
F8FC60
FFFCC0
7F7F80
3EFF00
01F800
07F800
0EF800
18F800
39F000
31F000
3BE000
1FE000
0F8000
ENDCHAR
STARTCHAR Gdotaccent
ENCODING 288
SWIDTH 578 0
DWIDTH 21 0
BBX 19 42 1 -7
BITMAP
000F00
001F00
001F80
001F80
001F80
000F00
000000
000000
007F00
01FFC0
07F1E0
0FC0E0
1F80E0
3F00E0
3F01E0
7E03E0
7C00C0
FC0000
FC0000
FC0000
F803E0
F803C0
F803C0
F807C0
F807C0
FC0FC0
FC0F80
7E3F80
7FFF80
3FEF80
0F8F00
001F00
001F00
0F9F00
3F9E00
3FBE00
383E00
783C00
387C00
3CF800
1FF000
0FC000
ENDCHAR
STARTCHAR gdotaccent
ENCODING 289
SWIDTH 507 0
DWIDTH 18 0
BBX 20 36 0 -9
BITMAP
001C00
003E00
007E00
007E00
003E00
001C00
000000
000000
000000
03EF80
0FFF80
1F9F80
3F1F80
3E1F00
7C1F00
7C1F00
FC1F00
F83E00
F83E00
F83E00
F83E00
F87E30
F87C20
F8FC60
FFFCC0
7F7F80
3EFF00
01F800
07F800
0EF800
18F800
39F000
31F000
3BE000
1FE000
0F8000
ENDCHAR
STARTCHAR Gcommaaccent
ENCODING 290
SWIDTH 578 0
DWIDTH 21 0
BBX 19 36 0 -9
BITMAP
003F00
00FF80
01F9C0
03E1E0
07C1E0
0FC1E0
1F81E0
1F83C0
3F0080
3F0000
7E0000
7E0000
7E0000
7E0000
FC01E0
FC01E0
FC03E0
FC03E0
FC03C0
FC07C0
FC07C0
7E0FC0
7E0F80
7F1F80
3FFF80
1FEF80
0FCF00
000000
000000
00E000
01E000
00E000
00E000
00C000
018000
008000
ENDCHAR
STARTCHAR gcommaaccent
ENCODING 291
SWIDTH 507 0
DWIDTH 18 0
BBX 20 36 0 -9
BITMAP
000800
001800
003000
003800
007800
003800
001000
000000
000000
03EF80
0FFF80
1F9F80
3F1F80
3E1F00
7C1F00
7C1F00
FC1F00
F83E00
F83E00
F83E00
F83E00
F87E30
F87C20
F8FC60
FFFCC0
7F7F80
3EFF00
01F800
07F800
0EF800
18F800
39F000
31F000
3BE000
1FE000
0F8000
ENDCHAR
STARTCHAR Hcircumflex
ENCODING 292
SWIDTH 665 0
DWIDTH 24 0
BBX 25 36 0 0
BITMAP
00000800
00001800
00003800
0000F800
0001FC00
0003CC00
00070400
000C0200
00000000
003E0F80
01FC1F80
07FC1F00
0E7C1F00
1CFC1F00
38F81F00
78F83F00
70F83E00
F0F83E00
F1F83E00
71F03E00
71FFFE00
31FFFC00
03FFFC00
03E07C00
03E07C00
03E0FC00
03E0F800
07E0F800
07C0F800
07C1F800
07C1F000
07C1F000
0FC1F000
0F81F000
0F83F000
0F83E000
ENDCHAR
STARTCHAR hcircumflex
ENCODING 293
SWIDTH 505 0
DWIDTH 18 0
BBX 21 33 -1 0
BITMAP
001000
003000
00F000
01F000
03D800
071800
1C0C00
000000
01C000
07C000
0FC000
0F8000
0F8000
0F8000
0F8000
1FBE00
1F7F00
1FFF00
1F9F00
1F1F00
3F1F00
3E1F00
3E1F00
3E1F00
7E1F00
7C3E00
7C3E00
7C3E18
7C3E30
FC3E20
F83FE0
F83FC0
F80F00
ENDCHAR
STARTCHAR Hbar
ENCODING 294
SWIDTH 665 0
DWIDTH 24 0
BBX 27 27 0 0
BITMAP
003E0F80
01FC1F80
07FC1F80
0E7C1F00
1CFC1F00
38F81F00
78F83F00
73FFFFE0
F3FFFFC0
F1F83E00
71F03E00
71FFFE00
11FFFC00
01F07C00
03E07C00
03E0FC00
03E0FC00
03E0F800
07E0F800
07C0F800
07C1F800
07C1F000
07C1F000
0FC1F000
0F81F000
0F83F000
0F83E000
ENDCHAR
STARTCHAR hbar
ENCODING 295
SWIDTH 505 0
DWIDTH 18 0
BBX 21 25 -1 0
BITMAP
07C000
07C000
0FC000
3FF800
7FF800
0F8000
0F8000
1FBE00
1F7F00
1FFF00
1F9F00
1F1F00
3F1F00
3E1F00
3E1F00
3E1F00
7E1F00
7C3E00
7C3E00
7C3E18
7C3E30
FC3E20
F83FE0
F83FC0
F80F00
ENDCHAR
STARTCHAR Itilde
ENCODING 296
SWIDTH 375 0
DWIDTH 14 0
BBX 19 33 0 0
BITMAP
00F820
03FFE0
07FFC0
081F00
000000
000000
007C00
01FC00
07FC00
0EFC00
3CF800
38F800
70F800
70F800
F1F800
F1F000
F1F000
71F000
33F000
03E000
03E000
03E000
03E000
07E000
07C000
07C000
07C000
07C000
0FC000
0F8000
0F8000
0F8000
1F8000
ENDCHAR
STARTCHAR itilde
ENCODING 297
SWIDTH 267 0
DWIDTH 10 0
BBX 11 25 0 0
BITMAP
0800
3E20
7FC0
7F80
8200
0000
0000
3F00
3E00
3E00
3E00
7E00
7C00
7C00
7C00
7C00
FC00
F800
F820
F860
F8C0
FDC0
FF80
FF00
7C00
ENDCHAR
STARTCHAR Imacron
ENCODING 298
SWIDTH 375 0
DWIDTH 14 0
BBX 18 32 0 0
BITMAP
03FFC0
03FF80
000000
000000
000000
007C00
01FC00
07FC00
0EFC00
3CF800
38F800
70F800
70F800
F1F800
F1F000
F1F000
71F000
33F000
03E000
03E000
03E000
03E000
07E000
07C000
07C000
07C000
07C000
0FC000
0F8000
0F8000
0F8000
1F8000
ENDCHAR
STARTCHAR imacron
ENCODING 299
SWIDTH 267 0
DWIDTH 10 0
BBX 11 24 0 0
BITMAP
7FE0
7FC0
0000
0000
0000
0000
3F00
3E00
3E00
3E00
7E00
7C00
7C00
7C00
7C00
FC00
F800
F820
F860
F8C0
FDC0
FF80
FF00
7C00
ENDCHAR
STARTCHAR Ibreve
ENCODING 300
SWIDTH 375 0
DWIDTH 14 0
BBX 19 34 0 0
BITMAP
0380E0
03C0E0
01C1C0
01FF80
007E00
000000
000000
007C00
01FC00
07FC00
0EFC00
3CF800
38F800
70F800
70F800
F1F800
F1F000
F1F000
71F000
33F000
03E000
03E000
03E000
03E000
07E000
07C000
07C000
07C000
07C000
0FC000
0F8000
0F8000
0F8000
1F8000
ENDCHAR
STARTCHAR ibreve
ENCODING 301
SWIDTH 267 0
DWIDTH 10 0
BBX 12 26 0 0
BITMAP
7070
7060
38E0
3FC0
1F00
0000
0000
0000
3F00
3E00
3E00
3E00
7E00
7C00
7C00
7C00
7C00
FC00
F800
F820
F860
F8C0
FDC0
FF80
FF00
7C00
ENDCHAR
STARTCHAR Iogonek
ENCODING 302
SWIDTH 375 0
DWIDTH 14 0
BBX 14 43 0 -7
BITMAP
03C0
01C0
01C0
01C0
00E0
00E0
00E0
0000
0000
007C
01FC
07FC
0EFC
3CF8
38F8
70F8
70F8
F1F8
F1F0
F1F0
71F0
33F0
03E0
03E0
03E0
03E0
07E0
07C0
07C0
07C0
07C0
0FC0
0F80
0F80
0F80
1F80
0C00
1800
3800
3800
3C40
3FC0
1F00
ENDCHAR
STARTCHAR iogonek
ENCODING 303
SWIDTH 267 0
DWIDTH 10 0
BBX 13 32 -2 -7
BITMAP
03C0
03C0
07E0
07E0
03E0
03C0
0000
0FC0
0F80
0F80
0F80
1F80
1F00
1F00
1F00
1F00
3F00
3E00
3E08
3E18
3E30
3F70
3FE0
3FC0
1F00
3000
7000
6000
F000
F180
7F00
3E00
ENDCHAR
STARTCHAR Idotaccent
ENCODING 304
SWIDTH 375 0
DWIDTH 14 0
BBX 16 35 0 0
BITMAP
001C
003E
003F
003F
003E
001C
0000
0000
007C
01FC
07FC
0EFC
3CF8
38F8
70F8
70F8
F1F8
F1F0
F1F0
71F0
33F0
03E0
03E0
03E0
03E0
07E0
07C0
07C0
07C0
07C0
0FC0
0F80
0F80
0F80
1F80
ENDCHAR
STARTCHAR dotlessi
ENCODING 305
SWIDTH 267 0
DWIDTH 10 0
BBX 11 18 0 0
BITMAP
3F00
3E00
3E00
3E00
7E00
7C00
7C00
7C00
7C00
FC00
F800
F820
F860
F8C0
FDC0
FF80
FF00
7C00
ENDCHAR
STARTCHAR IJ
ENCODING 306
SWIDTH 663 0
DWIDTH 24 0
BBX 24 34 0 -7
BITMAP
007C03
01FC1F
07FC1F
0EFC3F
3CF83E
38F83E
70F83E
70F87E
F1F87C
F1F07C
F1F07C
71F07C
33F0FC
03E0F8
03E0F8
03E0F8
03E1F8
07E1F8
07C1F0
07C1F0
07C3F0
07C3F0
0FC3E0
0F83E0
0F83E0
0FE7E0
1FE7E0
0FE7C0
0F07C0
0E0F80
0E0F80
0F1F00
07FE00
03F800
ENDCHAR
STARTCHAR ij
ENCODING 307
SWIDTH 507 0
DWIDTH 18 0
BBX 20 34 0 -9
BITMAP
0F0380
0F07C0
1F87C0
1F8FC0
0F87C0
0F0380
000000
3F0F80
3E0F80
3E0F80
3E1F80
7E1F00
7C1F00
7C1F00
7C3F00
7C3E00
FC3E00
F83E00
F83E30
F87E20
F87C60
FD7C40
FE7CC0
FE7F80
7CFE00
01F800
07F800
0CF800
19F800
31F000
31F000
3FE000
1FE000
0F8000
ENDCHAR
STARTCHAR Jcircumflex
ENCODING 308
SWIDTH 536 0
DWIDTH 19 0
BBX 22 43 1 -7
BITMAP
000010
000030
000070
0000F8
0001F8
000398
00060C
001804
000000
0001F0
000FF0
003FE0
007BE0
00E3E0
01C7E0
03C7C0
03C7C0
0387C0
0387C0
038FC0
038F80
01CF80
000F80
001F80
001F80
001F00
001F00
001F00
003F00
003E00
003E00
003E00
007E00
007E00
7E7C00
FF7C00
FEFC00
E0F800
E0F800
E1F000
F1F000
7FC000
3F8000
ENDCHAR
STARTCHAR jcircumflex
ENCODING 309
SWIDTH 240 0
DWIDTH 9 0
BBX 17 36 -7 -9
BITMAP
000200
000700
001F00
003F00
007B00
00E180
018080
000000
000000
007E00
007C00
007C00
007C00
007C00
00FC00
00F800
00F800
00F800
01F800
01F800
01F000
01F180
01F180
03F100
03E200
03E600
03F800
07E000
3FE000
7FC000
E7C000
C7C000
CF8000
CF8000
FF0000
7C0000
ENDCHAR
STARTCHAR Kcommaaccent
ENCODING 310
SWIDTH 601 0
DWIDTH 22 0
BBX 24 36 0 -9
BITMAP
007C0F
01FC1E
07FC3C
0EFC38
1CF870
38F8E0
70F9C0
70F9C0
F1FB80
F1F700
F1F600
71FC00
73FFC0
03FFE0
03E3E0
03E1F0
03E1F0
07E1E0
07C3E0
07C3E0
07C3E0
07C3C0
0FC7C0
0F87C0
0F87C0
0F87C0
1F87E0
000100
000000
007000
007800
007800
003800
003000
006000
004000
ENDCHAR
STARTCHAR kcommaaccent
ENCODING 311
SWIDTH 518 0
DWIDTH 19 0
BBX 21 34 -1 -9
BITMAP
03C000
07C000
0FC000
0F8000
0F8000
0F8000
0F8000
1F83C0
1F0700
1F1C00
1F3800
1F7000
3FFC00
3FFE00
3FFF00
3F3F00
7E1F00
7C1F00
7C3F00
7C3E18
7C3E10
FC3E30
F83FE0
F81FC0
F80F80
000000
000000
038000
03C000
03C000
018000
018000
030000
020000
ENDCHAR
STARTCHAR kgreenlandic
ENCODING 312
SWIDTH 518 0
DWIDTH 19 0
BBX 21 18 -1 0
BITMAP
1F83C0
1F0700
1F1C00
1F3800
3F7000
3FFC00
3FFE00
3FFF00
3F3F00
7E1F00
7C1F00
7C3F00
7C3E18
7C3E10
FC3E30
F83FE0
F81FC0
F80F80
ENDCHAR
STARTCHAR Lacute
ENCODING 313
SWIDTH 379 0
DWIDTH 14 0
BBX 24 44 0 -9
BITMAP
0003C0
000780
000700
000F00
000E00
001C00
001C00
000000
007C00
01FC00
07FC00
0EFC00
3CF800
38F800
70F800
70F800
F1F800
F1F000
F1F000
71F000
33F000
03E000
03E000
03E000
03E000
07E000
07C000
07C000
07C000
07C000
0F8000
0F8000
0F8000
0F8000
1FC000
1FF000
00FC00
003F00
001FC1
000FFF
0007FE
0001FE
0000FE
00003C
ENDCHAR
STARTCHAR lacute
ENCODING 314
SWIDTH 267 0
DWIDTH 10 0
BBX 13 34 0 0
BITMAP
0078
0070
00F0
00E0
01C0
01C0
0380
0300
0000
0080
0F80
0F80
1F80
1F00
1F00
1F00
3F00
3E00
3E00
3E00
3E00
7E00
7C00
7C00
7C00
FC00
F800
F820
F860
F8C0
FFC0
FF80
FF00
7C00
ENDCHAR
STARTCHAR Lcommaaccent
ENCODING 315
SWIDTH 379 0
DWIDTH 14 0
BBX 24 36 0 -9
BITMAP
007C00
01FC00
07FC00
0EFC00
3CF800
38F800
70F800
70F800
F1F800
F1F000
F1F000
71F000
33F000
03E000
03E000
03E000
03E000
07E000
07C000
07C000
07C000
07C000
0F8000
0F8000
0F8000
0F8000
1FC000
1FF000
00FC00
0C3F00
1E1FC1
1E0FFF
0E07FE
0C01FE
0800FE
10003C
ENDCHAR
STARTCHAR lcommaaccent
ENCODING 316
SWIDTH 267 0
DWIDTH 10 0
BBX 11 34 0 -9
BITMAP
0380
0F80
1F80
1F00
1F00
1F00
1F00
3F00
3E00
3E00
3E00
3E00
7C00
7C00
7C00
7C00
FC00
F800
F820
F860
F8C0
FFC0
FF80
FF00
7C00
0000
0000
6000
F000
F000
7000
6000
C000
8000
ENDCHAR
STARTCHAR Lcaron
ENCODING 317
SWIDTH 379 0
DWIDTH 14 0
BBX 24 44 0 -9
BITMAP
003038
0018E0
001BC0
001F80
000F00
000C00
000800
000000
007C00
01FC00
07FC00
0EFC00
3CF800
38F800
70F800
70F800
F1F800
F1F000
F1F000
71F000
33F000
03E000
03E000
03E000
03E000
07E000
07C000
07C000
07C000
07C000
0F8000
0F8000
0F8000
0F8000
1FC000
1FF000
00FC00
003F00
001FC1
000FFF
0007FE
0001FE
0000FE
00003C
ENDCHAR
STARTCHAR lcaron
ENCODING 318
SWIDTH 267 0
DWIDTH 10 0
BBX 15 27 0 0
BITMAP
001C
003C
00BE
0F9C
0F8C
1F98
1F30
1F10
1F00
3F00
3E00
3E00
3E00
3E00
7E00
7C00
7C00
7C00
FC00
F800
F820
F860
F8C0
FDC0
FF80
FF00
7C00
ENDCHAR
STARTCHAR Ldot
ENCODING 319
SWIDTH 605 0
DWIDTH 22 0
BBX 24 36 0 -9
BITMAP
007C00
01FC00
07FC00
0EFC00
1CF800
38F800
70F800
70F800
F1F800
F1F000
F1F000
71F000
73F000
03E000
03E000
03E0E0
03E1F0
07E3F0
07C3F0
07C1F0
07C0E0
07C000
0FC000
0F8000
0F8000
0F8000
1FC000
1FF000
00FC00
003F00
001FC1
000FFF
0007FE
0001FE
0000FE
00003C
ENDCHAR
STARTCHAR ldot
ENCODING 320
SWIDTH 353 0
DWIDTH 13 0
BBX 12 26 0 0
BITMAP
0080
0F80
0F80
1F80
1F00
1F00
1F00
3F00
3E00
3E00
3E00
3E70
7EF0
7CF0
7CF0
7C70
7C00
FC00
F800
F800
F800
F900
FE00
FE00
FE00
3800
ENDCHAR
STARTCHAR Lslash
ENCODING 321
SWIDTH 392 0
DWIDTH 14 0
BBX 24 36 0 -9
BITMAP
007C00
01FC00
07FC00
0EFC00
3CF800
38F800
70F800
70F880
F1FB00
F1FF00
F1FC00
71F800
33F000
03E000
07E000
0FE000
1BE000
07E000
07C000
07C000
07C000
07C000
0FC000
0F8000
0F8000
0F8000
1FC000
1FF000
00FC00
003F00
001FC1
000FFF
0007FE
0001FE
0000FE
00003C
ENDCHAR
STARTCHAR lslash
ENCODING 322
SWIDTH 286 0
DWIDTH 10 0
BBX 13 25 -1 0
BITMAP
01C0
07C0
0FC0
0F80
0F80
0F80
0F88
1FB8
1FF0
1FC0
1F00
1F00
3F00
7E00
FE00
BE00
7E00
7C00
7C10
7C30
7C60
7FE0
7FC0
7F80
3E00
ENDCHAR
STARTCHAR Nacute
ENCODING 323
SWIDTH 702 0
DWIDTH 25 0
BBX 26 36 0 0
BITMAP
00000780
00000700
00000F00
00000E00
00001C00
00001C00
00003800
00003800
00000000
00FC03C0
07FC03C0
0FFC0380
1EFE0380
3CFE0780
78FE0780
70FE0700
F0FF0700
F1FF0700
F1FF0F00
F1FF0F00
71DF0E00
71CF8E00
0BCF8E00
03CF9E00
038F9C00
0387DC00
0787DC00
0787DC00
0707FC00
0707F800
0703F800
0F03F800
0F03F800
0E03F800
0E01F000
1E01F000
ENDCHAR
STARTCHAR nacute
ENCODING 324
SWIDTH 505 0
DWIDTH 18 0
BBX 21 27 -1 0
BITMAP
0003C0
000780
000700
000E00
000E00
001C00
003800
000000
000000
1FBE00
1F7F00
1FFF00
1F9F00
3F1F00
3F1F00
3E1F00
3E1F00
3E1F00
7E1F00
7C3E00
7C3E00
7C3E18
7C3E30
FC3E20
F83FE0
F83FC0
F80F00
ENDCHAR
STARTCHAR Ncommaaccent
ENCODING 325
SWIDTH 668 0
DWIDTH 24 0
BBX 26 36 0 -9
BITMAP
00FC03C0
07FC03C0
0FFC0380
1EFE0380
3CFE0780
78FE0780
70FE0700
F0FF0700
F1FF0700
F1FF0F00
F1FF0F00
71DF0E00
71CF8E00
0BCF8E00
03CF9E00
038F9C00
0387DC00
0787DC00
0787DC00
0707FC00
0707F800
0703F800
0F03F800
0F03F800
0E03F800
0E01F000
1E01F000
00000000
00000000
00700000
00780000
00780000
00300000
00300000
00600000
00400000
ENDCHAR
STARTCHAR ncommaaccent
ENCODING 326
SWIDTH 505 0
DWIDTH 18 0
BBX 21 27 -1 -9
BITMAP
1FBE00
1F7F00
1FFF00
1F9F00
3F1F00
3F1F00
3E1F00
3E1F00
3E1F00
7E1F00
7C3E00
7C3E00
7C3E18
7C3E30
FC3E20
F83FE0
F83FC0
F80F00
000000
000000
070000
078000
078000
030000
030000
060000
040000
ENDCHAR
STARTCHAR Ncaron
ENCODING 327
SWIDTH 668 0
DWIDTH 24 0
BBX 26 36 0 0
BITMAP
00008040
0000C180
0000E700
00007E00
00007C00
00007800
00003000
00002000
00000000
00FC03C0
07FC03C0
0FFC0380
1EFE0380
3CFE0780
78FE0780
70FE0700
F0FF0700
F1FF0700
F1FF0F00
F1FF0F00
71DF0E00
71CF8E00
0BCF8E00
03CF9E00
038F9C00
0387DC00
0787DC00
0787DC00
0707FC00
0707F800
0703F800
0F03F800
0F03F800
0E03F800
0E01F000
1E01F000
ENDCHAR
STARTCHAR ncaron
ENCODING 328
SWIDTH 505 0
DWIDTH 18 0
BBX 21 27 -1 0
BITMAP
0181C0
00C700
00DE00
007C00
007800
007000
006000
000000
000000
1FBE00
1F7F00
1FFF00
1F9F00
3F1F00
3F1F00
3E1F00
3E1F00
3E1F00
7E1F00
7C3E00
7C3E00
7C3E18
7C3E30
FC3E20
F83FE0
F83FC0
F80F00
ENDCHAR
STARTCHAR napostrophe
ENCODING 329
SWIDTH 505 0
DWIDTH 18 0
BBX 21 27 -1 0
BITMAP
1C0000
3E0000
3E0000
1E0000
0C0000
180000
380000
000000
000000
1FBE00
1F7F00
1FFF00
1F9F00
3F1F00
3F1F00
3E1F00
3E1F00
3E1F00
7E1F00
7C3E00
7C3E00
7C3E18
7C3E30
FC3E20
F83FE0
F83FC0
F80F00
ENDCHAR
STARTCHAR Eng
ENCODING 330
SWIDTH 723 0
DWIDTH 26 0
BBX 26 34 2 -7
BITMAP
01FC03C0
07FC0380
1FFC0380
3EFC0780
38FE0780
78FE0780
F0FE0700
F1FE0700
E1FF0F00
E1DF0F00
E1DF0E00
F3DF0E00
73DF0E00
038F9E00
038F9C00
038F9C00
078F9C00
0787BC00
0707FC00
0707F800
0F07F800
0F03F800
0E03F800
0E03F000
1E01F000
1E01F000
1C01F000
00E1E000
01C1E000
01C3C000
01C3C000
01C78000
00FF0000
00780000
ENDCHAR
STARTCHAR eng
ENCODING 331
SWIDTH 505 0
DWIDTH 18 0
BBX 16 27 -1 -9
BITMAP
1F3E
1F7F
1FFF
1F9F
3F1F
3E1F
3E1F
3E1F
3E1F
7E1E
7C3E
7C3E
7C3E
7C3E
FC7C
F87C
F87C
F87C
01FC
07F8
0CF8
18F8
10F8
11F0
13F0
1FE0
0F80
ENDCHAR
STARTCHAR Omacron
ENCODING 332
SWIDTH 665 0
DWIDTH 24 0
BBX 23 33 1 0
BITMAP
007FF8
007FF0
000000
000000
000000
000000
003FC0
01FFF0
07C1F8
1F0278
3C7C7C
78F83C
71F03C
F1F03E
E3E03E
E7E03E
E7C03E
E7C03C
6FC07C
0F807C
0F807C
1F807C
1F80F8
1F00F8
1F00F8
1F01F0
1F01F0
1F03E0
1F87C0
1F8F80
0FFF00
07FE00
03F800
ENDCHAR
STARTCHAR omacron
ENCODING 333
SWIDTH 433 0
DWIDTH 16 0
BBX 21 24 -1 0
BITMAP
07FF80
07FF00
080000
000000
000000
000000
01F000
07FC00
0FDC00
1F0E00
1F1E18
3E1E70
3E1FC0
7C1E00
7C1E00
7C1C00
FC1C00
FC1C00
FC3800
FC3800
7C7000
7FE000
3FC000
1F8000
ENDCHAR
STARTCHAR Obreve
ENCODING 334
SWIDTH 665 0
DWIDTH 24 0
BBX 23 34 1 0
BITMAP
00380E
00381E
003C3C
001FF8
0007C0
000000
000000
003FC0
01FFF0
07C1F8
1F0278
3C7C7C
78F83C
71F03C
F1F03E
E3E03E
E7E03E
E7C03E
E7C03C
6FC07C
0F807C
0F807C
1F807C
1F80F8
1F00F8
1F00F8
1F01F0
1F01F0
1F03E0
1F87C0
1F8F80
0FFF00
07FE00
03F800
ENDCHAR
STARTCHAR obreve
ENCODING 335
SWIDTH 433 0
DWIDTH 16 0
BBX 21 26 -1 0
BITMAP
0701C0
070380
078780
03FF00
01FC00
000000
000000
000000
01F000
07FC00
0FDC00
1F0E00
1F1E18
3E1E70
3E1FC0
7C1E00
7C1E00
7C1C00
FC1C00
FC1C00
FC3800
FC3800
7C7000
7FE000
3FC000
1F8000
ENDCHAR
STARTCHAR Ohungarumlaut
ENCODING 336
SWIDTH 665 0
DWIDTH 24 0
BBX 25 36 1 0
BITMAP
0001E780
0001C700
0003CE00
00038E00
00031C00
00061800
000E3800
00000000
00000000
003FC000
01FFF000
07C1F800
1F027800
3C7C7C00
78F83C00
71F03C00
F1F03E00
E3E03E00
E7E03E00
E7C03E00
E7C03C00
6FC07C00
0F807C00
0F807C00
1F807C00
1F80F800
1F00F800
1F00F800
1F01F000
1F01F000
1F03E000
1F87C000
1F8F8000
0FFF0000
07FE0000
03F80000
ENDCHAR
STARTCHAR ohungarumlaut
ENCODING 337
SWIDTH 433 0
DWIDTH 16 0
BBX 21 27 -1 0
BITMAP
0079E0
0071C0
00E380
00E300
01C700
018600
030C00
000000
000000
01F000
07FC00
0FDC00
1F0E00
1F1E18
3E1E70
3E1FC0
7C1E00
7C1E00
7C1C00
FC1C00
FC1C00
FC3800
FC3800
7C7000
7FE000
3FC000
1F8000
ENDCHAR
STARTCHAR OE
ENCODING 338
SWIDTH 846 0
DWIDTH 30 0
BBX 32 27 1 0
BITMAP
003FFFFF
01FFFFFE
07C1FFFE
1F1E78FC
3C787C00
78F03C00
71F03C00
F3E03E00
E3E03E00
E7E03E00
E7C03E00
EFC03C00
6FC07FE0
0F807FE0
0F807FE0
1F807C00
1F80F800
1F00F800
1F00F800
1F01F000
1F01F000
1F03E000
1F03C000
1F87FFE0
0F9FFFC0
07FFFFC0
03FFFFC0
ENDCHAR
STARTCHAR oe
ENCODING 339
SWIDTH 663 0
DWIDTH 24 0
BBX 26 18 0 0
BITMAP
03E0FC00
0FF1FE00
1F3BE600
3E1FC700
7C3FC700
7C3F8600
7C7F8600
F87F0C00
F81F1800
F81FF000
F83F8000
F83E00C0
F83E0180
F87E0300
F8FF0600
FFFFFC00
7FCFF800
3F07E000
ENDCHAR
STARTCHAR Racute
ENCODING 340
SWIDTH 601 0
DWIDTH 22 0
BBX 21 37 0 -1
BITMAP
000070
0000F0
0000E0
0001C0
0001C0
000380
000700
000000
000000
007F80
01FFE0
07C1F0
0F00F0
1C3C78
38F878
78F878
70F878
F1F870
F1F0F0
F1F1E0
71F3C0
71FFC0
03FFE0
03E3E0
03E1F0
03E1F0
07E1E0
07C3E0
07C3E0
07C3E0
07C3C0
0FC7C0
0F87C0
0F87C0
0F87C0
1F87E0
000100
ENDCHAR
STARTCHAR racute
ENCODING 341
SWIDTH 376 0
DWIDTH 14 0
BBX 15 27 -1 0
BITMAP
001E
001C
003C
0038
0078
0070
00E0
0000
0000
1FBC
1F7E
1FFE
1F1E
3F1C
3E00
3E00
3E00
3E00
7E00
7C00
7C00
7C00
7C00
FC00
F800
F800
F800
ENDCHAR
STARTCHAR Rcommaaccent
ENCODING 342
SWIDTH 601 0
DWIDTH 22 0
BBX 21 36 0 -9
BITMAP
007F80
01FFE0
07C1F0
0F00F0
1C3C78
38F878
78F878
70F878
F1F870
F1F0F0
F1F1E0
71F3C0
71FFC0
03FFE0
03E3E0
03E1F0
03E1F0
07E1E0
07C3E0
07C3E0
07C3E0
07C3C0
0FC7C0
0F87C0
0F87C0
0F87C0
1F87E0
000100
000000
007000
00F000
007000
007000
006000
00C000
004000
ENDCHAR
STARTCHAR rcommaaccent
ENCODING 343
SWIDTH 376 0
DWIDTH 14 0
BBX 15 27 -1 -9
BITMAP
1FBC
1F7E
1FFE
1F1E
3F1C
3E00
3E00
3E00
3E00
7E00
7C00
7C00
7C00
7C00
FC00
F800
F800
F800
0000
0000
1C00
1E00
1C00
0C00
0C00
1800
1000
ENDCHAR
STARTCHAR Rcaron
ENCODING 344
SWIDTH 601 0
DWIDTH 22 0
BBX 23 37 0 -1
BITMAP
000C06
00041C
000678
0007E0
0003C0
000380
000300
000000
000000
007F80
01FFE0
07C1F0
0F00F0
1C3C78
38F878
78F878
70F878
F1F870
F1F0F0
F1F1E0
71F3C0
71FFC0
03FFE0
03E3E0
03E1F0
03E1F0
07E1E0
07C3E0
07C3E0
07C3E0
07C3C0
0FC7C0
0F87C0
0F87C0
0F87C0
1F87E0
000100
ENDCHAR
STARTCHAR rcaron
ENCODING 345
SWIDTH 376 0
DWIDTH 14 0
BBX 16 27 -1 0
BITMAP
0607
031C
0338
01F0
01E0
01C0
0080
0000
0000
1FBC
1F7E
1FFE
1F1E
3F1C
3E00
3E00
3E00
3E00
7E00
7C00
7C00
7C00
7C00
FC00
F800
F800
F800
ENDCHAR
STARTCHAR Sacute
ENCODING 346
SWIDTH 570 0
DWIDTH 21 0
BBX 19 37 1 -1
BITMAP
0001E0
0001C0
0003C0
000380
000700
000700
000E00
000000
000000
007F00
01FF80
03E3C0
07C1E0
07C1E0
07C1E0
0FC1E0
0FC3C0
07E180
07E000
03F000
03F800
01FC00
00FE00
007F00
003F00
1E1F80
3F1F80
7C0F80
F80FC0
F00F80
F00F80
F00F80
781F00
7C3E00
3FFC00
1FF800
010000
ENDCHAR
STARTCHAR sacute
ENCODING 347
SWIDTH 382 0
DWIDTH 14 0
BBX 16 27 -1 0
BITMAP
000F
001E
001C
0038
0038
0070
0070
0000
01F0
03F0
03F0
07F0
07F0
0FF0
0DF0
09F0
19F0
11F0
31F0
71F0
F1F1
F1F6
C1FC
C3F8
FFE0
7FC0
1F00
ENDCHAR
STARTCHAR Scircumflex
ENCODING 348
SWIDTH 570 0
DWIDTH 21 0
BBX 19 37 1 -1
BITMAP
000100
000380
000780
000F80
001FC0
0038C0
00E060
000000
000000
007F00
01FF80
03E3C0
07C1E0
07C1E0
07C1E0
0FC1E0
0FC3C0
07E180
07E000
03F000
03F800
01FC00
00FE00
007F00
003F00
1E1F80
3F1F80
7C0F80
F80FC0
F00F80
F00F80
F00F80
781F00
7C3E00
3FFC00
1FF800
010000
ENDCHAR
STARTCHAR scircumflex
ENCODING 349
SWIDTH 382 0
DWIDTH 14 0
BBX 16 27 -1 0
BITMAP
0030
0070
00F8
01F8
03D8
070C
1C04
0000
01F0
03F0
03F0
07F0
07F0
0FF0
0DF0
09F0
19F0
11F0
31F0
71F0
F1F1
F1F6
C1FC
C3F8
FFE0
7FC0
1F00
ENDCHAR
STARTCHAR Scedilla
ENCODING 350
SWIDTH 570 0
DWIDTH 21 0
BBX 19 35 1 -8
BITMAP
007F00
01FF80
03E3C0
07C1E0
07C1E0
07C1E0
0FC1E0
0FC3C0
07E180
07E000
03F000
03F800
01FC00
00FE00
007F00
003F00
1E3F80
3F1F80
7E0F80
780FC0
F80F80
F00F80
F00F80
781F00
783F00
3FFE00
1FF800
038000
010000
03F000
03F000
007000
087000
0FF000
03C000
ENDCHAR
STARTCHAR scedilla
ENCODING 351
SWIDTH 382 0
DWIDTH 14 0
BBX 16 27 -1 -8
BITMAP
00F0
03F0
03F0
07F0
07F0
0FF0
0DF0
09F0
19F0
11F0
31F0
71F0
F1F1
F1F6
C1FC
C3F8
FFF0
7FC0
3F00
0800
1A00
1F80
2780
0380
4780
7F00
3E00
ENDCHAR
STARTCHAR Scaron
ENCODING 352
SWIDTH 570 0
DWIDTH 21 0
BBX 22 37 1 -1
BITMAP
00180C
000838
000CF0
000FE0
000780
000700
000600
000000
000000
007F00
01FF80
03E3C0
07C1E0
07C1E0
07C1E0
0FC1E0
0FC3C0
07E180
07E000
03F000
03F800
01FC00
00FE00
007F00
003F00
1E1F80
3F1F80
7C0F80
F80FC0
F00F80
F00F80
F00F80
781F00
7C3E00
3FFC00
1FF800
010000
ENDCHAR
STARTCHAR scaron
ENCODING 353
SWIDTH 369 0
DWIDTH 13 0
BBX 17 27 -1 0
BITMAP
030380
030E00
01BC00
01F800
01E000
00C000
008000
000000
00F000
03F000
03F000
07F000
07F000
0FF000
0DF000
09F000
19F000
11F000
31F000
71F000
F1F100
F1F600
C1FC00
C3F800
FFE000
7FC000
1F0000
ENDCHAR
STARTCHAR uni0162
ENCODING 354
SWIDTH 481 0
DWIDTH 17 0
BBX 26 35 0 -8
BITMAP
00FF0040
07FFE0C0
0FFFFFC0
1E1FFF80
3C3FFF80
783F7F00
703F0000
F03E0000
F03E0000
F07E0000
F07E0000
F07C0000
707C0000
307C0000
00FC0000
00F80000
00F80000
00F80000
01F80000
01F80000
01F00000
01F00000
01F00000
03F00000
03E00000
03E00000
03E00000
00800000
01800000
01F00000
03F80000
00380000
04780000
07F00000
03E00000
ENDCHAR
STARTCHAR uni0163
ENCODING 355
SWIDTH 267 0
DWIDTH 10 0
BBX 12 32 -1 -8
BITMAP
0040
0FC0
0F80
0F80
0F80
0F80
3FE0
1F00
1F00
1F00
3F00
3E00
3E00
3E00
3E00
7E00
7C00
7C10
7C30
7C60
7FE0
7FC0
7F80
3E00
1000
3000
3E00
7F00
0700
8F00
FE00
7C00
ENDCHAR
STARTCHAR Tcaron
ENCODING 356
SWIDTH 481 0
DWIDTH 17 0
BBX 26 36 0 0
BITMAP
00180C00
00081800
000C7000
000FE000
0007C000
00078000
00070000
00020000
00000000
00FF0040
07FFE0C0
0FFFFFC0
1E1FFF80
3C3FFF80
783F7F00
703F0000
F03E0000
F03E0000
F07E0000
F07E0000
F07C0000
707C0000
307C0000
00FC0000
00F80000
00F80000
00F80000
01F80000
01F80000
01F00000
01F00000
01F00000
03F00000
03E00000
03E00000
03E00000
ENDCHAR
STARTCHAR tcaron
ENCODING 357
SWIDTH 267 0
DWIDTH 10 0
BBX 15 27 0 0
BITMAP
001C
003E
001E
001E
1F8C
1F0C
1F18
1F00
1F00
7FC0
3E00
3E00
3E00
7E00
7C00
7C00
7C00
7C00
FC00
F800
F820
F860
F8C0
FFC0
FF80
FF00
7C00
ENDCHAR
STARTCHAR Tbar
ENCODING 358
SWIDTH 481 0
DWIDTH 17 0
BBX 26 27 0 0
BITMAP
00FF0040
07FFE0C0
0FFFFFC0
1E1FFF80
3C3FFF80
783F1F00
703E0000
F03E0000
F03E0000
F07E0000
F07E0000
F07C0000
707C0000
107C0000
00FC0000
00F80000
1FFFE000
1FFFE000
00F80000
01F80000
01F00000
01F00000
01F00000
03F00000
03E00000
03E00000
03E00000
ENDCHAR
STARTCHAR tbar
ENCODING 359
SWIDTH 267 0
DWIDTH 10 0
BBX 12 24 -1 0
BITMAP
0040
0FC0
0F80
0F80
0F80
0F80
3FE0
1F00
1F00
1F00
7FE0
FFC0
3E00
3E00
3E00
3E00
7E00
7C00
7C30
7C20
7CE0
7FC0
7F80
3E00
ENDCHAR
STARTCHAR Utilde
ENCODING 360
SWIDTH 716 0
DWIDTH 26 0
BBX 27 33 0 0
BITMAP
0001F820
0003FFC0
0007FF80
00083E00
00000000
00000000
007E03E0
03FE03E0
07FE03E0
1E7C07C0
3C7C07C0
787C07C0
70FC07C0
F0F807C0
E0F80F80
E0F80F80
E1F00F80
E1F00F80
71F01F80
01F01F00
03E01F00
03E01F00
03E03F00
03E03E00
03C03E00
07C03E00
07C07C00
07C07C00
07E0F800
03E1F800
03FFF000
01FFC000
007F0000
ENDCHAR
STARTCHAR utilde
ENCODING 361
SWIDTH 505 0
DWIDTH 18 0
BBX 20 25 0 0
BITMAP
004000
07F840
0FFF80
1FFE00
001000
000000
000000
3F1F80
3E1F00
3E1F00
3E1F00
7E3F00
7C3E00
7C3E00
7C3E00
7C3E00
FC7E00
F87C00
F87C30
F8FC20
F8FC60
FFFFC0
FF7FC0
FE7F80
7C3E00
ENDCHAR
STARTCHAR Umacron
ENCODING 362
SWIDTH 716 0
DWIDTH 26 0
BBX 27 33 0 0
BITMAP
0003FF80
0007FF80
00000000
00000000
00000000
00000000
007E03E0
03FE03E0
07FE03E0
1E7C07C0
3C7C07C0
787C07C0
70FC07C0
F0F807C0
E0F80F80
E0F80F80
E1F00F80
E1F00F80
71F01F80
01F01F00
03E01F00
03E01F00
03E03F00
03E03E00
03C03E00
07C03E00
07C07C00
07C07C00
07E0F800
03E1F800
03FFF000
01FFC000
007F0000
ENDCHAR
STARTCHAR umacron
ENCODING 363
SWIDTH 505 0
DWIDTH 18 0
BBX 20 24 0 0
BITMAP
07FF00
0FFF00
000000
000000
000000
000000
3F1F80
3E1F00
3E1F00
3E1F00
7E3F00
7C3E00
7C3E00
7C3E00
7C3E00
FC7E00
F87C00
F87C30
F8FC20
F8FC60
FFFFC0
FF7FC0
FE7F80
7C3E00
ENDCHAR
STARTCHAR Ubreve
ENCODING 364
SWIDTH 716 0
DWIDTH 26 0
BBX 27 34 0 0
BITMAP
000781E0
000381C0
0003C380
0001FF00
0000FC00
00000000
00000000
007E03E0
03FE03E0
07FE03E0
1E7C07C0
3C7C07C0
787C07C0
70FC07C0
F0F807C0
E0F80F80
E0F80F80
E1F00F80
E1F00F80
71F01F80
01F01F00
03E01F00
03E01F00
03E03F00
03E03E00
03C03E00
07C03E00
07C07C00
07C07C00
07E0F800
03E1F800
03FFF000
01FFC000
007F0000
ENDCHAR
STARTCHAR ubreve
ENCODING 365
SWIDTH 505 0
DWIDTH 18 0
BBX 20 26 0 0
BITMAP
0E0380
0F0780
070F00
07FE00
01F800
000000
000000
000000
3F1F80
3E1F00
3E1F00
3E1F00
7E3F00
7C3E00
7C3E00
7C3E00
7C3E00
FC7E00
F87C00
F87C30
F8FC20
F8FC60
FFFFC0
FF7FC0
FE7F80
7C3E00
ENDCHAR
STARTCHAR Uring
ENCODING 366
SWIDTH 716 0
DWIDTH 26 0
BBX 27 34 0 0
BITMAP
00003800
00004C00
0000C400
0000CC00
00007800
00000000
00000000
007E03E0
03FE03E0
07FE03E0
1E7C07C0
3C7C07C0
787C07C0
70FC07C0
F0F807C0
E0F80F80
E0F80F80
E1F00F80
E1F00F80
71F01F80
01F01F00
03E01F00
03E01F00
03E03F00
03E03E00
03C03E00
07C03E00
07C07C00
07C07C00
07E0F800
03E1F800
03FFF000
01FFC000
007F0000
ENDCHAR
STARTCHAR uring
ENCODING 367
SWIDTH 505 0
DWIDTH 18 0
BBX 20 25 0 0
BITMAP
00F000
009800
018800
019800
00F000
000000
000000
3F1F80
3E1F00
3E1F00
3E1F00
7E3F00
7C3E00
7C3E00
7C3E00
7C3E00
FC7E00
F87C00
F87C30
F8FC20
F8FC60
FFFFC0
FF7FC0
FE7F80
7C3E00
ENDCHAR
STARTCHAR Uhungarumlaut
ENCODING 368
SWIDTH 716 0
DWIDTH 26 0
BBX 28 36 0 0
BITMAP
00003CF0
000038E0
000071C0
00007180
0000E380
0000C300
00018600
00000000
00000000
007E03E0
03FE03E0
07FE03E0
1E7C07C0
3C7C07C0
787C07C0
70FC07C0
F0F807C0
E0F80F80
E0F80F80
E1F00F80
E1F00F80
71F01F80
01F01F00
03E01F00
03E01F00
03E03F00
03E03E00
03C03E00
07C03E00
07C07C00
07C07C00
07E0F800
03E1F800
03FFF000
01FFC000
007F0000
ENDCHAR
STARTCHAR uhungarumlaut
ENCODING 369
SWIDTH 505 0
DWIDTH 18 0
BBX 20 27 0 0
BITMAP
00F3C0
00E380
01E700
01C700
038E00
030C00
071800
000000
000000
3F1F80
3E1F00
3E1F00
3E1F00
7E3F00
7C3E00
7C3E00
7C3E00
7C3E00
FC7E00
F87C00
F87C30
F8FC20
F8FC60
FFFFC0
FF7FC0
FE7F80
7C3E00
ENDCHAR
STARTCHAR Uogonek
ENCODING 370
SWIDTH 716 0
DWIDTH 26 0
BBX 27 43 0 -7
BITMAP
0001C000
0001E000
0001E000
0000E000
0000E000
0000E000
00006000
00000000
00000000
007E03E0
03FE03E0
07FE03E0
1E7C07C0
3C7C07C0
787C07C0
70FC07C0
F0F807C0
E0F80F80
E0F80F80
E1F00F80
E1F00F80
71F01F80
01F01F00
03E01F00
03E01F00
03E03F00
03E03E00
03C03E00
03C03E00
07C07C00
07C07C00
07E0F800
03E1F800
03FFF000
01FFE000
00FF8000
00180000
00300000
00700000
00700000
00718000
007F0000
003E0000
ENDCHAR
STARTCHAR uogonek
ENCODING 371
SWIDTH 505 0
DWIDTH 18 0
BBX 20 25 0 -7
BITMAP
3F1F80
3E1F00
3E1F00
3E1F00
7E3F00
7C3E00
7C3E00
7C3E00
7C3E00
FC7E00
F87C00
F87C30
F8FC20
F8FC60
FFFFC0
FF7FC0
FE7F80
7C3E00
001800
003000
007000
007000
007180
007F00
003E00
ENDCHAR
STARTCHAR Wcircumflex
ENCODING 372
SWIDTH 962 0
DWIDTH 35 0
BBX 37 36 0 0
BITMAP
0000001000
0000003000
0000007000
000000F800
000003F800
0000079800
00000E0800
0000180400
0000000000
007C03E038
01FC03E038
07FC07E030
0E7C07E070
3C7C07E070
387C0FE060
707C0FE0E0
707C0FE0C0
F07C1FE0C0
F07C1BE1C0
F07C1BE180
707C3BE180
307C33E380
007C33E300
007C63E300
007E63E600
007E63E600
007EC3E600
007EC3EC00
007EC3EC00
007F83EC00
007F83F800
007F03F800
007F03F000
007F03F000
007E03F000
007E03E000
ENDCHAR
STARTCHAR wcircumflex
ENCODING 373
SWIDTH 661 0
DWIDTH 24 0
BBX 23 27 0 0
BITMAP
000100
000380
000780
000F80
001F80
0038C0
0060C0
008000
000000
3F1F9C
3E1F1E
3E1F1E
3E1F1E
7E3F06
7C3E06
7C3E06
7C3E06
7C3E0C
FC7E0C
F87C1C
F87C18
F87C38
F8FC30
F9FC70
FFFFE0
FF7FC0
7C3F00
ENDCHAR
STARTCHAR Ycircumflex
ENCODING 374
SWIDTH 620 0
DWIDTH 22 0
BBX 25 36 0 0
BITMAP
00000800
00001800
00003800
00007C00
0000FC00
0001CC00
00070600
000C0200
00000000
007C0180
01FE0300
07FE0300
0E7E0700
3C7E0600
383F0E00
703F0C00
703F0C00
F03F1800
F01F9800
F01FB800
701FB000
300FB000
000FE000
000FE000
000FC000
000FC000
000FC000
000FC000
000F8000
001F8000
001F8000
001F8000
001F8000
001F0000
003F0000
003F0000
ENDCHAR
STARTCHAR ycircumflex
ENCODING 375
SWIDTH 505 0
DWIDTH 18 0
BBX 19 36 0 -9
BITMAP
001800
003800
007C00
00FC00
01EC00
038600
0E0200
000000
000000
3F1F80
3E1F00
3E1F00
3E1F00
7E3F00
7C3E00
7C3E00
7C3E00
7C7E00
FC7C00
F87C00
F87C60
F8FC60
F8FC40
FFF8C0
FFF980
FEFF00
7CFE00
03F800
0FF000
1DF000
31F000
33F000
33E000
3FE000
3FC000
1F0000
ENDCHAR
STARTCHAR Ydieresis
ENCODING 376
SWIDTH 620 0
DWIDTH 22 0
BBX 25 33 0 0
BITMAP
00038700
0003CF00
0003CF80
00038700
00000000
00000000
007C0180
01FE0300
07FE0300
0E7E0700
3C7E0600
383F0E00
703F0C00
703F0C00
F03F1800
F01F9800
F01FB800
701FB000
300FB000
000FE000
000FE000
000FC000
000FC000
000FC000
000FC000
000F8000
001F8000
001F8000
001F8000
001F8000
001F0000
003F0000
003F0000
ENDCHAR
STARTCHAR Zacute
ENCODING 377
SWIDTH 542 0
DWIDTH 20 0
BBX 20 36 0 0
BITMAP
0000F0
0000F0
0001E0
0001C0
0003C0
000380
000300
000700
000000
07FFF0
0FFFE0
1E07E0
1E0FC0
1E0FC0
0E1F80
001F80
003F00
003F00
007E00
007E00
00FC00
00FC00
01F800
01F800
03F000
03F000
07E000
07E000
0FC000
0FC000
1F81C0
1F83C0
3F03C0
3F03C0
7FFF80
FFFE00
ENDCHAR
STARTCHAR zacute
ENCODING 378
SWIDTH 428 0
DWIDTH 15 0
BBX 15 27 0 0
BITMAP
001E
001E
003C
0038
0078
0070
00E0
0000
0000
0FFE
1FFE
387C
3CF8
38F8
11F0
01F0
03E0
03E0
07C0
0FC0
0F80
1F00
1F1C
3E3C
7E1C
7FF8
FFF0
ENDCHAR
STARTCHAR Zdotaccent
ENCODING 379
SWIDTH 530 0
DWIDTH 19 0
BBX 20 33 0 0
BITMAP
000C00
001E00
001E00
001C00
000000
000000
07FFF0
0FFFE0
1E07E0
1E0FC0
1E0FC0
0E1F80
001F80
003F00
003F00
007E00
007E00
00FC00
00FC00
01F800
01F800
03F000
03F000
07E000
07E000
0FC000
0FC000
1F81C0
1F83C0
3F03C0
3F03C0
7FFF80
FFFE00
ENDCHAR
STARTCHAR zdotaccent
ENCODING 380
SWIDTH 428 0
DWIDTH 15 0
BBX 15 25 0 0
BITMAP
0070
00F0
00F0
0070
0000
0000
0000
0FFE
1FFE
387C
3CF8
38F8
11F0
01F0
03E0
03E0
07C0
0FC0
0F80
1F00
1F1C
3E3C
7E1C
7FF8
FFF0
ENDCHAR
STARTCHAR Zcaron
ENCODING 381
SWIDTH 542 0
DWIDTH 20 0
BBX 21 36 0 0
BITMAP
001008
001830
000CE0
000FC0
000F80
000F00
000600
000400
000000
07FFF0
0FFFE0
1E07E0
1E0FC0
1E0FC0
0E1F80
001F80
003F00
003F00
007E00
007E00
00FC00
00FC00
01F800
01F800
03F000
03F000
07E000
07E000
0FC000
0FC000
1F81C0
1F83C0
3F03C0
3F03C0
7FFF80
FFFE00
ENDCHAR
STARTCHAR zcaron
ENCODING 382
SWIDTH 428 0
DWIDTH 15 0
BBX 17 27 0 0
BITMAP
010180
018700
00DC00
00F800
00F000
00E000
004000
000000
000000
0FFE00
1FFE00
387C00
3CF800
38F800
11F000
01F000
03E000
03E000
07C000
0FC000
0F8000
1F0000
1F1C00
3E3C00
7E1C00
7FF800
FFF000
ENDCHAR
STARTCHAR longs
ENCODING 383
SWIDTH 267 0
DWIDTH 10 0
BBX 21 36 -7 -9
BITMAP
0003E0
000FF0
001FF8
001F98
003F18
003E00
003E00
003E00
003E00
01FE00
007C00
007C00
007C00
00FC00
00F800
00F800
00F800
00F800
01F800
01F000
01F000
01F000
01F000
03F000
03E000
03E000
03E000
1FE000
77E000
E7C000
C7C000
C7C000
CF8000
FF8000
FF0000
3C0000
ENDCHAR
STARTCHAR uni018F
ENCODING 399
SWIDTH 544 0
DWIDTH 20 0
BBX 18 27 1 0
BITMAP
03F800
0FFE00
1FFF00
1FFF80
3C1F80
180FC0
100FC0
000FC0
0007C0
0007C0
000FC0
000FC0
00FFC0
03FFC0
0FCFC0
1F0F80
3E1F80
7C1F80
781F00
F83F00
F03E00
F07C00
F07C00
F0F800
F9F000
7FC000
1F0000
ENDCHAR
STARTCHAR florin
ENCODING 402
SWIDTH 267 0
DWIDTH 10 0
BBX 25 36 -9 -9
BITMAP
00003E00
00007F00
0000F780
0001E380
0003E780
0003E700
0007C000
0007C000
000FC000
007FFC00
000F8000
001F8000
001F0000
001F0000
001F0000
003F0000
003E0000
003E0000
003E0000
007C0000
007C0000
007C0000
00FC0000
00F80000
00F80000
00F80000
01F00000
01F00000
01F00000
03E00000
73E00000
E3C00000
E7C00000
E7800000
FF000000
7C000000
ENDCHAR
STARTCHAR Ohorn
ENCODING 416
SWIDTH 665 0
DWIDTH 24 0
BBX 25 32 1 0
BITMAP
00000100
00000780
00000380
00000380
00000380
003F8700
01FFE700
07C1FE00
1F027C00
3C7C7C00
78F83C00
71F03C00
F1F03C00
E3E03E00
E7E03E00
E7C03E00
E7C03E00
6FC07C00
0F807C00
0F807C00
1F807C00
1F80F800
1F00F800
1F00F800
1F01F000
1F01F000
1F03E000
1F87C000
1F8F8000
0FFF0000
07FE0000
03F80000
ENDCHAR
STARTCHAR ohorn
ENCODING 417
SWIDTH 439 0
DWIDTH 16 0
BBX 18 23 0 0
BITMAP
000180
0003C0
0001C0
000380
000380
01F300
07FF00
1FBE00
3F1C00
3E1C00
7C1C00
7C1C00
FC1C00
F81C00
F83C00
F83800
F83800
F87800
F87000
F8E000
FFE000
7F8000
3E0000
ENDCHAR
STARTCHAR Uhorn
ENCODING 431
SWIDTH 716 0
DWIDTH 26 0
BBX 31 33 0 0
BITMAP
0000000E
0000000E
0000000E
0000000E
0000000E
0000001C
007E03F8
03FE03F0
07FE03E0
1E7C07E0
3C7C07C0
787C07C0
70FC07C0
F0F807C0
E0F80F80
E0F80F80
E1F00F80
E1F00F80
71F01F80
01F01F00
03E01F00
03E01F00
03E03F00
03E03E00
03C03E00
07C03E00
07C07C00
07C07C00
07E0F800
03E1F800
03FFF000
01FFC000
007F0000
ENDCHAR
STARTCHAR uhorn
ENCODING 432
SWIDTH 505 0
DWIDTH 18 0
BBX 20 24 0 0
BITMAP
000060
000070
000070
0000E0
0000E0
0000C0
3F1F80
3E1F00
3E1F00
3E1F00
7E3F00
7C3E00
7C3E00
7C3E00
7C3E00
FC7C00
F87C00
F87C30
F8FC20
F8FC60
FFFFC0
FF7FC0
FE7F80
7C3E00
ENDCHAR
STARTCHAR uni01B7
ENCODING 439
SWIDTH 555 0
DWIDTH 20 0
BBX 20 28 1 -1
BITMAP
07FFF0
1FFFE0
1C07C0
1C0F80
1E1F00
1C3F00
003E00
007C00
00F800
01F800
01F000
03F800
03FE00
00FF00
003F00
001F80
001F80
001F80
001F80
001F80
781F80
F01F00
E03F00
E03E00
F07C00
7FF800
3FF000
020000
ENDCHAR
STARTCHAR uni01CD
ENCODING 461
SWIDTH 668 0
DWIDTH 24 0
BBX 31 40 0 -4
BITMAP
00000806
0000041C
00000678
000007F0
000007C0
00000380
00000300
00000200
00000000
00000F80
00003F80
0000FF80
0001DF00
00039F00
00071F00
00073F00
000E3E00
001C3E00
003C3E00
00383E00
0FF87E00
3FFFFC00
78F1FC00
F1E07C00
F9E07C00
73C0FC00
03C0F800
07C0F800
0780F800
0781F800
0F81F000
0F01F000
0F01F000
1F01F000
1F03F000
1F03E000
1F000000
1E000000
0E000000
07000000
ENDCHAR
STARTCHAR uni01CE
ENCODING 462
SWIDTH 526 0
DWIDTH 19 0
BBX 20 27 0 0
BITMAP
00C0E0
006180
006700
003E00
003C00
003800
003000
000000
000000
03EF80
0FFF80
1F9F80
3F1F80
3E1F00
7C1F00
7C1F00
FC1F00
F83F00
F83E00
F83E00
F83E00
F87E10
F87E30
F8FE60
FFBFC0
7F3F80
3E1F00
ENDCHAR
STARTCHAR uni01CF
ENCODING 463
SWIDTH 375 0
DWIDTH 14 0
BBX 20 36 0 0
BITMAP
002030
002060
0031C0
003F80
001F00
001E00
001C00
000800
000000
007C00
01FC00
07FC00
0EFC00
3CF800
38F800
70F800
70F800
F1F800
F1F000
F1F000
71F000
33F000
03E000
03E000
03E000
03E000
07E000
07C000
07C000
07C000
07C000
0FC000
0F8000
0F8000
0F8000
1F8000
ENDCHAR
STARTCHAR uni01D0
ENCODING 464
SWIDTH 267 0
DWIDTH 10 0
BBX 13 27 0 0
BITMAP
1018
1870
0DC0
0F80
0F00
0E00
0400
0000
0000
3F00
3E00
3E00
3E00
7E00
7C00
7C00
7C00
7C00
FC00
F800
F820
F860
F8C0
FDC0
FF80
FF00
7C00
ENDCHAR
STARTCHAR uni01D1
ENCODING 465
SWIDTH 665 0
DWIDTH 24 0
BBX 24 36 1 0
BITMAP
000201
000306
00031C
0001F8
0001F0
0001C0
000080
000000
000000
003FC0
01FFF0
07C1F8
1F0278
3C7C7C
78F83C
71F03C
F1F03E
E3E03E
E7E03E
E7C03E
E7C03C
6FC07C
0F807C
0F807C
1F807C
1F80F8
1F00F8
1F00F8
1F01F0
1F01F0
1F03E0
1F87C0
1F8F80
0FFF00
07FE00
03F800
ENDCHAR
STARTCHAR uni01D2
ENCODING 466
SWIDTH 433 0
DWIDTH 16 0
BBX 21 27 -1 0
BITMAP
0181C0
00C300
00CE00
007C00
007800
007000
006000
000000
000000
01F000
07FC00
0FDC00
1F0E00
1F1E18
3E1E70
3E1FC0
7C1E00
7C1E00
7C1C00
FC1C00
FC1C00
FC3800
FC3800
7C7000
7FE000
3FC000
1F8000
ENDCHAR
STARTCHAR uni01D3
ENCODING 467
SWIDTH 716 0
DWIDTH 26 0
BBX 27 36 0 0
BITMAP
00004020
000061C0
00006780
00003F00
00003C00
00003800
00001000
00000000
00000000
007E03E0
03FE03E0
07FE03E0
1E7C07C0
3C7C07C0
787C07C0
70FC07C0
F0F807C0
E0F80F80
E0F80F80
E1F00F80
E1F00F80
71F01F80
01F01F00
03E01F00
03E01F00
03E03F00
03E03E00
03C03E00
07C03E00
07C07C00
07C07C00
07E0F800
03E1F800
03FFF000
01FFC000
007F0000
ENDCHAR
STARTCHAR uni01D4
ENCODING 468
SWIDTH 505 0
DWIDTH 18 0
BBX 20 27 0 0
BITMAP
0181C0
008700
00DE00
00FC00
007800
007000
004000
000000
000000
3F1F80
3E1F00
3E1F00
3E1F00
7E3F00
7C3E00
7C3E00
7C3E00
7C3E00
FC7E00
F87C00
F87C30
F8FC20
F8FC60
FFFFC0
FF7FC0
FE7F80
7C3E00
ENDCHAR
STARTCHAR uni01D5
ENCODING 469
SWIDTH 716 0
DWIDTH 26 0
BBX 27 36 0 0
BITMAP
0001FFC0
0003FFC0
00000000
00000000
00038380
0003C780
0003C7C0
00038380
00000000
007E03E0
03FE03E0
07FE03E0
1E7C07C0
3C7C07C0
787C07C0
70FC07C0
F0F807C0
E0F80F80
E0F80F80
E1F00F80
E1F00F80
71F01F80
01F01F00
03E01F00
03E01F00
03E03F00
03E03E00
03C03E00
07C03E00
07C07C00
07C07C00
07E0F800
03E1F800
03FFF000
01FFC000
007F0000
ENDCHAR
STARTCHAR uni01D6
ENCODING 470
SWIDTH 505 0
DWIDTH 18 0
BBX 20 30 0 0
BITMAP
03FF80
07FF80
000000
000000
000000
038E00
079F00
079F00
038E00
000000
000000
000000
3F1F80
3E1F00
3E1F00
3E1F00
7E3F00
7C3E00
7C3E00
7C3E00
7C3E00
FC7E00
F87C00
F87C30
F8FC20
F8FC60
FFFFC0
FF7FC0
FE7F80
7C3E00
ENDCHAR
STARTCHAR uni01D7
ENCODING 471
SWIDTH 716 0
DWIDTH 26 0
BBX 27 36 0 0
BITMAP
00000F00
00001E00
00061CE0
000F39E0
000F39E0
000670E0
00006000
00000000
00000000
007E03E0
03FE03E0
07FE03E0
1E7C07C0
3C7C07C0
787C07C0
70FC07C0
F0F807C0
E0F80F80
E0F80F80
E1F00F80
E1F00F80
71F01F80
01F01F00
03E01F00
03E01F00
03E03F00
03E03E00
03C03E00
07C03E00
07C07C00
07C07C00
07E0F800
03E1F800
03FFF000
01FFC000
007F0000
ENDCHAR
STARTCHAR uni01D8
ENCODING 472
SWIDTH 505 0
DWIDTH 18 0
BBX 20 34 0 0
BITMAP
000700
000F00
000E00
001E00
001C00
003800
003800
007000
000000
038E00
079F00
079F00
038E00
000000
000000
000000
3F1F80
3E1F00
3E1F00
3E1F00
7E3F00
7C3E00
7C3E00
7C3E00
7C3E00
FC7E00
F87C00
F87C30
F8FC20
F8FC60
FFFFC0
FF7FC0
FE7F80
7C3E00
ENDCHAR
STARTCHAR uni01D9
ENCODING 473
SWIDTH 716 0
DWIDTH 26 0
BBX 27 36 0 0
BITMAP
00008080
0000C300
00067EE0
000F79E0
000F31E0
000620E0
00000000
00000000
00000000
007E03E0
03FE03E0
07FE03E0
1E7C07C0
3C7C07C0
787C07C0
70FC07C0
F0F807C0
E0F80F80
E0F80F80
E1F00F80
E1F00F80
71F01F80
01F01F00
03E01F00
03E01F00
03E03F00
03E03E00
03C03E00
07C03E00
07C07C00
07C07C00
07E0F800
03E1F800
03FFF000
01FFC000
007F0000
ENDCHAR
STARTCHAR uni01DA
ENCODING 474
SWIDTH 505 0
DWIDTH 18 0
BBX 20 33 0 0
BITMAP
00C0E0
00C380
006F00
007E00
007C00
003800
002000
000000
038E00
079F00
079F00
038E00
000000
000000
000000
3F1F80
3E1F00
3E1F00
3E1F00
7E3F00
7C3E00
7C3E00
7C3E00
7C3E00
FC7E00
F87C00
F87C30
F8FC20
F8FC60
FFFFC0
FF7FC0
FE7F80
7C3E00
ENDCHAR
STARTCHAR uni01DB
ENCODING 475
SWIDTH 716 0
DWIDTH 26 0
BBX 27 36 0 0
BITMAP
00007800
00007800
000638E0
000F39E0
000F39E0
000618E0
00001C00
00000000
00000000
007E03E0
03FE03E0
07FE03E0
1E7C07C0
3C7C07C0
787C07C0
70FC07C0
F0F807C0
E0F80F80
E0F80F80
E1F00F80
E1F00F80
71F01F80
01F01F00
03E01F00
03E01F00
03E03F00
03E03E00
03C03E00
07C03E00
07C07C00
07C07C00
07E0F800
03E1F800
03FFF000
01FFC000
007F0000
ENDCHAR
STARTCHAR uni01DC
ENCODING 476
SWIDTH 505 0
DWIDTH 18 0
BBX 20 33 0 0
BITMAP
01E000
01E000
00E000
00E000
00E000
006000
007000
000000
038E00
079F00
079F00
038E00
000000
000000
000000
3F1F80
3E1F00
3E1F00
3E1F00
7E3F00
7C3E00
7C3E00
7C3E00
7C3E00
FC7E00
F87C00
F87C30
F8FC20
F8FC60
FFFFC0
FF7FC0
FE7F80
7C3E00
ENDCHAR
STARTCHAR uni01E4
ENCODING 484
SWIDTH 601 0
DWIDTH 22 0
BBX 20 34 1 -7
BITMAP
007F00
01FFC0
07F1E0
0FC0E0
1F80E0
3F00E0
3F01E0
7E03E0
7C0080
FC0000
FC0000
FC0000
F803E0
F803C0
F83FF0
F87FF0
F807C0
FC0F80
FC0F80
7E3F80
7FFF80
3FEF80
0F8F00
001F00
001F00
0F9F00
3F9E00
3FBE00
383E00
783C00
387C00
3CF800
1FF000
0FC000
ENDCHAR
STARTCHAR uni01E5
ENCODING 485
SWIDTH 507 0
DWIDTH 18 0
BBX 20 27 0 -9
BITMAP
03EF80
0FFF80
1F9F80
3F1F80
3E1F00
7C1F00
7C1F00
FC1F00
F83E00
F83E00
F83E00
F83E00
F87E30
F87C20
F8FC60
FFFCC0
7F7F80
3EFF00
01F800
07F800
0EF800
7FFE00
7FFE00
31F000
3BE000
1FE000
0F8000
ENDCHAR
STARTCHAR Gcaron
ENCODING 486
SWIDTH 578 0
DWIDTH 21 0
BBX 22 43 1 -7
BITMAP
000804
000C18
000C70
0007E0
0007C0
000780
000300
000200
000000
007F00
01FFC0
07F1E0
0FC0E0
1F80E0
3F00E0
3F01E0
7E03E0
7C00C0
FC0000
FC0000
FC0000
F803E0
F803C0
F803C0
F807C0
F807C0
FC0FC0
FC0F80
7E3F80
7FFF80
3FEF80
0F8F00
001F00
001F00
0F9F00
3F9E00
3FBE00
383E00
783C00
387C00
3CF800
1FF000
0FC000
ENDCHAR
STARTCHAR gcaron
ENCODING 487
SWIDTH 507 0
DWIDTH 18 0
BBX 20 36 0 -9
BITMAP
00C0E0
006180
006700
003E00
003C00
003800
003000
000000
000000
03EF80
0FFF80
1F9F80
3F1F80
3E1F00
7C1F00
7C1F00
FC1F00
F83E00
F83E00
F83E00
F83E00
F87E30
F87C20
F8FC60
FFFCC0
7F7F80
3EFF00
01F800
07F800
0EF800
18F800
39F000
31F000
3BE000
1FE000
0F8000
ENDCHAR
STARTCHAR uni01E8
ENCODING 488
SWIDTH 601 0
DWIDTH 22 0
BBX 26 37 0 -1
BITMAP
000100C0
00018300
0000CE00
0000FC00
0000F800
00007000
00006000
00000000
00000000
007C0F00
01FC1E00
07FC3C00
0EFC3800
1CF87000
38F8E000
70F9C000
70F9C000
F1FB8000
F1F70000
F1F60000
71FC0000
73FFC000
03FFE000
03E3E000
03E1F000
03E1F000
07E1E000
07C3E000
07C3E000
07C3E000
07C3C000
0FC7C000
0F87C000
0F87C000
0F87C000
1F87E000
00010000
ENDCHAR
STARTCHAR uni01E9
ENCODING 489
SWIDTH 518 0
DWIDTH 19 0
BBX 21 33 -1 0
BITMAP
003018
001070
0019E0
001F80
000F00
000E00
000C00
000000
03C000
07C000
0FC000
0F8000
0F8000
0F8000
0F8000
1F83C0
1F0700
1F1C00
1F3800
1F7000
3FFC00
3FFE00
3FFF00
3F3F00
7E1F00
7C1F00
7C3F00
7C3E18
7C3E10
FC3E30
F83FE0
F81FC0
F80F80
ENDCHAR
STARTCHAR uni01EA
ENCODING 490
SWIDTH 665 0
DWIDTH 24 0
BBX 23 43 1 -7
BITMAP
003800
003C00
003C00
001C00
001C00
001C00
001C00
000000
000000
003FC0
01FFF0
07C1F8
1F0278
3C7C7C
78F83C
71F03C
F1F03E
E3E03E
E7E03E
E7C03E
E7C03C
6FC07C
0F807C
0F807C
1F807C
1F80F8
1F00F8
1F00F8
1F01F0
1F01F0
1F03E0
1F87C0
1F8F80
0FFF00
07FE00
03F800
018000
030000
070000
070000
078800
03F800
03E000
ENDCHAR
STARTCHAR uni01EB
ENCODING 491
SWIDTH 433 0
DWIDTH 16 0
BBX 21 25 -1 -7
BITMAP
01F000
07FC00
0FDC00
1F0E00
1F1E18
3E1E70
3E1FC0
7C1E00
7C1E00
7C1C00
FC1C00
FC1C00
FC3800
FC3800
7C7000
7FE000
3FC000
1F8000
180000
380000
300000
700000
78C000
3F8000
1E0000
ENDCHAR
STARTCHAR uni01EE
ENCODING 494
SWIDTH 525 0
DWIDTH 19 0
BBX 20 37 1 -1
BITMAP
004030
0020E0
003380
003F00
001E00
001C00
001800
000000
000000
07FFF0
1FFFE0
1C07C0
1C0F80
1E1F00
1C3F00
003E00
007C00
00F800
01F800
01F000
03F800
03FE00
00FF00
003F00
001F80
001F80
001F80
001F80
001F80
781F80
F01F00
E03F00
E03E00
F07C00
7FF800
3FF000
020000
ENDCHAR
STARTCHAR uni01EF
ENCODING 495
SWIDTH 600 0
DWIDTH 22 0
BBX 17 36 0 -9
BITMAP
010080
018300
018E00
00FC00
00F800
00E000
004000
000000
000000
1FFE00
3FFC00
78F800
78F800
71F000
23E000
03E000
07C000
07C000
0F8000
1F0000
1F0000
1F8080
07C180
07C100
07C300
07E600
03FC00
03F000
0FE000
3FE000
77E000
C7C000
C7C000
CF8000
FF0000
3E0000
ENDCHAR
STARTCHAR uni01F4
ENCODING 500
SWIDTH 578 0
DWIDTH 21 0
BBX 20 42 1 -7
BITMAP
0001F0
0001C0
0003C0
000380
000700
000700
000800
000000
007F00
01FFC0
07F1E0
0FC0E0
1F80E0
3F00E0
3F01E0
7E03E0
7C01C0
FC0000
FC0000
FC0000
F80020
F803C0
F803C0
F807C0
F807C0
FC0FC0
FC0F80
7E3F80
7FFF80
3FEF80
0F8F00
001F00
001F00
0F9F00
3F9E00
3FBE00
383E00
783C00
387C00
3CF800
1FF000
0FC000
ENDCHAR
STARTCHAR uni01F5
ENCODING 501
SWIDTH 507 0
DWIDTH 18 0
BBX 20 36 0 -9
BITMAP
000F00
001E00
001C00
003C00
003800
007000
007000
000000
000000
03EF80
0FFF80
1F9F80
3F1F80
3E1F00
7C1F00
7C1F00
FC1F00
F83E00
F83E00
F83E00
F83E00
F87E30
F87C20
F8FC60
FFFCC0
7F7F80
3EFF00
01F800
07F800
0EF800
18F800
39F000
31F000
3BE000
1FE000
0F8000
ENDCHAR
STARTCHAR Aringacute
ENCODING 506
SWIDTH 668 0
DWIDTH 24 0
BBX 28 40 0 -4
BITMAP
00000070
000000F0
000000E0
000001C0
00000780
00000F80
00000C80
00000C80
00000F80
00000780
00001F80
00007F80
0000DF00
00019F00
00031F00
00073F00
000E3F00
001C3E00
001C3E00
00383E00
0FF87E00
3FFFFC00
78F1FC00
F1E07C00
F9E07C00
73C0FC00
03C0F800
07C0F800
0780F800
0781F800
0F81F000
0F01F000
0F01F000
1F01F000
1F03F000
1F03E000
1F000000
1E000000
0E000000
07000000
ENDCHAR
STARTCHAR aringacute
ENCODING 507
SWIDTH 526 0
DWIDTH 19 0
BBX 20 29 0 0
BITMAP
000700
000E00
000C00
003C00
007C00
004400
00C400
004C00
007800
000000
000000
03EF80
0FFF80
1F9F80
3F1F80
3E1F00
7C1F00
7C1F00
FC1F00
F83F00
F83E00
F83E00
F83E00
F87E10
F87E30
F8FE60
FFBFC0
7F3F80
3E1F00
ENDCHAR
STARTCHAR AEacute
ENCODING 508
SWIDTH 764 0
DWIDTH 28 0
BBX 33 40 0 -4
BITMAP
0000003C00
0000003800
0000007000
0000007000
000000E000
000000C000
000001C000
0000018000
0000000000
00000F8080
00003FFF00
0000FFFF00
0001DF3E00
00039F0000
00071F0000
00073F0000
000E3E0000
001C3E0000
003C3E0000
00383E0000
0FFC7E0000
3FFFFFF000
78F1FFF000
F1E07FE000
F9E07C0000
73C0F80000
03C0F80000
07C0F80000
0780F80000
0781F80000
0F81F00000
0F01F00000
0F01FFF000
1F01FFF000
1F03FFF000
1F03FFE000
1E00000000
1E00000000
0E00000000
0700000000
ENDCHAR
STARTCHAR aeacute
ENCODING 509
SWIDTH 650 0
DWIDTH 23 0
BBX 25 27 0 0
BITMAP
00007800
0000F000
0000E000
0000E000
0001C000
0001C000
00038000
00000000
00000000
03F0F800
0FFFFC00
1C7FCE00
103F8E00
003F0E00
003F0C00
003E1C00
003E3800
1FFEF800
7FFFE000
FC7F8000
F87C0000
F87C0180
F8FE0200
F8FE0E00
FFBFFC00
7F3FF000
3E0FC000
ENDCHAR
STARTCHAR Oslashacute
ENCODING 510
SWIDTH 658 0
DWIDTH 24 0
BBX 22 39 1 -3
BITMAP
00003C
000078
000070
0000F0
0000E0
0001C0
0001C0
000000
000000
000180
000100
007F80
03FFE0
0F83F0
1E3FF8
38F678
71F678
F3E67C
E3E67C
E7C67C
E7CC7C
EF8C7C
6F8C7C
0F8CF8
1F98F8
1F18F8
1F18F8
1F19F0
1F19F0
1F33E0
1F33E0
1F37C0
1F3F80
0FFF80
0FFE00
03FC00
006000
006000
006000
ENDCHAR
STARTCHAR oslashacute
ENCODING 511
SWIDTH 428 0
DWIDTH 15 0
BBX 20 29 -3 -2
BITMAP
0001E0
0003C0
000380
000700
000700
000E00
000E00
000000
000000
003E30
00FF60
03F7C0
07E380
07C380
0F8780
0F8780
1F8F80
1F1B80
1F3780
1F6700
1FC700
1F8F00
1F8E00
1F1C00
1FF800
0FF000
1FC000
300000
E00000
ENDCHAR
STARTCHAR uni0200
ENCODING 512
SWIDTH 668 0
DWIDTH 24 0
BBX 25 40 0 -4
BITMAP
0007BC00
00038E00
0003CE00
0001C700
0000E300
00006380
00007180
00000000
00000000
00000F80
00003F80
0000FF80
0001DF00
00039F00
00071F00
00073F00
000E3E00
001C3E00
003C3E00
00383E00
0FF87E00
3FFFFC00
78F1FC00
F1E07C00
F9E07C00
73C0FC00
03C0F800
07C0F800
0780F800
0781F800
0F81F000
0F01F000
0F01F000
1F01F000
1F03F000
1F03E000
1F000000
1E000000
0E000000
07000000
ENDCHAR
STARTCHAR uni0201
ENCODING 513
SWIDTH 526 0
DWIDTH 19 0
BBX 20 27 0 0
BITMAP
1EF000
0E7800
0F3800
071C00
038C00
018E00
01C600
000000
000000
03EF80
0FFF80
1F9F80
3F1F80
3E1F00
7C1F00
7C1F00
FC1F00
F83F00
F83E00
F83E00
F83E00
F87E10
F87E30
F8FE60
FFBFC0
7F3F80
3E1F00
ENDCHAR
STARTCHAR uni0202
ENCODING 514
SWIDTH 668 0
DWIDTH 24 0
BBX 29 38 0 -4
BITMAP
000007E0
00003FF0
00007878
0000F038
0000E038
00000000
00000000
00000F80
00003F80
0000FF80
0001DF00
00039F00
00071F00
00073F00
000E3E00
001C3E00
003C3E00
00383E00
0FF87E00
3FFFFC00
78F1FC00
F1E07C00
F9E07C00
73C0FC00
03C0F800
07C0F800
0780F800
0781F800
0F81F000
0F01F000
0F01F000
1F01F000
1F03F000
1F03E000
1F000000
1E000000
0E000000
07000000
ENDCHAR
STARTCHAR uni0203
ENCODING 515
SWIDTH 526 0
DWIDTH 19 0
BBX 20 25 0 0
BITMAP
007E00
01FF00
03C780
070380
0F0380
000000
000000
03EF80
0FFF80
1F9F80
3F1F80
3E1F00
7C1F00
7C1F00
FC1F00
F83F00
F83E00
F83E00
F83E00
F87E10
F87E30
F8FE60
FFBFC0
7F3F80
3E1F00
ENDCHAR
STARTCHAR uni0204
ENCODING 516
SWIDTH 459 0
DWIDTH 17 0
BBX 18 37 0 -1
BITMAP
0F3C00
071C00
038E00
038E00
01C700
00C300
006380
000000
000000
003E00
00FF80
01F380
03E1C0
03C1C0
07C1C0
078380
078780
078000
07C000
07C000
03E000
03F800
0FC000
1F8000
3F0000
3F0000
7E0000
7E0000
FE0000
FE0000
FE0080
FE0180
7E0300
7FFE00
3FFC00
1FF000
020000
ENDCHAR
STARTCHAR uni0205
ENCODING 517
SWIDTH 384 0
DWIDTH 14 0
BBX 15 27 0 0
BITMAP
F3C0
79E0
38E0
1C70
0C70
0E38
0618
0000
0000
03F0
0FF8
1FB8
3F38
3E38
7C38
7C78
FCF0
F9E0
FFC0
FF00
F800
F806
F80C
FC38
FFF0
7FE0
3F00
ENDCHAR
STARTCHAR uni0206
ENCODING 518
SWIDTH 459 0
DWIDTH 17 0
BBX 20 35 0 -1
BITMAP
001FC0
007FE0
00F0F0
00E070
01C070
000000
000000
003E00
00FF80
01F380
03E1C0
03C1C0
07C1C0
078380
078780
078000
07C000
07C000
03E000
03F800
0FC000
1F8000
3F0000
3F0000
7E0000
7E0000
FE0000
FE0000
FE0080
FE0180
7E0300
7FFE00
3FFC00
1FF000
020000
ENDCHAR
STARTCHAR uni0207
ENCODING 519
SWIDTH 384 0
DWIDTH 14 0
BBX 15 25 0 0
BITMAP
03F0
0FFC
1E3C
3C1E
380E
0000
0000
03F0
0FF8
1FB8
3F38
3E38
7C38
7C78
FCF0
F9E0
FFC0
FF00
F800
F806
F80C
FC38
FFF0
7FE0
3F00
ENDCHAR
STARTCHAR uni0208
ENCODING 520
SWIDTH 375 0
DWIDTH 14 0
BBX 15 35 0 0
BITMAP
3CF0
1E78
0E38
071C
031C
038C
0186
0000
007C
01FC
07FC
0EFC
3CF8
38F8
70F8
70F8
F1F8
F1F0
F1F0
71F0
31F0
03E0
03E0
03E0
03E0
07E0
07C0
07C0
07C0
07C0
0FC0
0F80
0F80
0F80
1F80
ENDCHAR
STARTCHAR uni0209
ENCODING 521
SWIDTH 267 0
DWIDTH 10 0
BBX 15 27 -4 0
BITMAP
F3C0
39E0
38E0
1C70
0C30
0E38
0718
0000
0000
03F0
03E0
03E0
03E0
07E0
07C0
07C0
07C0
07C0
0FC0
0F80
0F82
0F86
0F8C
0FDC
0FF8
0FF0
07C0
ENDCHAR
STARTCHAR uni020A
ENCODING 522
SWIDTH 375 0
DWIDTH 14 0
BBX 18 34 0 0
BITMAP
007E00
01FF80
03C780
0783C0
0701C0
000000
000000
007C00
01FC00
07FC00
0EFC00
3CF800
38F800
70F800
70F800
F1F800
F1F000
F1F000
71F000
33F000
03E000
03E000
03E000
03E000
07E000
07C000
07C000
07C000
07C000
0FC000
0F8000
0F8000
0F8000
1F8000
ENDCHAR
STARTCHAR uni020B
ENCODING 523
SWIDTH 267 0
DWIDTH 10 0
BBX 11 25 0 0
BITMAP
0F80
3FC0
71C0
E0E0
E0E0
0000
0000
3F00
3E00
3E00
3E00
7E00
7C00
7C00
7C00
7C00
FC00
F800
F820
F860
F8C0
FDC0
FF80
FF00
7C00
ENDCHAR
STARTCHAR uni020C
ENCODING 524
SWIDTH 665 0
DWIDTH 24 0
BBX 23 36 1 0
BITMAP
03CF00
01C700
00E780
00E380
0071C0
0030C0
0018E0
000000
000000
003FC0
01FFF0
07C1F8
1F0278
3C7C7C
78F83C
71F03C
F1F03E
E3E03E
E7E03E
E7C03E
E7C03C
6FC07C
0F807C
0F807C
1F807C
1F80F8
1F00F8
1F00F8
1F01F0
1F01F0
1F03E0
1F87C0
1F8F80
0FFF00
07FE00
03F800
ENDCHAR
STARTCHAR uni020D
ENCODING 525
SWIDTH 433 0
DWIDTH 16 0
BBX 21 27 -1 0
BITMAP
39E000
3CE000
1C7000
0E7000
0E3800
071800
030C00
000000
000000
01F000
07FC00
0FDC00
1F0E00
1F1E18
3E1E70
3E1FC0
7C1E00
7C1E00
7C1C00
FC1C00
FC1C00
FC3800
FC3800
7C7000
7FE000
3FC000
1F8000
ENDCHAR
STARTCHAR uni020E
ENCODING 526
SWIDTH 665 0
DWIDTH 24 0
BBX 23 34 1 0
BITMAP
0007F0
000FFC
003C3C
00381C
00781E
000000
000000
003FC0
01FFF0
07C1F8
1F0278
3C7C7C
78F83C
71F03C
F1F03E
E3E03E
E7E03E
E7C03E
E7C03C
6FC07C
0F807C
0F807C
1F807C
1F80F8
1F00F8
1F00F8
1F01F0
1F01F0
1F03E0
1F87C0
1F8F80
0FFF00
07FE00
03F800
ENDCHAR
STARTCHAR uni020F
ENCODING 527
SWIDTH 433 0
DWIDTH 16 0
BBX 21 25 -1 0
BITMAP
00FC00
03FE00
078F00
0E0780
0E0780
000000
000000
01F000
07FC00
0FDC00
1F0E00
1F1E18
3E1E70
3E1FC0
7C1E00
7C1E00
7C1C00
FC1C00
FC1C00
FC3800
FC3800
7C7000
7FE000
3FC000
1F8000
ENDCHAR
STARTCHAR uni0210
ENCODING 528
SWIDTH 601 0
DWIDTH 22 0
BBX 21 37 0 -1
BITMAP
0F3C00
079C00
038E00
01C600
01C700
00E300
006180
000000
000000
007F80
01FFE0
07C1F0
0F00F0
1C3C78
38F878
78F878
70F878
F1F870
F1F0F0
F1F1E0
71F3C0
71FFC0
03FFE0
03E3E0
03E1F0
03E1F0
07E1E0
07C3E0
07C3E0
07C3E0
07C3C0
0FC7C0
0F87C0
0F87C0
0F87C0
1F87E0
000100
ENDCHAR
STARTCHAR uni0211
ENCODING 529
SWIDTH 376 0
DWIDTH 14 0
BBX 15 27 -1 0
BITMAP
F3C0
71C0
39E0
38E0
1C60
0C30
0E38
0000
0000
1FBC
1F7E
1FFE
1F1E
3F1C
3E00
3E00
3E00
3E00
7E00
7C00
7C00
7C00
7C00
FC00
F800
F800
F800
ENDCHAR
STARTCHAR uni0212
ENCODING 530
SWIDTH 601 0
DWIDTH 22 0
BBX 21 35 0 -1
BITMAP
001FC0
007FE0
00F0F0
00E070
01C070
000000
000000
007F80
01FFE0
07C1F0
0F00F0
1C3C78
38F878
78F878
70F878
F1F870
F1F0F0
F1F1E0
71F3C0
71FFC0
03FFE0
03E3E0
03E1F0
03E1F0
07E1E0
07C3E0
07C3E0
07C3E0
07C3C0
0FC7C0
0F87C0
0F87C0
0F87C0
1F87E0
000100
ENDCHAR
STARTCHAR uni0213
ENCODING 531
SWIDTH 376 0
DWIDTH 14 0
BBX 16 25 -1 0
BITMAP
01F8
07FE
0F1F
1E0F
1C07
0000
0000
1FBC
1F7E
1FFE
1F1E
3F1C
3E00
3E00
3E00
3E00
7E00
7C00
7C00
7C00
7C00
FC00
F800
F800
F800
ENDCHAR
STARTCHAR uni0214
ENCODING 532
SWIDTH 716 0
DWIDTH 26 0
BBX 27 36 0 0
BITMAP
003CF000
001C7000
000E7800
000E3800
00071C00
00030C00
00018E00
00000000
00000000
007E03E0
03FE03E0
07FE03E0
1E7C07C0
3C7C07C0
787C07C0
70FC07C0
F0F807C0
E0F80F80
E0F80F80
E1F00F80
E1F00F80
71F01F80
01F01F00
03E01F00
03E01F00
03E03F00
03E03E00
03C03E00
07C03E00
07C07C00
07C07C00
07E0F800
03E1F800
03FFF000
01FFC000
007F0000
ENDCHAR
STARTCHAR uni0215
ENCODING 533
SWIDTH 505 0
DWIDTH 18 0
BBX 20 27 0 0
BITMAP
79E000
38E000
1CE000
1C7000
0E3000
063800
071C00
000000
000000
3F1F80
3E1F00
3E1F00
3E1F00
7E3F00
7C3E00
7C3E00
7C3E00
7C3E00
FC7E00
F87C00
F87C30
F8FC20
F8FC60
FFFFC0
FF7FC0
FE7F80
7C3E00
ENDCHAR
STARTCHAR uni0216
ENCODING 534
SWIDTH 716 0
DWIDTH 26 0
BBX 27 34 0 0
BITMAP
0000FE00
0001FF80
00038780
00070380
000703C0
00000000
00000000
007E03E0
03FE03E0
07FE03E0
1E7C07C0
3C7C07C0
787C07C0
70FC07C0
F0F807C0
E0F80F80
E0F80F80
E1F00F80
E1F00F80
71F01F80
01F01F00
03E01F00
03E01F00
03E03F00
03E03E00
03C03E00
07C03E00
07C07C00
07C07C00
07E0F800
03E1F800
03FFF000
01FFC000
007F0000
ENDCHAR
STARTCHAR uni0217
ENCODING 535
SWIDTH 505 0
DWIDTH 18 0
BBX 20 25 0 0
BITMAP
00FC00
07FE00
0F0F00
0E0700
1C0700
000000
000000
3F1F80
3E1F00
3E1F00
3E1F00
7E3F00
7C3E00
7C3E00
7C3E00
7C3E00
FC7E00
F87C00
F87C30
F8FC20
F8FC60
FFFFC0
FF7FC0
FE7F80
7C3E00
ENDCHAR
STARTCHAR Scommaaccent
ENCODING 536
SWIDTH 570 0
DWIDTH 21 0
BBX 19 36 1 -9
BITMAP
007F00
01FF80
03E3C0
07C1E0
07C1E0
07C1E0
0FC1E0
0FC3C0
07E180
07E000
03F000
03F800
01FC00
00FE00
007F00
003F00
1E1F80
3F1F80
7C0F80
F80FC0
F00F80
F00F80
F00F80
781F00
7C3E00
3FFC00
1FF800
010000
000000
070000
078000
078000
030000
030000
060000
040000
ENDCHAR
STARTCHAR scommaaccent
ENCODING 537
SWIDTH 382 0
DWIDTH 14 0
BBX 16 28 -1 -9
BITMAP
00F0
03F0
03F0
07F0
07F0
0FF0
0DF0
09F0
19F0
11F0
31F0
71F0
F1F1
F1F6
C1FC
C3F8
FFE0
7FC0
1F00
0000
0000
1C00
1E00
1E00
0C00
0C00
1800
1000
ENDCHAR
STARTCHAR uni021A
ENCODING 538
SWIDTH 481 0
DWIDTH 17 0
BBX 26 36 0 -9
BITMAP
00FF0040
07FFE0C0
0FFFFFC0
1E1FFF80
3C3FFF80
783F7F00
703F0000
F03E0000
F03E0000
F07E0000
F07E0000
F07C0000
707C0000
307C0000
00FC0000
00F80000
00F80000
00F80000
01F80000
01F80000
01F00000
01F00000
01F00000
03F00000
03E00000
03E00000
03E00000
00000000
00000000
03800000
03C00000
03C00000
01800000
01800000
03000000
02000000
ENDCHAR
STARTCHAR uni021B
ENCODING 539
SWIDTH 267 0
DWIDTH 10 0
BBX 11 33 0 -9
BITMAP
0080
1F80
1F00
1F00
1F00
1F00
7FC0
3E00
3E00
3E00
7E00
7C00
7C00
7C00
7C00
FC00
F800
F820
F860
F8C0
FFC0
FF80
FF00
7C00
0000
0000
6000
F000
F000
7000
6000
C000
8000
ENDCHAR
STARTCHAR uni021E
ENCODING 542
SWIDTH 665 0
DWIDTH 24 0
BBX 26 36 0 0
BITMAP
000100C0
00018300
0000CE00
0000FC00
0000F800
00007000
00006000
00000000
00000000
003E0F80
01FC1F80
07FC1F00
0E7C1F00
1CFC1F00
38F81F00
78F83F00
70F83E00
F0F83E00
F1F83E00
71F03E00
71FFFE00
31FFFC00
03FFFC00
03E07C00
03E07C00
03E0FC00
03E0F800
07E0F800
07C0F800
07C1F800
07C1F000
07C1F000
0FC1F000
0F81F000
0F83F000
0F83E000
ENDCHAR
STARTCHAR uni021F
ENCODING 543
SWIDTH 600 0
DWIDTH 22 0
BBX 22 33 -1 0
BITMAP
00100C
001830
000CE0
000FC0
000F80
000700
000600
000000
01C000
07C000
0FC000
0F8000
0F8000
0F8000
0F8000
1FBE00
1F7F00
1FFF00
1F9F00
1F1F00
3F1F00
3E1F00
3E1F00
3E1F00
7E1F00
7C3E00
7C3E00
7C3E18
7C3E30
FC3E20
F83FE0
F83FC0
F80F00
ENDCHAR
STARTCHAR uni0237
ENCODING 567
SWIDTH 240 0
DWIDTH 9 0
BBX 17 27 -7 -9
BITMAP
007E00
007C00
007C00
007C00
007C00
00FC00
00F800
00F800
00F800
01F800
01F800
01F000
01F180
01F180
03F100
03E200
03E600
03F800
07E000
3FE000
7FC000
E7C000
C7C000
CF8000
CF8000
FF0000
7C0000
ENDCHAR
STARTCHAR uni0259
ENCODING 601
SWIDTH 404 0
DWIDTH 15 0
BBX 14 18 0 0
BITMAP
0FE0
1FF0
3FF8
30F8
20FC
007C
00FC
03FC
0FFC
3EF8
78F8
71F8
E1F0
E1F0
E3E0
E7C0
7F80
3E00
ENDCHAR
STARTCHAR uni0292
ENCODING 658
SWIDTH 442 0
DWIDTH 16 0
BBX 17 27 0 -9
BITMAP
1FFE00
3FFC00
78F800
78F800
71F000
23E000
03E000
07C000
07C000
0F8000
1F0000
1F0000
1F8080
07C180
07C100
07C300
07E600
03FC00
03F000
0FE000
3FE000
77E000
C7C000
C7C000
CF8000
FF0000
3E0000
ENDCHAR
STARTCHAR uni02BB
ENCODING 699
SWIDTH 241 0
DWIDTH 9 0
BBX 5 8 4 18
BITMAP
18
30
30
70
78
F8
78
70
ENDCHAR
STARTCHAR uni02BC
ENCODING 700
SWIDTH 228 0
DWIDTH 8 0
BBX 5 8 5 19
BITMAP
70
F8
F8
78
30
30
E0
40
ENDCHAR
STARTCHAR circumflex
ENCODING 710
SWIDTH 293 0
DWIDTH 11 0
BBX 11 7 0 20
BITMAP
0080
0380
0780
0F80
1FC0
38C0
E060
ENDCHAR
STARTCHAR caron
ENCODING 711
SWIDTH 294 0
DWIDTH 11 0
BBX 10 7 4 20
BITMAP
8040
C380
CF00
7E00
7800
7000
2000
ENDCHAR
STARTCHAR uni02C9
ENCODING 713
SWIDTH 421 0
DWIDTH 15 0
BBX 12 2 4 21
BITMAP
7FF0
FFF0
ENDCHAR
STARTCHAR uni02CA
ENCODING 714
SWIDTH 256 0
DWIDTH 9 0
BBX 7 7 4 20
BITMAP
1E
1C
3C
38
70
60
E0
ENDCHAR
STARTCHAR uni02CB
ENCODING 715
SWIDTH 274 0
DWIDTH 10 0
BBX 4 7 6 20
BITMAP
E0
F0
70
70
70
30
30
ENDCHAR
STARTCHAR breve
ENCODING 728
SWIDTH 431 0
DWIDTH 16 0
BBX 14 5 2 20
BITMAP
F03C
7038
78F0
3FE0
1F80
ENDCHAR
STARTCHAR dotaccent
ENCODING 729
SWIDTH 250 0
DWIDTH 9 0
BBX 6 6 2 21
BITMAP
70
F8
FC
FC
F8
70
ENDCHAR
STARTCHAR ring
ENCODING 730
SWIDTH 156 0
DWIDTH 6 0
BBX 6 6 0 20
BITMAP
78
F8
CC
CC
F8
70
ENDCHAR
STARTCHAR ogonek
ENCODING 731
SWIDTH 291 0
DWIDTH 10 0
BBX 8 8 2 -8
BITMAP
38
60
E0
E0
E1
F3
FE
78
ENDCHAR
STARTCHAR tilde
ENCODING 732
SWIDTH 403 0
DWIDTH 15 0
BBX 15 4 1 20
BITMAP
0F82
3FFC
7FF8
83E0
ENDCHAR
STARTCHAR hungarumlaut
ENCODING 733
SWIDTH 436 0
DWIDTH 16 0
BBX 13 7 3 20
BITMAP
1E78
1C70
38E0
38E0
71C0
6180
E300
ENDCHAR
STARTCHAR gravecomb
ENCODING 768
SWIDTH 0 0
DWIDTH 0 0
BBX 4 7 -6 20
BITMAP
E0
F0
70
70
70
30
30
ENDCHAR
STARTCHAR acutecomb
ENCODING 769
SWIDTH 0 0
DWIDTH 0 0
BBX 7 7 -7 20
BITMAP
1E
1C
38
38
70
60
C0
ENDCHAR
STARTCHAR uni0302
ENCODING 770
SWIDTH 0 0
DWIDTH 0 0
BBX 11 7 -10 20
BITMAP
0080
0380
0780
0F80
1FC0
38C0
E060
ENDCHAR
STARTCHAR tildecomb
ENCODING 771
SWIDTH 0 0
DWIDTH 0 0
BBX 14 4 -13 20
BITMAP
1F84
7FFC
FFF8
83E0
ENDCHAR
STARTCHAR uni0304
ENCODING 772
SWIDTH 0 0
DWIDTH 0 0
BBX 12 2 -11 21
BITMAP
7FF0
FFF0
ENDCHAR
STARTCHAR uni0306
ENCODING 774
SWIDTH 0 0
DWIDTH 0 0
BBX 13 5 -11 20
BITMAP
E078
E070
F1E0
7FC0
3F00
ENDCHAR
STARTCHAR uni0307
ENCODING 775
SWIDTH 0 0
DWIDTH 0 0
BBX 5 6 -4 21
BITMAP
70
F8
F8
F8
F8
70
ENDCHAR
STARTCHAR uni0308
ENCODING 776
SWIDTH 0 0
DWIDTH 0 0
BBX 11 4 -10 20
BITMAP
71C0
F9E0
F9E0
71C0
ENDCHAR
STARTCHAR hookabovecomb
ENCODING 777
SWIDTH 0 0
DWIDTH 0 0
BBX 7 8 -8 20
BITMAP
78
FE
8E
06
0E
7C
60
60
ENDCHAR
STARTCHAR uni030A
ENCODING 778
SWIDTH 0 0
DWIDTH 0 0
BBX 6 6 -5 20
BITMAP
38
7C
EC
CC
7C
78
ENDCHAR
STARTCHAR uni030B
ENCODING 779
SWIDTH 0 0
DWIDTH 0 0
BBX 13 7 -11 20
BITMAP
1E78
1C70
38E0
38E0
71C0
6180
E300
ENDCHAR
STARTCHAR uni030C
ENCODING 780
SWIDTH 0 0
DWIDTH 0 0
BBX 11 7 -9 20
BITMAP
C060
41C0
6780
7F00
3C00
3800
3000
ENDCHAR
STARTCHAR uni030F
ENCODING 783
SWIDTH 0 0
DWIDTH 0 0
BBX 13 7 -12 20
BITMAP
F3C0
71C0
39E0
38E0
1C60
0C30
0E38
ENDCHAR
STARTCHAR uni0311
ENCODING 785
SWIDTH 0 0
DWIDTH 0 0
BBX 13 5 -12 20
BITMAP
0FC0
3FF0
78F0
E070
E078
ENDCHAR
STARTCHAR uni031B
ENCODING 795
SWIDTH 0 0
DWIDTH 0 0
BBX 5 8 -4 16
BITMAP
38
38
38
38
70
60
E0
80
ENDCHAR
STARTCHAR dotbelowcomb
ENCODING 803
SWIDTH 0 0
DWIDTH 0 0
BBX 6 6 -7 -8
BITMAP
38
7C
FC
FC
7C
38
ENDCHAR
STARTCHAR uni0324
ENCODING 804
SWIDTH 0 0
DWIDTH 0 0
BBX 11 4 -16 -7
BITMAP
71C0
F9E0
F9E0
71C0
ENDCHAR
STARTCHAR uni0326
ENCODING 806
SWIDTH 0 0
DWIDTH 0 0
BBX 4 7 -9 -9
BITMAP
70
F0
70
70
20
E0
40
ENDCHAR
STARTCHAR uni0327
ENCODING 807
SWIDTH 0 0
DWIDTH 0 0
BBX 8 9 -13 -8
BITMAP
18
18
10
3E
3F
07
87
FE
7C
ENDCHAR
STARTCHAR uni0328
ENCODING 808
SWIDTH 0 0
DWIDTH 0 0
BBX 8 8 -13 -8
BITMAP
1C
30
60
E0
E1
F3
7E
3C
ENDCHAR
STARTCHAR uni032E
ENCODING 814
SWIDTH 0 0
DWIDTH 0 0
BBX 11 4 -15 -7
BITMAP
C0E0
F3C0
FF80
3E00
ENDCHAR
STARTCHAR uni0331
ENCODING 817
SWIDTH 0 0
DWIDTH 0 0
BBX 13 2 -17 -6
BITMAP
7FF8
FFF0
ENDCHAR
STARTCHAR uni0335
ENCODING 821
SWIDTH 0 0
DWIDTH 0 0
BBX 12 2 -14 8
BITMAP
FFF0
FFF0
ENDCHAR
STARTCHAR uni0394
ENCODING 916
SWIDTH 619 0
DWIDTH 22 0
BBX 21 27 1 0
BITMAP
000780
000780
000FC0
001FC0
001FC0
003FC0
0039C0
0071C0
0071E0
00E1E0
01E1E0
01C1E0
03C1E0
0380E0
0700E0
0700F0
0E00F0
1E00F0
1C00F0
3C00F0
380070
700078
F00078
E00078
FFFFF8
FFFFF8
FFFFF8
ENDCHAR
STARTCHAR uni03A9
ENCODING 937
SWIDTH 745 0
DWIDTH 27 0
BBX 24 27 1 0
BITMAP
0007E0
001FF8
007FFC
00F83E
01E01E
03800F
070007
0F0007
0E0007
1E0007
1C0007
1C0007
3C0007
380007
38000E
38000E
38000C
3C001C
1C0018
1C0038
1C0070
0E00E0
0701C0
030380
7F87FC
FF87FC
FF8FFC
ENDCHAR
STARTCHAR uni03BC
ENCODING 956
SWIDTH 505 0
DWIDTH 18 0
BBX 23 24 -3 -6
BITMAP
07E3F0
07C3E0
07C3E0
07C3E0
0FC7E0
0F87C0
0F87C0
0F87C0
0F87C0
1F8FC0
1F0F80
1F0F86
1F0F84
1F1F8C
3F3F88
3FFFF8
3FEFF0
3F87C0
3E0000
7C0000
7C0000
7C0000
7C0000
C00000
ENDCHAR
STARTCHAR pi
ENCODING 960
SWIDTH 530 0
DWIDTH 19 0
BBX 20 18 -1 0
BITMAP
7FFFF0
7FFFF0
FFFFF0
0E0700
0E0700
1C0E00
1C0E00
1C0E00
1C0E00
1C0E00
381C00
381C00
381C00
381C00
301800
703800
701E00
701C00
ENDCHAR
STARTCHAR uni0400
ENCODING 1024
SWIDTH 459 0
DWIDTH 17 0
BBX 18 37 0 -1
BITMAP
007800
003800
003C00
001C00
001C00
000C00
000C00
000000
000000
003E00
00FF80
01F380
03E1C0
03C1C0
07C1C0
078380
078780
078000
07C000
07C000
03E000
03F800
0FC000
1F8000
3F0000
3F0000
7E0000
7E0000
FE0000
FE0000
FE0080
FE0180
7E0300
7FFE00
3FFC00
1FF000
020000
ENDCHAR
STARTCHAR uni0401
ENCODING 1025
SWIDTH 459 0
DWIDTH 17 0
BBX 19 34 0 -1
BITMAP
0070E0
00F9E0
00F9E0
0070E0
000000
000000
003E00
00FF80
01F380
03E1C0
03C1C0
07C1C0
078380
078780
078000
07C000
07C000
03E000
03F800
0FC000
1F8000
3F0000
3F0000
7E0000
7E0000
FE0000
FE0000
FE0080
FE0180
7E0300
7FFE00
3FFC00
1FF000
020000
ENDCHAR
STARTCHAR uni0402
ENCODING 1026
SWIDTH 725 0
DWIDTH 26 0
BBX 26 34 0 -7
BITMAP
00FFC040
07FFFFC0
0FFFFFC0
1E1FFF80
3C1F3F00
783F0000
703E0000
703E0000
F03E0000
F03E0000
707E0000
707CF800
307FFE00
007E3E00
007C3E00
00F83F00
00F83F00
00F83E00
00F83E00
01F83E00
01F03E00
01F03E00
01F07C00
01F07C00
03F07C00
03E07C00
03E0F800
0000F800
0001F000
0001F000
0023E000
003FC000
003F8000
001F0000
ENDCHAR
STARTCHAR uni0403
ENCODING 1027
SWIDTH 400 0
DWIDTH 14 0
BBX 23 36 0 0
BITMAP
00003C
00003C
000078
000070
0000E0
0000C0
0001C0
000000
000000
00FFFE
07FFFE
0FFFFC
3C7DF8
38FC00
78F800
70F800
70F800
F0F800
F1F800
71F000
71F000
19F000
03F000
03E000
03E000
03E000
03E000
07E000
07C000
07C000
07C000
07C000
0FC000
0F8000
0F8000
0F8000
ENDCHAR
STARTCHAR uni0404
ENCODING 1028
SWIDTH 497 0
DWIDTH 18 0
BBX 18 28 1 -1
BITMAP
007E00
01FF80
03F3C0
07E1C0
0FC1C0
1F81C0
1F01C0
3F03C0
3F0000
7E0000
7E0000
7FFC00
FFF800
FC0000
FC0000
FC0000
FC0000
FC0000
FC0000
FC0000
FC0000
FC00C0
FC0180
FE0300
7FFE00
3FFC00
1FF000
010000
ENDCHAR
STARTCHAR uni0405
ENCODING 1029
SWIDTH 570 0
DWIDTH 21 0
BBX 19 28 1 -1
BITMAP
007F00
01FF80
03E3C0
07C1E0
07C1E0
07C1E0
0FC1E0
0FC3C0
07E180
07E000
03F000
03F800
01FC00
00FE00
007F00
003F00
1E1F80
3F1F80
7C0F80
F80FC0
F00F80
F00F80
F00F80
781F00
7C3E00
3FFC00
1FF800
010000
ENDCHAR
STARTCHAR uni0406
ENCODING 1030
SWIDTH 374 0
DWIDTH 13 0
BBX 15 27 0 0
BITMAP
003E
01FC
07FC
0E7C
1CFC
38F8
78F8
70F8
F0F8
F1F8
71F0
71F0
31F0
03F0
03E0
03E0
03E0
03E0
07E0
07C0
07C0
07C0
07C0
0FC0
0F80
0F80
0F80
ENDCHAR
STARTCHAR uni0407
ENCODING 1031
SWIDTH 375 0
DWIDTH 14 0
BBX 18 33 0 0
BITMAP
00E380
01E7C0
01E7C0
00E380
000000
000000
007C00
01FC00
07FC00
0EFC00
3CF800
38F800
70F800
70F800
F1F800
F1F000
F1F000
71F000
33F000
03E000
03E000
03E000
03E000
07E000
07C000
07C000
07C000
07C000
0FC000
0F8000
0F8000
0F8000
1F8000
ENDCHAR
STARTCHAR uni0408
ENCODING 1032
SWIDTH 536 0
DWIDTH 19 0
BBX 20 34 1 -7
BITMAP
0001F0
000FF0
003FE0
007BE0
00E3E0
01C7E0
03C7C0
03C7C0
0387C0
0387C0
038FC0
038F80
01CF80
000F80
001F80
001F80
001F00
001F00
001F00
003F00
003E00
003E00
003E00
007E00
007E00
7E7C00
FF7C00
FEFC00
E0F800
E0F800
E1F000
F1F000
7FC000
3F8000
ENDCHAR
STARTCHAR uni0409
ENCODING 1033
SWIDTH 817 0
DWIDTH 29 0
BBX 29 31 -1 -4
BITMAP
0000FC00
0003FC00
0007F800
000EF800
001CF800
0038F800
0071F800
0071F000
00E1F000
01E1F000
03C3F000
03C3F000
0783EFC0
0783FFE0
0F03E1F0
0F07E0F8
1E07E0F8
1E07C0F8
3E07C0F8
3C07C0F8
7C0FC0F8
7C0F80F8
780F81F0
F80FA1F0
F81FBFE0
F81FBFC0
F01F3F80
F0000400
F0000000
F0000000
30000000
ENDCHAR
STARTCHAR uni040A
ENCODING 1034
SWIDTH 931 0
DWIDTH 34 0
BBX 32 28 0 -1
BITMAP
003E0F80
01FC1F80
07FC1F80
0F7C1F00
1CFC1F00
38F81F00
78F81F00
70F83E00
70F83E00
F1F83E00
F1F03E00
71F03E00
71FFFDF8
03FFFFFE
03F07C3E
03E07C1F
03E0FC1F
03E0F81F
07E0F81F
07C0F81F
07C1F81F
07C1F01F
07C1F03E
0FC1F43E
0F81F7FC
0F83F7F8
0F83E3F0
00000080
ENDCHAR
STARTCHAR uni040B
ENCODING 1035
SWIDTH 745 0
DWIDTH 27 0
BBX 26 28 0 -1
BITMAP
00FFC040
07FFFFC0
0FFFFFC0
1E1FFF80
3C1F3F00
783F0000
703E0000
703E0000
F03E0000
F03E0000
707E0000
707CF800
307FFE00
007E3E00
007C3E00
00F83F00
00F83F00
00F83F00
00F83E00
01F83E00
01F03E00
01F07E00
01F07C00
01F07C00
03F07C00
03E07C00
03E07F00
00001000
ENDCHAR
STARTCHAR uni040C
ENCODING 1036
SWIDTH 635 0
DWIDTH 23 0
BBX 25 37 0 -1
BITMAP
00001C00
00003C00
00003800
00007000
0000E000
0000C000
0001C000
00000000
00000000
003E0E00
01FC3F00
07FC7F80
0E7CFF00
1CFCE700
38F9C000
78FB8000
70FB0000
70FF0000
F1FE0000
F1FE0000
71FC0000
31FFC000
03FFE000
03E1F000
03E1F000
03E1F000
03E1F000
07E1E000
07C3E000
07C3E000
07C3E000
07C3C000
0FC7C000
0F87C000
0F87C000
0F87E000
00010000
ENDCHAR
STARTCHAR uni040D
ENCODING 1037
SWIDTH 705 0
DWIDTH 25 0
BBX 26 36 0 0
BITMAP
0003C000
0001C000
0001C000
0000E000
0000E000
0000E000
00006000
00000000
00000000
003E07C0
01FC0FC0
07FC0FC0
0E7C1FC0
1CFC1F80
38F83F80
78F83F80
70F87F80
F0F8FF80
F1F8FF00
71F1DF00
71F1DF00
31F39F00
03F3BF00
03E73E00
03E63E00
03EE3E00
03FC3E00
07FC7E00
07F87C00
07F87C00
07F07C00
07E0FC00
0FE0F800
0FC0F800
0FC0F800
0F80F800
ENDCHAR
STARTCHAR uni040E
ENCODING 1038
SWIDTH 644 0
DWIDTH 23 0
BBX 26 34 0 0
BITMAP
00010080
0007C180
0007C300
00078E00
0007FC00
0001F800
00000000
003E01C0
01FE0180
07FE0380
0E7E0300
1C3F0700
383F0600
783F0600
701F0E00
F01F0C00
F01F9C00
701F9800
700F9800
300FB000
000FF000
000FF000
0007E000
0007E000
0007C000
0007C000
00038000
00038000
00038000
00E30000
00F70000
01FE0000
00FC0000
00F80000
ENDCHAR
STARTCHAR uni040F
ENCODING 1039
SWIDTH 665 0
DWIDTH 24 0
BBX 25 39 0 -12
BITMAP
003E0F80
01FC1F80
07FC1F00
0E7C1F00
1CFC1F00
38F81F00
78F83F00
70F83E00
F0F83E00
F1F83E00
71F03E00
71F07E00
31F07C00
03F07C00
03E07C00
03E0FC00
03E0FC00
03E0F800
07E0F800
07C0F800
07C1F800
07C1F000
07C1F000
0FC1F000
0FFFF000
0FFFF000
0FFFE000
00000000
00700000
00E00000
00F00000
00F80000
00F80000
00FC0000
007C0000
003C0000
00380000
00300000
00200000
ENDCHAR
STARTCHAR uni0410
ENCODING 1040
SWIDTH 668 0
DWIDTH 24 0
BBX 25 31 0 -4
BITMAP
00000F80
00003F80
0000FF80
0001DF00
00039F00
00071F00
00073F00
000E3E00
001C3E00
003C3E00
00383E00
0FF87E00
3FFFFC00
78F1FC00
F1E07C00
F9E07C00
73C0FC00
03C0F800
07C0F800
0780F800
0781F800
0F81F000
0F01F000
0F01F000
1F01F000
1F03F000
1F03E000
1F000000
1E000000
0E000000
07000000
ENDCHAR
STARTCHAR uni0411
ENCODING 1041
SWIDTH 638 0
DWIDTH 23 0
BBX 23 28 0 -1
BITMAP
00FFFE
07FFFE
0FFFFC
3CFBF8
38F800
70F800
71F800
F1F000
F1F000
F1F000
F1F000
F3F000
73FFC0
03FFF0
03E1F0
03E0F8
07E0F8
07C0F8
07C0F8
07C0F8
0FC0F8
0FC0F8
0F81F0
0FA1F0
0FBFE0
1FBFC0
1F1F80
000400
ENDCHAR
STARTCHAR uni0412
ENCODING 1042
SWIDTH 641 0
DWIDTH 23 0
BBX 22 28 0 -1
BITMAP
003F80
01FFE0
07C1F0
0F0078
1CFC78
38F878
78F878
70F878
F0F870
F1F0F0
71F3C0
71FFE0
11FFF0
01F1F8
03E0F8
03E07C
03E07C
03E07C
07E07C
07C07C
07C0F8
07C0F8
07C0F8
0FE1F0
0FBFE0
0FBFE0
0F9FC0
000400
ENDCHAR
STARTCHAR uni0413
ENCODING 1043
SWIDTH 400 0
DWIDTH 14 0
BBX 23 27 0 0
BITMAP
00FFFE
07FFFE
0FFFFC
3C7DF8
38FC00
78F800
70F800
70F800
F0F800
F1F800
71F000
71F000
19F000
03F000
03E000
03E000
03E000
03E000
07E000
07C000
07C000
07C000
07C000
0FC000
0F8000
0F8000
0F8000
ENDCHAR
STARTCHAR uni0414
ENCODING 1044
SWIDTH 669 0
DWIDTH 24 0
BBX 24 28 -1 -1
BITMAP
001FC0
00FFF8
03E0FC
07803E
0E3E1E
1C7E1F
3C7C1F
387C1F
787C1F
78FC1F
38F81F
38F81F
18F81F
01F81F
01F81F
01F01F
01F03F
03F03E
03F03E
1FE03E
73E07C
63E07C
C7E0F8
C7C1F8
FFFFF0
7FBFE0
7F1FC0
080200
ENDCHAR
STARTCHAR uni0415
ENCODING 1045
SWIDTH 459 0
DWIDTH 17 0
BBX 18 28 0 -1
BITMAP
003E00
00FF80
01F380
03E1C0
03C1C0
07C1C0
078380
078780
078000
07C000
07C000
03E000
03F800
0FC000
1F8000
3F0000
3F0000
7E0000
7E0000
FE0000
FE0000
FE0080
FE0180
7E0300
7FFE00
3FFC00
1FF000
020000
ENDCHAR
STARTCHAR uni0416
ENCODING 1046
SWIDTH 777 0
DWIDTH 28 0
BBX 32 28 -2 -1
BITMAP
01E00C1E
03F0FC7F
07F0F8FF
07F8F8FF
03B8F9CE
0019FB80
0019F380
001DF700
001DF700
001DF600
001BFE00
001BEC00
00FFFF80
03FFFFC0
07E3E7E0
07C7E3E0
0F87C3E0
0F87C3E0
0F87C3E0
0F8FC3E0
0F0FC7C0
1F0F87C0
1F0F87C0
1F0F8780
1F1F8F80
3E1F0F80
FE1F07E0
18000100
ENDCHAR
STARTCHAR uni0417
ENCODING 1047
SWIDTH 525 0
DWIDTH 19 0
BBX 18 28 0 -1
BITMAP
00FE00
03FF00
071F80
0C0FC0
080FC0
180FC0
080FC0
000F80
001F80
001F00
007E00
03FC00
03FC00
007E00
003F00
001F80
001F80
001F80
001F80
301F80
F81F80
F01F00
E03F00
E03E00
F07C00
FFF800
3FE000
020000
ENDCHAR
STARTCHAR uni0418
ENCODING 1048
SWIDTH 705 0
DWIDTH 25 0
BBX 26 27 0 0
BITMAP
003E07C0
01FC0FC0
07FC0FC0
0E7C1FC0
1CFC1F80
38F83F80
78F83F80
70F87F80
F0F8FF80
F1F8FF00
71F1DF00
71F1DF00
31F39F00
03F3BF00
03E73E00
03E63E00
03EE3E00
03FC3E00
07FC7E00
07F87C00
07F87C00
07F07C00
07E0FC00
0FE0F800
0FC0F800
0FC0F800
0F80F800
ENDCHAR
STARTCHAR uni0419
ENCODING 1049
SWIDTH 705 0
DWIDTH 25 0
BBX 26 34 0 0
BITMAP
00020180
00078300
00078700
00078E00
0007FC00
0003F000
00000000
003E07C0
01FC0FC0
07FC0FC0
0E7C1FC0
1CFC1F80
38F83F80
78F83F80
70F87F80
F0F8FF80
F1F8FF00
71F1DF00
71F1DF00
31F39F00
03F3BF00
03E73E00
03E63E00
03EE3E00
03FC3E00
07FC7E00
07F87C00
07F87C00
07F07C00
07E0FC00
0FE0F800
0FC0F800
0FC0F800
0F80F800
ENDCHAR
STARTCHAR uni041A
ENCODING 1050
SWIDTH 635 0
DWIDTH 23 0
BBX 25 28 0 -1
BITMAP
003E0E00
01FC3F00
07FC7F80
0E7CFF00
1CFCE700
38F9C000
78FB8000
70FB0000
70FF0000
F1FE0000
F1FE0000
71FC0000
31FFC000
03FFE000
03E1F000
03E1F000
03E1F000
03E1F000
07E1E000
07C3E000
07C3E000
07C3E000
07C3C000
0FC7C000
0F87C000
0F87C000
0F87E000
00010000
ENDCHAR
STARTCHAR uni041B
ENCODING 1051
SWIDTH 549 0
DWIDTH 20 0
BBX 22 31 -1 -4
BITMAP
0000FC
0003FC
0007F8
000EF8
001CF8
0038F8
0071F8
0071F0
00E1F0
01C1F0
03C3F0
0383E0
0783E0
0783E0
0F03E0
0F07E0
1E07C0
1E07C0
3E07C0
3C07C0
7C0FC0
7C0F80
780F80
F80F80
F81F80
F81F00
F01F00
F00000
F00000
F00000
300000
ENDCHAR
STARTCHAR uni041C
ENCODING 1052
SWIDTH 787 0
DWIDTH 28 0
BBX 27 27 2 0
BITMAP
007C0000
03FE03E0
07FE07E0
0F7E07E0
1C7E0FC0
38FC0FC0
78FC1FC0
70FC1FC0
71FC1FC0
F1FC3FC0
71FC3FC0
73FC7F80
33FC7F80
077CEF80
077CEF80
077CCF80
0E7DDF80
0E7DDF80
0E7F9F00
1C7F9F00
1C7F1F00
387F1F00
387E1F00
387E3F00
707E3F00
707C3E00
E07C3E00
ENDCHAR
STARTCHAR uni041D
ENCODING 1053
SWIDTH 665 0
DWIDTH 24 0
BBX 25 27 0 0
BITMAP
003E0F80
01FC1F80
07FC1F00
0E7C1F00
1CFC1F00
38F81F00
78F83F00
70F83E00
F0F83E00
F1F83E00
71F03E00
71FFFE00
31FFFC00
03FFFC00
03E07C00
03E07C00
03E0FC00
03E0F800
07E0F800
07C0F800
07C1F800
07C1F000
07C1F000
0FC1F000
0F81F000
0F83F000
0F83E000
ENDCHAR
STARTCHAR uni041E
ENCODING 1054
SWIDTH 665 0
DWIDTH 24 0
BBX 23 27 1 0
BITMAP
003FC0
01FFF0
07C1F8
1F0278
3C7C7C
78F83C
71F03C
F1F03E
E3E03E
E7E03E
E7C03E
E7C03C
6FC07C
0F807C
0F807C
1F807C
1F80F8
1F00F8
1F00F8
1F01F0
1F01F0
1F03E0
1F87C0
1F8F80
0FFF00
07FE00
03F800
ENDCHAR
STARTCHAR uni041F
ENCODING 1055
SWIDTH 688 0
DWIDTH 25 0
BBX 28 27 0 0
BITMAP
00FFC010
07FFFFF0
0FFFFFF0
1FFFFFE0
3CFC1FC0
78F81F00
78F81F00
70F83F00
F0F83E00
F1F83E00
71F03E00
71F07E00
31F07C00
01F07C00
03F07C00
03E07C00
03E0FC00
03E0F800
07E0F800
07C0F800
07C1F800
07C1F000
07C1F000
0FC1F000
0F81F000
0F83F000
0F83E000
ENDCHAR
STARTCHAR uni0420
ENCODING 1056
SWIDTH 573 0
DWIDTH 21 0
BBX 21 27 0 0
BITMAP
007F00
01FFE0
07C1F0
0E00F0
1C3C78
38F878
78F878
70F878
F1F878
F1F078
F1F078
71F0F0
31F0F0
03F1E0
03E3C0
03EF00
03FC00
07E000
07C000
07C000
07C000
07C000
0FC000
0F8000
0F8000
0F8000
1F8000
ENDCHAR
STARTCHAR uni0421
ENCODING 1057
SWIDTH 497 0
DWIDTH 18 0
BBX 18 28 1 -1
BITMAP
007E00
01FF80
03F3C0
07C1C0
0FC1C0
1F81C0
1F01C0
3F03C0
3F0100
7E0000
7E0000
7E0000
FC0000
FC0000
FC0000
FC0000
FC0000
FC0000
FC0000
FC0000
FC0000
FC0040
FC0080
FE0380
7FFF00
3FFC00
1FF000
010000
ENDCHAR
STARTCHAR uni0422
ENCODING 1058
SWIDTH 481 0
DWIDTH 17 0
BBX 26 27 0 0
BITMAP
00FF0040
07FFE0C0
0FFFFFC0
1E1FFF80
3C3FFF80
783F7F00
703F0000
F03E0000
F03E0000
F07E0000
F07E0000
F07C0000
707C0000
307C0000
00FC0000
00F80000
00F80000
00F80000
01F80000
01F80000
01F00000
01F00000
01F00000
03F00000
03E00000
03E00000
03E00000
ENDCHAR
STARTCHAR uni0423
ENCODING 1059
SWIDTH 644 0
DWIDTH 23 0
BBX 26 27 0 0
BITMAP
003E01C0
01FE0180
07FE0380
0E7E0300
1C3F0700
383F0600
783F0600
701F0E00
F01F0C00
F01F9C00
701F9800
700F9800
300FB000
000FF000
000FF000
0007E000
0007E000
0007C000
0007C000
00038000
00038000
00038000
00E30000
00F70000
01FE0000
00FC0000
00F80000
ENDCHAR
STARTCHAR uni0424
ENCODING 1060
SWIDTH 786 0
DWIDTH 28 0
BBX 26 29 1 0
BITMAP
00FFC000
03FFE000
0FC7C000
1F07C000
1E07C000
1E07C000
0E0FC000
000FC000
00FFFC00
07CFBE00
0F0F8F00
3E1F8780
7C1F07C0
781F07C0
F81F07C0
F83F07C0
F83F07C0
F83E07C0
F83E07C0
F83E0F80
F87E0F80
F87C1F00
7C7C3E00
7E7CFC00
3FFFF800
0FFFE000
00F80000
00F80000
00F80000
ENDCHAR
STARTCHAR uni0425
ENCODING 1061
SWIDTH 620 0
DWIDTH 22 0
BBX 23 27 0 0
BITMAP
007C0E
01FE1C
07FE18
0E7E38
3C7E30
383E60
703FE0
703FC0
F03FC0
F03F80
F01F80
701F80
301F80
001F80
001F80
001F80
001FC0
003FC0
003FC0
0067C0
00E7E0
00C7E0
01C7E0
0187E0
0303E0
0303F0
0603F0
ENDCHAR
STARTCHAR uni0426
ENCODING 1062
SWIDTH 692 0
DWIDTH 25 0
BBX 26 33 0 -6
BITMAP
003E0F80
01FC1F80
07FC1F00
0E7C1F00
1CFC1F00
38F81F00
78F83F00
70F83E00
F0F83E00
F1F83E00
71F03E00
71F07E00
31F07C00
03F07C00
03E07C00
03E0FC00
03E0F800
03E0F800
07E0F800
07C0F800
07C1F800
07C1F000
07C1F000
0FC1F000
0FE1F000
0FFFF000
0FFFE000
003FE000
0007FFC0
0003FF80
0000FF80
00007F00
00001E00
ENDCHAR
STARTCHAR uni0427
ENCODING 1063
SWIDTH 695 0
DWIDTH 25 0
BBX 26 27 0 0
BITMAP
003E07C0
01FC07C0
07FC0FC0
0E7C0F80
1CFC0F80
38F80F80
78F80F80
70F81F00
71F81F00
F1F81F00
F1F01F00
71F01F00
31F83E00
00F87E00
00FFFE00
003F3E00
00007E00
00007C00
00007C00
00007C00
0000FC00
0000FC00
0000F800
0000F800
0000F800
0001F800
0001F000
ENDCHAR
STARTCHAR uni0428
ENCODING 1064
SWIDTH 906 0
DWIDTH 33 0
BBX 34 27 0 0
BITMAP
003E1F0FC0
01FC3F0F80
07FC3E0F80
0E7C3E0F80
1CFC3E1F80
38F83E1F80
78F87E1F00
70F87C1F00
F0F87C1F00
F1F87C3F00
71F0FC3E00
71F0F83E00
31F0F83E00
03F0F83E00
03E0F87E00
03E1F87C00
03E1F07C00
03E1F07C00
07E1F07C00
07C1F0FC00
07C3F0F800
07C3E0F800
07C3E0F800
0FC3E1F800
0FFFFFF000
0FFFFFF000
0FFFFFF000
ENDCHAR
STARTCHAR uni0429
ENCODING 1065
SWIDTH 934 0
DWIDTH 34 0
BBX 34 33 0 -6
BITMAP
003E1F0FC0
01FC3F0F80
07FC3E0F80
0E7C3E0F80
1CFC3E1F80
38F83E1F00
78F87E1F00
70F87C1F00
F0F87C1F00
F1F87C3F00
71F0FC3E00
71F0F83E00
31F0F83E00
03F0F83E00
03E0F87E00
03E1F87C00
03E1F07C00
03E1F07C00
07E1F07C00
07C1F0F800
07C3F0F800
07C3E0F800
07C3E0F800
0FC3E1F800
0FF3E1F000
0FFFE1F000
0FFFF9F000
001FFFF000
0001FFFFC0
00003FFFC0
000007FFC0
000001FF80
0000001F00
ENDCHAR
STARTCHAR uni042A
ENCODING 1066
SWIDTH 714 0
DWIDTH 26 0
BBX 24 28 0 -1
BITMAP
007F80
03FF80
0FFF80
1E1F80
381F00
381F00
701F00
703F00
703E00
F03E00
F03E00
703E00
787FFC
187FFE
007C3F
007C1F
00FC1F
00FC1F
00F81F
00F81F
00F81F
01F81F
01F01F
01F43E
01F7FC
01F7FC
03F3F0
000080
ENDCHAR
STARTCHAR uni042B
ENCODING 1067
SWIDTH 909 0
DWIDTH 33 0
BBX 34 28 0 -1
BITMAP
003E000FC0
01FC000F80
07FC000F80
0E7C000F80
1CFC000F80
38F8001F80
78F8001F00
70F8001F00
70F8001F00
F1F8001F00
F1F0003F00
71F0003E00
71FFE03E00
03FFF03E00
03F1F87E00
03E0F87C00
03E07C7C00
03E07C7C00
07E07C7C00
07C07CFC00
07C07CF800
07C0F8F800
07C0F8F800
0FE1F0F800
0FBFF1F800
0FBFE1F000
0F9FC1F000
0006000000
ENDCHAR
STARTCHAR uni042C
ENCODING 1068
SWIDTH 640 0
DWIDTH 23 0
BBX 22 28 0 -1
BITMAP
003E00
01FC00
07FC00
0E7C00
1CFC00
38F800
78F800
70F800
70F800
F1F800
F1F000
71F000
71FFE0
03FFF0
03F1F8
03E0F8
03E07C
03E07C
07E07C
07C07C
07C07C
07C0F8
07C0F8
0FE1F0
0FBFF0
0FBFE0
0F9FC0
000600
ENDCHAR
STARTCHAR uni042D
ENCODING 1069
SWIDTH 544 0
DWIDTH 20 0
BBX 19 28 0 -1
BITMAP
00FE00
03FF80
07FFC0
0E1FC0
180FE0
1007E0
2007E0
0007E0
0007E0
0007E0
0007E0
03FFE0
07FFE0
0007E0
0007E0
000FC0
000FC0
000FC0
001F80
601F80
F01F00
E03F00
E03E00
E07C00
E0F800
F3F000
3FE000
040000
ENDCHAR
STARTCHAR uni042E
ENCODING 1070
SWIDTH 946 0
DWIDTH 34 0
BBX 34 27 0 0
BITMAP
003E03F800
01FC0FFE00
07FC1C3F00
0E7C100F00
1CFC278F80
38F81F0780
78F83E07C0
70F83E07C0
F0F87C07C0
F1F8FC07C0
71F0F807C0
71FFF807C0
31FFF80780
03FFF00F80
03E1F00F80
03E3F00F80
03E3F00F80
03E3F01F00
07E3E01F00
07C3E03E00
07C3E03E00
07C3E07C00
07C3F0F800
0FC1F1F000
0F81FFE000
0F80FFC000
0F803F0000
ENDCHAR
STARTCHAR uni042F
ENCODING 1071
SWIDTH 630 0
DWIDTH 23 0
BBX 27 28 -2 -1
BITMAP
0003FC00
001FFF00
007E07C0
00F803C0
01E0F9E0
01E0F9E0
03C1F8E0
03C1F0E0
03C1F180
03C1F000
03C3F000
01E3E000
00FBE000
00FFE000
03FFE000
07E7E000
07C7C000
0F87C000
0F87C000
0F87C000
0F0FC000
1F0F8000
1F0F8000
1F0F8000
1E1F8000
3E1F0000
FE1F0000
18000000
ENDCHAR
STARTCHAR uni0430
ENCODING 1072
SWIDTH 526 0
DWIDTH 19 0
BBX 20 18 0 0
BITMAP
03EF80
0FFF80
1F9F80
3F1F80
3E1F00
7C1F00
7C1F00
FC1F00
F83F00
F83E00
F83E00
F83E00
F87E10
F87E30
F8FE60
FFBFC0
7F3F80
3E1F00
ENDCHAR
STARTCHAR uni0431
ENCODING 1073
SWIDTH 430 0
DWIDTH 15 0
BBX 20 27 0 0
BITMAP
000030
01FFF0
03FFE0
03FFE0
03FFC0
03FF80
01C000
00E000
007000
003000
03F800
0FF800
1FBC00
3E1C00
7E1C00
7C1C00
FC1C00
F81C00
F83C00
F83800
F83800
F87800
F87000
F8E000
FFE000
7FC000
1F0000
ENDCHAR
STARTCHAR uni0432
ENCODING 1074
SWIDTH 449 0
DWIDTH 16 0
BBX 21 27 -1 0
BITMAP
003C00
00FE00
01E600
03C700
03C700
078700
078600
0F8600
0F0600
1F0E00
1F0C00
3E0C00
3E1808
3E7838
7EFFE0
7EFF80
7C7E00
7C0E00
7C0E00
7C0E00
FC0E00
7C1C00
7C1C00
7E3800
7FF000
3FE000
0FC000
ENDCHAR
STARTCHAR uni0433
ENCODING 1075
SWIDTH 375 0
DWIDTH 14 0
BBX 16 18 -1 0
BITMAP
03E0
0FF0
1FF8
39F8
30F8
60F8
41F8
03F0
07E0
1F80
3F00
7E03
FC02
FC0C
FC18
FFF0
7FE0
1F80
ENDCHAR
STARTCHAR uni0434
ENCODING 1076
SWIDTH 507 0
DWIDTH 18 0
BBX 20 27 0 -9
BITMAP
03EF80
0FFF80
1F9F80
3F1F80
3E1F00
7C1F00
7C1F00
FC1F00
F83E00
F83E00
F83E00
F83E00
F87E30
F87C20
F8FC60
FFFCC0
7F7F80
3EFF00
01F800
07F800
0EF800
18F800
39F000
31F000
3BE000
1FE000
0F8000
ENDCHAR
STARTCHAR uni0435
ENCODING 1077
SWIDTH 384 0
DWIDTH 14 0
BBX 15 18 0 0
BITMAP
03F0
0FF8
1FB8
3F38
3E38
7C38
7C78
FCF0
F9E0
FFC0
FF00
F800
F806
F80C
FC38
FFF0
7FE0
3F00
ENDCHAR
STARTCHAR uni0436
ENCODING 1078
SWIDTH 882 0
DWIDTH 32 0
BBX 34 18 -1 0
BITMAP
0F80F83E00
1FE1F0FF00
31F1F1F700
31F1F1E700
60F1F3C700
00F1E3C000
00F3E7C000
00FFFF8000
00FFFF8000
01F3E78000
01E3CF8000
61E7CF8040
E1E7CF80C0
E3C7CF8080
E3C7C78100
E78F87C600
FF0F83FC00
7C0F81F000
ENDCHAR
STARTCHAR uni0437
ENCODING 1079
SWIDTH 498 0
DWIDTH 18 0
BBX 19 27 0 -9
BITMAP
01F000
07FC00
0FFE00
1C7E00
383E00
303E00
203E00
603E00
603E00
407C00
C07C00
C0F800
01F020
0FE060
0FE060
01F0C0
01F180
00FF00
00FC00
03F800
0FF800
1DF800
31F000
31F000
33E000
3FC000
0F8000
ENDCHAR
STARTCHAR uni0438
ENCODING 1080
SWIDTH 505 0
DWIDTH 18 0
BBX 20 18 0 0
BITMAP
3F1F80
3E1F00
3E1F00
3E1F00
7E3F00
7C3E00
7C3E00
7C3E00
7C3E00
FC7E00
F87C00
F87C30
F8FC20
F8FC60
FFFFC0
FF7FC0
FE7F80
7C3E00
ENDCHAR
STARTCHAR uni0439
ENCODING 1081
SWIDTH 505 0
DWIDTH 18 0
BBX 20 25 0 0
BITMAP
020180
078300
0F8700
078E00
07FC00
03F000
000000
3F1F80
3E1F00
3E1F00
3E1F00
7E3F00
7C3E00
7C3E00
7C3E00
7C3E00
FC7E00
F87C00
F87C30
F8FC20
F8FC60
FFFFC0
FF7FC0
FE7F80
7C3E00
ENDCHAR
STARTCHAR uni043A
ENCODING 1082
SWIDTH 501 0
DWIDTH 18 0
BBX 21 18 -1 0
BITMAP
1F83C0
1F07C0
1F0FC0
1F1BC0
1F3180
3F6000
3EE000
3FFC00
3FFE00
7F3E00
7C3E00
7C3E08
7C3E10
7C3E30
FC3E60
F83FE0
F83FC0
F81F00
ENDCHAR
STARTCHAR uni043B
ENCODING 1083
SWIDTH 558 0
DWIDTH 20 0
BBX 23 18 -1 0
BITMAP
000FE0
003FE0
0073E0
0063E0
00E3C0
00C7C0
00C7C0
00C7C0
0187C0
018F80
018F80
018F82
E18F84
F30F8C
F30F98
C70FF8
FE0FF0
3C07C0
ENDCHAR
STARTCHAR uni043C
ENCODING 1084
SWIDTH 827 0
DWIDTH 30 0
BBX 32 18 -1 0
BITMAP
000F01F8
003F01F8
007F03F8
007F03F0
00FF07F0
00CF07F0
00CF0DF0
00CF0DF0
018F1BE0
018F1BE0
018F33E0
018F33E0
E18F63C3
F30F67C2
E30FC7E6
C70FC3FC
FE0F83F8
3C0F81F0
ENDCHAR
STARTCHAR uni043D
ENCODING 1085
SWIDTH 507 0
DWIDTH 18 0
BBX 21 18 -1 0
BITMAP
1F87C0
1F0F80
1F0F80
1F0F80
3F0F80
3E1F00
3E1F00
3FFF00
3FFF00
7E1F00
7C3E00
7C3E08
7C3E10
7C3E30
FC3E20
F83FE0
F81FC0
F80F00
ENDCHAR
STARTCHAR uni043E
ENCODING 1086
SWIDTH 439 0
DWIDTH 16 0
BBX 21 18 -1 0
BITMAP
01F800
07FC00
0FDC00
1F8E00
1F0E18
3E1E70
3E1FC0
7E0E00
7C0E00
7C1E00
7C1C00
7C1C00
FC3C00
7C3800
7C7800
7FF000
3FE000
1F8000
ENDCHAR
STARTCHAR uni043F
ENCODING 1087
SWIDTH 505 0
DWIDTH 18 0
BBX 21 18 -1 0
BITMAP
1FBE00
1F7F00
1FFF00
1F9F00
3F1F00
3F1F00
3E1F00
3E1F00
3E1F00
7E1F00
7C3E00
7C3E00
7C3E18
7C3E30
FC3E20
F83FE0
F83FC0
F80F00
ENDCHAR
STARTCHAR uni0440
ENCODING 1088
SWIDTH 468 0
DWIDTH 17 0
BBX 19 28 -3 -9
BITMAP
03E000
07EF80
07FFC0
07E7C0
07C3E0
07C3E0
0F83E0
0F83E0
0F83E0
0F83E0
1F87E0
1F07C0
1F07C0
1F0FC0
1F0F80
3F1F80
3FFF00
3FFE00
3EF800
7E0000
7C0000
7C0000
7C0000
7C0000
FC0000
F80000
F80000
800000
ENDCHAR
STARTCHAR uni0441
ENCODING 1089
SWIDTH 384 0
DWIDTH 14 0
BBX 15 18 0 0
BITMAP
03F0
0FF8
1FB8
3F38
3E38
7C30
7C00
FC00
F800
F800
F800
F800
F806
F80C
FC38
FFF0
7FC0
3F00
ENDCHAR
STARTCHAR uni0442
ENCODING 1090
SWIDTH 752 0
DWIDTH 27 0
BBX 30 18 -1 0
BITMAP
1FBE1F00
1F7F7F80
1FFF7F80
1F9FCF80
3F1F8F80
3F1F0F80
3E1F0F80
3E1F0F80
3E1F0F80
7E3F1F00
7C3E1F00
7C3E1F04
7C3E1F08
7C7E1F18
FC7C1F30
F87C1FF0
F87C1FE0
F87C0780
ENDCHAR
STARTCHAR uni0443
ENCODING 1091
SWIDTH 486 0
DWIDTH 18 0
BBX 19 27 0 -9
BITMAP
3F1F80
3E1F00
3E1F00
3E1F00
7E3F00
7C3E00
7C3E00
7C3E00
7C7E00
FC7C00
F87C00
F87C60
F8FC60
F8FC40
FFF8C0
FFF980
FEFF00
7CFE00
03F800
0FF000
1DF000
31F000
33F000
33E000
3FE000
3FC000
1F0000
ENDCHAR
STARTCHAR uni0444
ENCODING 1092
SWIDTH 738 0
DWIDTH 27 0
BBX 26 34 -1 -9
BITMAP
00006000
0003E000
0003E000
0003E000
0003C000
0007C000
0007C000
01F7DF00
07FFFF80
0FCFCFC0
1F8F87C0
1F0F87C0
3E0F87C0
3E0F07C0
7E1F07C0
7C1F07C0
7C1F07C0
7C1F0FC0
7C1E0F80
FC3E0F80
7C3E1F00
7C7E3F00
7FFFFE00
3FBFFC00
1F7DF000
007C0000
007C0000
00780000
00F80000
00F80000
00F80000
00F80000
00F00000
01000000
ENDCHAR
STARTCHAR uni0445
ENCODING 1093
SWIDTH 522 0
DWIDTH 19 0
BBX 20 20 0 0
BITMAP
000380
0003C0
03C3C0
07E3C0
0FF0C0
19F1C0
11F180
30FB00
20FE00
60FE00
40FC00
40F800
C0F800
C1F800
037810
067C30
0E7C60
1C3FC0
383F80
701E00
ENDCHAR
STARTCHAR uni0446
ENCODING 1094
SWIDTH 535 0
DWIDTH 19 0
BBX 17 26 0 -8
BITMAP
3F1F80
3E1F00
3E1F00
3E1F00
7E3F00
7C3E00
7C3E00
7C3E00
7C3E00
FC7E00
F87C00
F87C00
F8FC00
F8FC00
FFFE00
FF7F80
FE7F80
7C3D80
000180
000300
03FF00
07FE00
0FFE00
0FFC00
1FF800
100000
ENDCHAR
STARTCHAR uni0447
ENCODING 1095
SWIDTH 505 0
DWIDTH 18 0
BBX 19 18 1 0
BITMAP
7E3F00
7C3E00
7C3E00
7C3E00
FC7E00
F87C00
F87C00
F8FC00
FDFC00
FFF800
7FF800
3CF860
00F840
00F8C0
00FF80
00FF00
00FE00
007C00
ENDCHAR
STARTCHAR uni0448
ENCODING 1096
SWIDTH 752 0
DWIDTH 27 0
BBX 29 18 0 0
BITMAP
3F1F8F80
3E1F0F80
3E1F0F80
3E1F1F80
7E3F1F00
7C3E1F00
7C3E1F00
7C3E1F00
7C3E3F00
FC7E3E00
F87C3E00
F87C3E18
F8FC7E10
F8FC7E30
FFFFFFE0
FF7FBFE0
FE7F3F80
7C3E1F00
ENDCHAR
STARTCHAR uni0449
ENCODING 1097
SWIDTH 782 0
DWIDTH 28 0
BBX 26 26 0 -8
BITMAP
3F1F8F80
3E1F0F80
3E1F0F80
3E1F1F80
7E3F1F00
7C3E1F00
7C3E1F00
7C3E1F00
7C3E3F00
FC7E3E00
F87C3E00
F87C3E00
F8FC7E00
F8FC7E00
FFFFFF00
FF7FBFC0
FE7F3FC0
7C3E1EC0
00000080
00000180
0003FF80
0007FF00
000FFF00
000FFE00
000FFC00
00180000
ENDCHAR
STARTCHAR uni044A
ENCODING 1098
SWIDTH 448 0
DWIDTH 16 0
BBX 15 18 0 0
BITMAP
3FC0
7F80
F380
F700
E600
0EF8
1FFC
3E7C
7C3E
7C3E
F83E
F83C
F87C
F87C
F8F8
FFF0
7FE0
3F00
ENDCHAR
STARTCHAR uni044B
ENCODING 1099
SWIDTH 655 0
DWIDTH 24 0
BBX 25 18 0 0
BITMAP
3E001C00
3E007C00
3E01F800
3E03F800
7C0FF800
7DFCF800
7DF0F800
7DF9F000
7C39F000
F839F000
F839F000
F839E000
F87BE180
F873E100
F8F3E300
FFE3FE00
7FC1FC00
3F00F800
ENDCHAR
STARTCHAR uni044C
ENCODING 1100
SWIDTH 448 0
DWIDTH 16 0
BBX 15 18 0 0
BITMAP
3F00
3E00
3E00
3E00
3E00
7FF0
7FFC
7FFC
7C3E
FC3E
F83E
F83C
F87C
F87C
F8F8
FFF0
7FE0
3F80
ENDCHAR
STARTCHAR uni044D
ENCODING 1101
SWIDTH 413 0
DWIDTH 15 0
BBX 15 18 -2 0
BITMAP
03F0
07FC
0FFE
187E
303E
003E
003E
03FE
07FE
003E
007C
707C
E07C
E0F8
E0F0
E1E0
7FC0
3F00
ENDCHAR
STARTCHAR uni044E
ENCODING 1102
SWIDTH 675 0
DWIDTH 24 0
BBX 30 18 -1 0
BITMAP
1F80F800
1F03FC00
1F07CE00
1F0F8E00
3F1F0E0C
3E1F1FF8
3E3F1FE0
3FFE0E00
3FFE0E00
7E7E0E00
7C7C0E00
7C7C1E00
7C7C1C00
7C7C3C00
FC7E7800
F83FF000
F83FE000
F80F8000
ENDCHAR
STARTCHAR uni044F
ENCODING 1103
SWIDTH 527 0
DWIDTH 19 0
BBX 21 18 -1 0
BITMAP
00FFC0
03FFC0
07C7C0
0F87C0
0F0F80
1F0F80
1F0F80
1F0F80
0F8F80
0FFF00
07FF00
019F00
E39F08
F39F18
E31F30
E71FF0
FE1FE0
7C0F80
ENDCHAR
STARTCHAR uni0450
ENCODING 1104
SWIDTH 384 0
DWIDTH 14 0
BBX 15 27 0 0
BITMAP
0780
0380
03C0
01C0
01C0
00C0
00C0
0000
0000
03F0
0FF8
1FB8
3F38
3E38
7C38
7C78
FCF0
F9E0
FFC0
FF00
F800
F806
F80C
FC38
FFF0
7FE0
3F00
ENDCHAR
STARTCHAR uni0451
ENCODING 1105
SWIDTH 384 0
DWIDTH 14 0
BBX 15 24 0 0
BITMAP
070E
0F9E
0F9E
070E
0000
0000
03F0
0FF8
1FB8
3F38
3E38
7C38
7C78
FCF0
F9E0
FFC0
FF00
F800
F806
F80C
FC38
FFF0
7FE0
3F00
ENDCHAR
STARTCHAR uni0452
ENCODING 1106
SWIDTH 491 0
DWIDTH 18 0
BBX 20 33 -1 -9
BITMAP
07C000
07C000
0FC000
0F8000
0F8000
3FFC00
3FF800
5F8000
1F0000
1F3C00
1FFE00
3FFF00
3F1F00
3E1F00
3E1F00
3E1F00
7C3E00
7C3E00
7C3E30
7C3E30
FC7C60
F87CC0
F87F80
F87F00
00F800
03F800
0EF800
1CF800
18F000
19F000
19F000
1FE000
0F8000
ENDCHAR
STARTCHAR uni0453
ENCODING 1107
SWIDTH 375 0
DWIDTH 14 0
BBX 16 27 -1 0
BITMAP
000F
001E
001C
0038
0038
0070
0060
0000
0000
03E0
0FF0
1FF8
39F8
30F8
60F8
41F8
03F0
07E0
1F80
3F00
7E03
FC02
FC0C
FC18
FFF0
7FE0
1F80
ENDCHAR
STARTCHAR uni0454
ENCODING 1108
SWIDTH 384 0
DWIDTH 14 0
BBX 15 18 0 0
BITMAP
03F0
0FF8
1F38
3E38
3E38
7C10
7C00
FFC0
FFC0
F800
F800
F802
F804
F80C
FC38
FFF0
7FC0
3F00
ENDCHAR
STARTCHAR uni0455
ENCODING 1109
SWIDTH 382 0
DWIDTH 14 0
BBX 16 19 -1 0
BITMAP
00F0
03F0
03F0
07F0
07F0
0FF0
0DF0
09F0
19F0
11F0
31F0
71F0
F1F1
F1F6
C1FC
C3F8
FFE0
7FC0
1F00
ENDCHAR
STARTCHAR uni0456
ENCODING 1110
SWIDTH 267 0
DWIDTH 10 0
BBX 11 25 0 0
BITMAP
0F00
0F00
1F80
1F80
0F80
0F00
0000
3F00
3E00
3E00
3E00
7E00
7C00
7C00
7C00
7C00
FC00
F800
F820
F860
F8C0
FDC0
FF80
FF00
7C00
ENDCHAR
STARTCHAR uni0457
ENCODING 1111
SWIDTH 267 0
DWIDTH 10 0
BBX 11 25 0 0
BITMAP
70E0
79E0
79E0
70E0
0000
0000
0000
3F00
3E00
3E00
3E00
7E00
7C00
7C00
7C00
7C00
FC00
F800
F820
F860
F8C0
FDC0
FF80
FF00
7C00
ENDCHAR
STARTCHAR uni0458
ENCODING 1112
SWIDTH 240 0
DWIDTH 9 0
BBX 17 34 -7 -9
BITMAP
001C00
003E00
003F00
003F00
003E00
001C00
000000
007E00
007C00
007C00
007C00
007C00
00FC00
00F800
00F800
00F800
01F800
01F800
01F000
01F180
01F180
03F100
03E200
03E600
03F800
07E000
3FE000
7FC000
E7C000
C7C000
CF8000
CF8000
FF0000
7C0000
ENDCHAR
STARTCHAR uni0459
ENCODING 1113
SWIDTH 745 0
DWIDTH 27 0
BBX 26 18 -1 0
BITMAP
000FE000
003FE000
007BE000
0063E000
00E3C000
00C7DF00
00C7FF80
01C7FFC0
01C7C7C0
018F83C0
018F83C0
618F87C0
F38F87C0
F30F8F80
E30F9F80
E70FFF00
FE07FE00
7C03F800
ENDCHAR
STARTCHAR uni045A
ENCODING 1114
SWIDTH 694 0
DWIDTH 25 0
BBX 25 18 -1 0
BITMAP
1F87C000
1F0F8000
1F0F8000
1F0F8000
3F0F8000
3E1F7C00
3E1FFF00
3FFFFF00
3FFF1F00
7E1F0F80
7C3E0F80
7C3E0F00
7C3E1F00
7C3E1E00
FC3E3E00
F83FFC00
F81FF800
F807E000
ENDCHAR
STARTCHAR uni045B
ENCODING 1115
SWIDTH 505 0
DWIDTH 18 0
BBX 21 25 -1 0
BITMAP
07C000
07C000
0FC000
0F8000
0F8000
3FFC00
3FF800
5F8000
1F0000
1F0000
1F3C00
1FFE00
3FFF00
3F1F00
3E1F00
3E1F00
7E1F00
7C3E00
7C3E00
7C3E18
7C3E30
FC3E20
F83FE0
F83FC0
F80F00
ENDCHAR
STARTCHAR uni045C
ENCODING 1116
SWIDTH 501 0
DWIDTH 18 0
BBX 21 27 -1 0
BITMAP
000780
000700
000F00
000E00
001C00
001800
003800
000000
000000
1F83C0
1F07C0
1F0FC0
1F1BC0
1F3180
3F6000
3EE000
3FFC00
3FFE00
7F3E00
7C3E00
7C3E08
7C3E10
7C3E30
FC3E60
F83FE0
F83FC0
F81F00
ENDCHAR
STARTCHAR uni045D
ENCODING 1117
SWIDTH 505 0
DWIDTH 18 0
BBX 20 27 0 0
BITMAP
03C000
01C000
01C000
00E000
00E000
00E000
006000
000000
000000
3F1F80
3E1F00
3E1F00
3E1F00
7E3F00
7C3E00
7C3E00
7C3E00
7C3E00
FC7E00
F87C00
F87C30
F8FC20
F8FC60
FFFFC0
FF7FC0
FE7F80
7C3E00
ENDCHAR
STARTCHAR uni045E
ENCODING 1118
SWIDTH 486 0
DWIDTH 18 0
BBX 19 34 0 -9
BITMAP
020180
078300
0F8700
0F0E00
07FC00
03F000
000000
3F1F80
3E1F00
3E1F00
3E1F00
7E3F00
7C3E00
7C3E00
7C3E00
7C7E00
FC7C00
F87C00
F87C60
F8FC60
F8FC40
FFF8C0
FFF980
FEFF00
7CFE00
03F800
0FF000
1DF000
31F000
33F000
33E000
3FE000
3FC000
1F0000
ENDCHAR
STARTCHAR uni045F
ENCODING 1119
SWIDTH 505 0
DWIDTH 18 0
BBX 20 27 0 -9
BITMAP
3F1F80
3E1F00
3E1F00
3E1F00
7E3F00
7C3E00
7C3E00
7C3E00
7C3E00
FC7E00
F87C00
F87C30
F8FC20
F8FC60
FFFFC0
FF7FC0
FE7F80
7C3E00
018000
038000
03C000
07C000
03C000
03C000
01C000
018000
010000
ENDCHAR
STARTCHAR uni0462
ENCODING 1122
SWIDTH 659 0
DWIDTH 24 0
BBX 22 28 0 -1
BITMAP
007C00
007C00
00FC00
00F800
00F800
0FFFFC
3FFFFC
7FFFFC
79FFF0
F1F000
F1F000
F1F000
F3FFC0
73FFF0
03E1F0
03E0F8
07E0F8
07C0F8
07C0F8
07C0F8
07C0F8
0FC0F8
0F81F0
0FA1F0
0FBFE0
1FBFC0
1F1F80
000400
ENDCHAR
STARTCHAR uni0463
ENCODING 1123
SWIDTH 692 0
DWIDTH 25 0
BBX 24 18 -1 0
BITMAP
1FBE00
1F7F00
1FFF00
1F9F00
3F1F00
3F1F7C
3E1FFE
3E1F1F
3E1F0F
7E1E0F
7C3E0F
7C3E1F
7C3E1F
7C3E3E
FC3E3E
F83FFC
F81FF8
F80FE0
ENDCHAR
STARTCHAR uni046A
ENCODING 1130
SWIDTH 834 0
DWIDTH 30 0
BBX 28 28 1 -1
BITMAP
003FFFF0
01FFFFE0
03FF00C0
0F3F0180
1E3F0180
3C1F8300
381F8700
781F8600
780FCC00
700FDC00
700FD800
7007F000
387FFF80
03FFFFC0
07E7E7E0
07C7C3E0
0F87C3E0
0F87C3E0
0F87C3E0
0F0FC3C0
1F0F87C0
1F0F87C0
1F0F87C0
1F1F8F80
3E1F0F80
3E1F0F80
FC1F07E0
18000100
ENDCHAR
STARTCHAR uni046B
ENCODING 1131
SWIDTH 750 0
DWIDTH 27 0
BBX 23 19 1 -1
BITMAP
01FFFC
0FFC18
1C7C30
387C70
387E60
387EC0
383FC0
383F80
03FFF8
0FFFFC
0F1E3E
1F3E3C
1E3E3C
1E3E7C
1E3C7C
3E7C78
3E7C78
7C7C7C
900020
ENDCHAR
STARTCHAR uni0472
ENCODING 1138
SWIDTH 665 0
DWIDTH 24 0
BBX 23 27 1 0
BITMAP
003FC0
01FFF0
07C1F8
1F0A78
3C7C7C
78F83C
F1F03C
F3E03E
E3E03E
E7C03E
E7C03E
EFC03C
6F9C7C
0FFFFC
0F8F7C
1F807C
1F00F8
1F00F8
1F01F8
1F01F0
1F03F0
1F03E0
1F87C0
1F8F80
0FFF00
07FE00
03F800
ENDCHAR
STARTCHAR uni0473
ENCODING 1139
SWIDTH 439 0
DWIDTH 16 0
BBX 21 18 -1 0
BITMAP
01F800
07FC00
0FDC00
1F8E00
1F1E18
3E1EF0
3E1FC0
7E0E00
7DCE00
7FFE00
7CFC00
7C1C00
FC3C00
7C3800
7C7000
7FF000
3FE000
1F8000
ENDCHAR
STARTCHAR uni0474
ENCODING 1140
SWIDTH 668 0
DWIDTH 24 0
BBX 27 27 0 0
BITMAP
007C03E0
01FC07C0
07FC0F80
0E7C0F00
3C7C1E00
387C1E00
707C3C00
707C3C00
F07C3800
F07C7800
F07C7000
707C7000
307C7000
007CE000
007CE000
007EC000
007EC000
007EC000
007F8000
007F8000
007F8000
007F0000
007F0000
007F0000
007E0000
007E0000
007E0000
ENDCHAR
STARTCHAR uni0475
ENCODING 1141
SWIDTH 414 0
DWIDTH 15 0
BBX 14 18 0 0
BITMAP
3F1C
3E3C
3E3C
3E3C
7E0C
7C0C
7C0C
7C0C
7C1C
FC18
F818
F838
F870
F860
F8E0
FFC0
FF80
3E00
ENDCHAR
STARTCHAR uni0490
ENCODING 1168
SWIDTH 431 0
DWIDTH 16 0
BBX 23 31 0 0
BITMAP
000004
000006
000006
00000E
00FFFE
07FFFE
0FFFFC
3CFBF8
38F800
70F800
70F800
71F800
F1F000
F1F000
71F000
71F000
13F000
03E000
03E000
03E000
03E000
07C000
07C000
07C000
07C000
0FC000
0F8000
0F8000
0F8000
0F8000
1F8000
ENDCHAR
STARTCHAR uni0491
ENCODING 1169
SWIDTH 342 0
DWIDTH 12 0
BBX 15 21 -1 0
BITMAP
0008
001E
000E
1FFC
1FF8
1F00
1F00
3F00
3E00
3E00
3E00
3E00
7E00
7C00
7C00
7C00
7C00
FC00
F800
F800
F800
ENDCHAR
STARTCHAR uni0492
ENCODING 1170
SWIDTH 400 0
DWIDTH 14 0
BBX 23 27 0 0
BITMAP
00FFFE
07FFFE
0FFFFC
1C7DF8
38FC00
78F800
78F800
70F800
F0F800
F1F800
71F000
71F000
31F000
09F000
03F000
1FFE00
1FFE00
03E000
03E000
07E000
07C000
07C000
07C000
0FC000
0F8000
0F8000
0F8000
ENDCHAR
STARTCHAR uni0493
ENCODING 1171
SWIDTH 375 0
DWIDTH 14 0
BBX 16 18 -1 0
BITMAP
03E0
0FF8
1FF8
38F8
60F8
60F8
41F8
03F0
FFFC
FFFC
3F00
7E01
FC02
FC0C
FC18
FFF0
7FE0
1F80
ENDCHAR
STARTCHAR uni0494
ENCODING 1172
SWIDTH 665 0
DWIDTH 24 0
BBX 23 28 0 -1
BITMAP
00FFFE
07FFFE
0FFFFC
1C7DF8
38FC00
78F800
78F800
70F800
F0F800
F1F800
71F000
71F7E0
31FFF0
0BF9F8
03F07C
03E07C
03E07C
03E07C
07E07C
07C07C
07C07C
07C07C
07C0F8
0FC0F8
0FA1F0
0FBFE0
0FBFC0
001F80
ENDCHAR
STARTCHAR uni0495
ENCODING 1173
SWIDTH 486 0
DWIDTH 18 0
BBX 20 27 -1 -9
BITMAP
1FFF80
1FFF80
1FFF00
1F3E00
1F0000
3F0000
3E0000
3E7800
3FFE00
7FFE00
7E3E00
7C3E00
7C3E30
7C3E30
FC7C60
F87CC0
F87D80
F87F00
00FC00
03F800
0EF800
1CF800
18F000
19F000
19E000
1FE000
0F8000
ENDCHAR
STARTCHAR uni0496
ENCODING 1174
SWIDTH 777 0
DWIDTH 28 0
BBX 32 38 -2 -11
BITMAP
01E00C1E
03F0FC7F
07F0F8FF
07F8F8FF
03B8F9CE
0019FB80
0019F380
001DF700
001DF700
001DF600
001BFE00
001BEC00
00FFFF80
03FFFFC0
07E3E7E0
07C7E3E0
0F87C3E0
0F87C3E0
0F87C3E0
0F8FC3E0
0F0FC7C0
1F0F87C0
1F0F87C0
1F0F8780
1F1F8F80
3E1F0F80
FE1F07E0
18000300
00000E00
00000F00
00000F00
00000F80
00000FC0
000007C0
000003C0
000003C0
00000380
00000300
ENDCHAR
STARTCHAR uni0497
ENCODING 1175
SWIDTH 882 0
DWIDTH 32 0
BBX 34 26 -1 -8
BITMAP
0F80F83E00
1FE1F0FF00
31F1F1F700
31F1F1E700
60F1F3C700
00F1E3C000
00F3E7C000
00FFFF8000
00FFFF8000
01F3E78000
01E3CF8000
61E7CF8040
E1E7CF80C0
E3C7CF8180
E3C7C78300
E78F87FE00
FF0F83FC00
3C0F81F000
0000004000
000000E000
000001F000
000001F000
000001F000
000000F000
0000006000
0000004000
ENDCHAR
STARTCHAR uni0498
ENCODING 1176
SWIDTH 525 0
DWIDTH 19 0
BBX 18 38 0 -11
BITMAP
00FE00
03FF00
071F80
0C0FC0
080FC0
180FC0
080FC0
000F80
001F80
001F00
007E00
03FC00
03FC00
007E00
003F00
001F80
001F80
001F80
001F80
301F80
F81F80
F01F00
E03F00
E03E00
F07C00
FFF800
3FE000
070000
070000
078000
078000
07C000
07E000
03E000
01E000
01C000
018000
010000
ENDCHAR
STARTCHAR uni0499
ENCODING 1177
SWIDTH 498 0
DWIDTH 18 0
BBX 19 36 0 -18
BITMAP
01F000
07FC00
0FFE00
1C7E00
383E00
303E00
203E00
603E00
603E00
407C00
C07C00
C0F800
01F020
0FE060
0FE040
01F0C0
01F180
00FF00
00FC00
03F800
0EF800
19F800
31F000
33F000
3FE000
3FC000
0F8000
040000
0C0000
1E0000
1F0000
1F0000
0F0000
0E0000
040000
0C0000
ENDCHAR
STARTCHAR uni049A
ENCODING 1178
SWIDTH 635 0
DWIDTH 23 0
BBX 25 38 0 -11
BITMAP
003E0E00
01FC3F00
07FC7F80
0E7CFF00
1CFCE700
38F9C000
78FB8000
70FB0000
70FF0000
F1FE0000
F1FE0000
71FC0000
31FFC000
03FFE000
03E1F000
03E1F000
03E1F000
03E1F000
07E1E000
07C3E000
07C3E000
07C3E000
07C3C000
0FC7C000
0F87C000
0F87C000
0F87E000
00038000
00078000
00078000
0007C000
0007E000
0003E000
0001E000
0001E000
0000E000
0000C000
00010000
ENDCHAR
STARTCHAR uni049B
ENCODING 1179
SWIDTH 501 0
DWIDTH 18 0
BBX 21 26 -1 -8
BITMAP
1F83C0
1F07C0
1F0FC0
1F1BC0
1F3180
3F6000
3EE000
3FFC00
3FFE00
7F3E00
7C3E00
7C3E08
7C3E10
7C3E30
FC3E60
F83FE0
F83FC0
F81F00
000400
000E00
001E00
001F00
001F00
000F00
000E00
000C00
ENDCHAR
STARTCHAR uni049C
ENCODING 1180
SWIDTH 721 0
DWIDTH 26 0
BBX 28 28 0 -1
BITMAP
003E01E0
01FC07E0
07FC0FF0
0E7C1FE0
1CFC1CE0
38F83800
78F87000
70F96000
F0FAE000
F1FAC000
71F78000
71FFC000
31FFF800
03FFF800
03E4F800
03EC7800
03EC7800
03E0F800
07E0F800
07C0F800
07C0F800
07C1F000
07C1F000
0FC1F000
0F81F000
0F81F000
0F81F800
00004000
ENDCHAR
STARTCHAR uni049D
ENCODING 1181
SWIDTH 551 0
DWIDTH 20 0
BBX 22 19 -1 -1
BITMAP
1F80F0
1F03F0
1F06F0
1F4C70
1FD800
3FF000
3EEE00
3EFF00
3EFF80
7F8F80
7F8F80
7F8F80
7D0F0C
7F1F0C
FC1FF8
F80FF8
F80FF0
F807E0
000100
ENDCHAR
STARTCHAR uni04A0
ENCODING 1184
SWIDTH 691 0
DWIDTH 25 0
BBX 27 28 0 -1
BITMAP
00FF8380
07FF0FC0
0FFF1FE0
1E1F3FC0
3C3F39C0
783E7000
703EE000
F03EC000
F03FC000
F07F8000
F07F8000
F07F0000
707FF000
10FFF800
00FCFC00
00F87C00
00F87C00
00F87C00
01F87800
01F8F800
01F0F800
01F0F800
01F0F000
03F1F000
03E1F000
03E1F000
03E1F800
00004000
ENDCHAR
STARTCHAR uni04A1
ENCODING 1185
SWIDTH 676 0
DWIDTH 24 0
BBX 26 18 0 0
BITMAP
07FC1E00
1FFC3E00
7CFC7F00
F0F8FE00
F0F9CE00
F0FB8000
E1FF0000
E1F7E000
F1FFF000
21FFF000
01F1F000
03F1F000
03E1F0C0
03E1F080
03E1F180
07E1FF00
07C0FE00
07C07C00
ENDCHAR
STARTCHAR uni04A2
ENCODING 1186
SWIDTH 665 0
DWIDTH 24 0
BBX 26 33 0 -6
BITMAP
003E0F80
01FC1F80
07FC1F00
0E7C1F00
1CFC1F00
38F81F00
78F83F00
70F83E00
F0F83E00
F1F83E00
71F03E00
71FFFE00
31FFFC00
03FFFC00
03E07C00
03E07C00
03E0F800
03E0F800
07E0F800
07C0F800
07C1F800
07C1F000
07C1F000
0FC1F000
0F81F000
0F83F000
0F83F800
00007C00
00003FC0
00003F80
00001F80
00001F00
00000E00
ENDCHAR
STARTCHAR uni04A3
ENCODING 1187
SWIDTH 507 0
DWIDTH 18 0
BBX 21 26 -1 -8
BITMAP
1F87C0
1F0F80
1F0F80
1F0F80
3F0F80
3E1F00
3E1F00
3FFF00
3FFF00
7E1F00
7C3E00
7C3E08
7C3E10
7C3E30
FC3E20
F83FE0
F83FC0
F81F80
000400
000E00
001F00
001F00
001F00
000F00
000600
000400
ENDCHAR
STARTCHAR uni04A4
ENCODING 1188
SWIDTH 689 0
DWIDTH 25 0
BBX 33 27 0 0
BITMAP
003E0FFF80
01FC1FFF80
077C1FFF80
0E7C1F3F00
1CFC1F0000
38F81F0000
78F83F0000
70F83E0000
F1F83E0000
F1F83E0000
71F03E0000
71FFFE0000
31FFFC0000
03FFFC0000
03E07C0000
03E07C0000
03E0F80000
03E0F80000
07E0F80000
07C0F80000
07C1F80000
07C1F00000
07C1F00000
0FC1F00000
0F81F00000
0F83F00000
0F83E00000
ENDCHAR
STARTCHAR uni04A5
ENCODING 1189
SWIDTH 681 0
DWIDTH 25 0
BBX 26 18 -1 0
BITMAP
1F87FFC0
1F0FFFC0
1F0FFFC0
1F0F9F80
3F0F8000
3E1F0000
3E1F0000
3FFF0000
3FFF0000
7E1F0000
7C3E0000
7C3E0800
7C3E1000
7C3E3000
FC3E2000
F83FE000
F81FC000
F80F0000
ENDCHAR
STARTCHAR uni04AA
ENCODING 1194
SWIDTH 497 0
DWIDTH 18 0
BBX 18 38 1 -11
BITMAP
007E00
01FF80
03F3C0
07C1C0
0FC1C0
1F81C0
1F01C0
3F03C0
3F0000
7E0000
7E0000
7E0000
FC0000
FC0000
FC0000
FC0000
FC0000
FC0000
FC0000
FC0000
FC0000
FC00C0
FC0180
FE0700
7FFE00
3FFC00
1FF000
038000
078000
078000
07C000
07E000
03E000
01E000
01E000
00C000
00C000
010000
ENDCHAR
STARTCHAR uni04AB
ENCODING 1195
SWIDTH 384 0
DWIDTH 14 0
BBX 15 26 0 -8
BITMAP
03F0
0FF8
1FB8
3F38
3E38
7C38
7C00
FC00
F800
F800
F800
F800
F806
F80C
F838
FFF0
7FE0
3F80
0C00
1C00
1E00
1F00
1F00
0F00
0E00
0C00
ENDCHAR
STARTCHAR uni04AE
ENCODING 1198
SWIDTH 620 0
DWIDTH 22 0
BBX 25 27 0 0
BITMAP
007C0180
01FE0300
07FE0300
0E7E0700
3C7E0600
383F0E00
703F0C00
703F0C00
F03F1800
F01F9800
F01FB800
701FB000
300FB000
000FE000
000FE000
000FC000
000FC000
000FC000
000FC000
000F8000
001F8000
001F8000
001F8000
001F8000
001F0000
003F0000
003F0000
ENDCHAR
STARTCHAR uni04AF
ENCODING 1199
SWIDTH 480 0
DWIDTH 17 0
BBX 14 27 2 -9
BITMAP
F838
F83C
F83C
F83C
F80C
FC0C
7C0C
7C08
7C18
7C18
7C30
7C20
7C60
7CC0
7CC0
7D80
7F00
3E00
3E00
7E00
7C00
7C00
7C00
7C00
FC00
F800
F000
ENDCHAR
STARTCHAR uni04B0
ENCODING 1200
SWIDTH 620 0
DWIDTH 22 0
BBX 25 27 0 0
BITMAP
007C0180
01FE0300
07FE0300
0E7E0700
3C7E0600
383F0E00
703F0C00
703F0C00
F03F1800
F01F9800
F01FB800
701FB000
300FB000
000FE000
000FE000
000FC000
007FF800
007FF800
000FC000
000F8000
001F8000
001F8000
001F8000
001F8000
001F0000
003F0000
003F0000
ENDCHAR
STARTCHAR uni04B1
ENCODING 1201
SWIDTH 480 0
DWIDTH 17 0
BBX 16 27 0 -9
BITMAP
3E0E
3E0F
3E0F
3E0F
3E03
3F03
1F03
1F02
1F06
1F06
1F0C
1F08
1F18
1F30
1F30
1F60
1FC0
0F80
FFF0
FFF0
1F00
1F00
1F00
1F00
3F00
3E00
3C00
ENDCHAR
STARTCHAR uni04B6
ENCODING 1206
SWIDTH 695 0
DWIDTH 25 0
BBX 27 33 0 -6
BITMAP
003E07C0
01FC07C0
07FC0FC0
0E7C0F80
1CFC0F80
38F80F80
78F80F80
70F81F00
71F81F00
F1F81F00
F1F01F00
71F01F00
31F83E00
00F87E00
00FFFE00
003F3E00
00007E00
00007C00
00007C00
00007C00
0000FC00
0000F800
0000F800
0000F800
0000F800
0001F800
0001FC00
00003E00
00001FE0
00001FC0
00000FC0
00000F80
00000700
ENDCHAR
STARTCHAR uni04B7
ENCODING 1207
SWIDTH 505 0
DWIDTH 18 0
BBX 19 26 1 -8
BITMAP
7E3F00
7C3E00
7C3E00
7C3E00
FC7E00
F87C00
F87C00
F8FC00
FDFC00
FFF800
7FF800
3CF860
00F840
00F8C0
00FF80
00FF00
00FE00
007800
003000
003800
007800
007C00
007C00
003C00
003800
003000
ENDCHAR
STARTCHAR uni04B8
ENCODING 1208
SWIDTH 715 0
DWIDTH 26 0
BBX 27 27 0 0
BITMAP
003E07E0
01FC07C0
07FC07C0
0E7C07C0
1CFC07C0
38F80FC0
78F80F80
70F80F80
F1F80F80
F1F80F80
71F01F80
71F19F00
31F91F00
00FDFF00
007FFF00
003FBF00
00023E00
00023E00
00063E00
00007E00
00007C00
00007C00
00007C00
00007C00
0000FC00
0000F800
0000F800
ENDCHAR
STARTCHAR uni04B9
ENCODING 1209
SWIDTH 545 0
DWIDTH 20 0
BBX 20 18 1 0
BITMAP
7E0F80
7C1F80
7C1F00
7C1F00
FC1F00
F99F00
F9BF00
F93E00
FFFE00
FFFE00
7FFE00
3F7C30
027C30
067C60
067FE0
007FC0
003F80
001E00
ENDCHAR
STARTCHAR uni04BA
ENCODING 1210
SWIDTH 679 0
DWIDTH 24 0
BBX 22 27 0 0
BITMAP
003E00
01FC00
07FC00
0E7C00
1CFC00
38F800
78F800
70F800
F0F800
F1F800
71F000
71F7F0
09FFF8
03F0FC
03E07C
03E07C
03E07C
03E07C
07E07C
07C07C
07C07C
07C0FC
07C0F8
0FC0F8
0F80F8
0F81F8
0F81F0
ENDCHAR
STARTCHAR uni04BB
ENCODING 1211
SWIDTH 505 0
DWIDTH 18 0
BBX 21 25 -1 0
BITMAP
01C000
07C000
0FC000
0F8000
0F8000
0F8000
0F8000
1FBE00
1F7F00
1FFF00
1F9F00
1F1F00
3F1F00
3E1F00
3E1F00
3E1F00
7E1F00
7C3E00
7C3E00
7C3E18
7C3E30
FC3E20
F83FE0
F83FC0
F80F00
ENDCHAR
STARTCHAR uni04C0
ENCODING 1216
SWIDTH 375 0
DWIDTH 14 0
BBX 14 27 0 0
BITMAP
007C
01FC
07FC
0EFC
3CF8
38F8
70F8
70F8
F1F8
F1F0
F1F0
71F0
33F0
03E0
03E0
03E0
03E0
07E0
07C0
07C0
07C0
07C0
0FC0
0F80
0F80
0F80
1F80
ENDCHAR
STARTCHAR uni04C1
ENCODING 1217
SWIDTH 777 0
DWIDTH 28 0
BBX 32 35 -2 -1
BITMAP
00008040
0003E0C0
0003E180
0003C700
0003FE00
0000FC00
00000000
01E00C1E
03F0FC7F
07F0F8FF
07F8F8FF
03B8F9CE
0019FB80
0019F380
001DF700
001DF700
001DF600
001BFE00
001BEC00
00FFFF80
03FFFFC0
07E3E7E0
07C7E3E0
0F87C3E0
0F87C3E0
0F87C3E0
0F8FC3E0
0F0FC7C0
1F0F87C0
1F0F87C0
1F0F8780
1F1F8F80
3E1F0F80
FE1F07E0
18000100
ENDCHAR
STARTCHAR uni04C2
ENCODING 1218
SWIDTH 882 0
DWIDTH 32 0
BBX 34 25 -1 0
BITMAP
0001018000
0007818000
0007C30000
00078E0000
0007FC0000
0001F00000
0000000000
0F80F83E00
1FE1F0FF00
31F1F1F700
31F1F1E700
60F1F3C700
00F1E3C000
00F3E7C000
00FFFF8000
00FFFF8000
01F3E78000
01E3CF8000
61E7CF8040
E1E7CF80C0
E3C7CF8080
E3C7C78100
E78F87C600
FF0F83FC00
7C0F81F000
ENDCHAR
STARTCHAR uni04CB
ENCODING 1227
SWIDTH 695 0
DWIDTH 25 0
BBX 26 31 0 -4
BITMAP
007E07C0
01FC07C0
07FC0FC0
0E7C0F80
1CFC0F80
38F80F80
78F81F80
70F81F00
F1F81F00
F1F81F00
71F01F00
71F03F00
01F83E00
00FFFE00
00FFFE00
003F3E00
00007E00
00007C00
00007C00
00007C00
00007C00
0000F800
0000F800
0000F800
0000F800
0001F800
010FF000
01FF0000
01FE0000
01FC0000
00F00000
ENDCHAR
STARTCHAR uni04CC
ENCODING 1228
SWIDTH 516 0
DWIDTH 19 0
BBX 19 25 1 -7
BITMAP
3E1F00
7E3F00
7C3E00
7C3E00
7C3E00
7C3E00
FC7C00
FC7C00
FDFC00
FFFC00
7FFC00
3EF860
00F840
00F8C0
00FF80
00FF80
007E00
001800
003000
1FF000
3FF000
7FE000
7FC000
FF8000
C00000
ENDCHAR
STARTCHAR uni04CF
ENCODING 1231
SWIDTH 267 0
DWIDTH 10 0
BBX 11 25 0 0
BITMAP
0380
0F80
1F80
1F00
1F00
1F00
1F00
3F00
3E00
3E00
3E00
3E00
7C00
7C00
7C00
7C00
FC00
F800
F820
F860
F8C0
FFC0
FF80
FF00
7C00
ENDCHAR
STARTCHAR uni04D0
ENCODING 1232
SWIDTH 668 0
DWIDTH 24 0
BBX 29 38 0 -4
BITMAP
00001008
00007818
00007C30
000078E0
00007FC0
00001F80
00000000
00000F80
00003F80
0000FF80
0001DF00
00039F00
00071F00
00073F00
000E3E00
001C3E00
003C3E00
00383E00
0FF87E00
3FFFFC00
78F1FC00
F1E07C00
F9E07C00
73C0FC00
03C0F800
07C0F800
0780F800
0781F800
0F81F000
0F01F000
0F01F000
1F01F000
1F03F000
1F03E000
1F000000
1E000000
0E000000
07000000
ENDCHAR
STARTCHAR uni04D1
ENCODING 1233
SWIDTH 526 0
DWIDTH 19 0
BBX 20 25 0 0
BITMAP
008060
01E0C0
03E180
03C780
01FF00
00FC00
000000
03EF80
0FFF80
1F9F80
3F1F80
3E1F00
7C1F00
7C1F00
FC1F00
F83F00
F83E00
F83E00
F83E00
F87E10
F87E30
F8FE60
FFBFC0
7F3F80
3E1F00
ENDCHAR
STARTCHAR uni04D2
ENCODING 1234
SWIDTH 668 0
DWIDTH 24 0
BBX 29 37 0 -4
BITMAP
00003870
00003CF0
00003CF8
00003870
00000000
00000000
00000F80
00003F80
0000FF80
0001DF00
00039F00
00071F00
00073F00
000E3E00
001C3E00
003C3E00
00383E00
0FF87E00
3FFFFC00
78F1FC00
F1E07C00
F9E07C00
73C0FC00
03C0F800
07C0F800
0780F800
0781F800
0F81F000
0F01F000
0F01F000
1F01F000
1F03F000
1F03E000
1F000000
1E000000
0E000000
07000000
ENDCHAR
STARTCHAR uni04D3
ENCODING 1235
SWIDTH 526 0
DWIDTH 19 0
BBX 20 24 0 0
BITMAP
00E380
01E7C0
01E7C0
00E380
000000
000000
03EF80
0FFF80
1F9F80
3F1F80
3E1F00
7C1F00
7C1F00
FC1F00
F83F00
F83E00
F83E00
F83E00
F87E10
F87E30
F8FE60
FFBFC0
7F3F80
3E1F00
ENDCHAR
STARTCHAR uni04D4
ENCODING 1236
SWIDTH 764 0
DWIDTH 28 0
BBX 33 31 0 -4
BITMAP
00000F8080
00003FFF00
0000FFFF00
0001DF3E00
00039F0000
00071F0000
00073F0000
000E3E0000
001C3E0000
003C3E0000
00383E0000
0FFC7E0000
3FFFFFF000
78F1FFF000
F1E07FE000
F9E07C0000
73C0F80000
03C0F80000
07C0F80000
0780F80000
0781F80000
0F81F00000
0F01F00000
0F01FFF000
1F01FFF000
1F03FFF000
1F03FFE000
1E00000000
1E00000000
0E00000000
0700000000
ENDCHAR
STARTCHAR uni04D5
ENCODING 1237
SWIDTH 650 0
DWIDTH 23 0
BBX 25 18 0 0
BITMAP
03F0F800
0FFFFC00
1C7FCE00
103F8E00
003F0E00
003F0C00
003E1C00
003E3800
1FFEF800
7FFFE000
FC7F8000
F87C0000
F87C0180
F8FE0200
F8FE0E00
FFBFFC00
7F3FF000
3E0FC000
ENDCHAR
STARTCHAR uni04D6
ENCODING 1238
SWIDTH 459 0
DWIDTH 17 0
BBX 20 35 0 -1
BITMAP
002030
00F020
00F060
00F1C0
00FF80
007E00
000000
003E00
00FF80
01F380
03E1C0
03C1C0
07C1C0
078380
078780
078000
07C000
07C000
03E000
03F800
0FC000
1F8000
3F0000
3F0000
7E0000
7E0000
FE0000
FE0000
FE0080
FE0180
7E0300
7FFE00
3FFC00
1FF000
020000
ENDCHAR
STARTCHAR uni04D7
ENCODING 1239
SWIDTH 384 0
DWIDTH 14 0
BBX 16 25 0 0
BITMAP
0203
0F02
0F06
0F1C
0FF8
07E0
0000
03F0
0FF8
1FB8
3F38
3E38
7C38
7C78
FCF0
F9E0
FFC0
FF00
F800
F806
F80C
FC38
FFF0
7FE0
3F00
ENDCHAR
STARTCHAR uni04D8
ENCODING 1240
SWIDTH 544 0
DWIDTH 20 0
BBX 18 27 1 0
BITMAP
03F800
0FFE00
1FFF00
1FFF80
3C1F80
180FC0
100FC0
000FC0
0007C0
0007C0
000FC0
000FC0
00FFC0
03FFC0
0FCFC0
1F0F80
3E1F80
7C1F80
781F00
F83F00
F03E00
F07C00
F07C00
F0F800
F9F000
7FC000
1F0000
ENDCHAR
STARTCHAR uni04D9
ENCODING 1241
SWIDTH 404 0
DWIDTH 15 0
BBX 14 18 0 0
BITMAP
0FE0
1FF0
3FF8
30F8
20FC
007C
00FC
03FC
0FFC
3EF8
78F8
71F8
E1F0
E1F0
E3E0
E7C0
7F80
3E00
ENDCHAR
STARTCHAR uni04DC
ENCODING 1244
SWIDTH 777 0
DWIDTH 28 0
BBX 32 34 -2 -1
BITMAP
0001C380
0001E780
0001E7C0
0001C380
00000000
00000000
01E00C1E
03F0FC7F
07F0F8FF
07F8F8FF
03B8F9CE
0019FB80
0019F380
001DF700
001DF700
001DF600
001BFE00
001BEC00
00FFFF80
03FFFFC0
07E3E7E0
07C7E3E0
0F87C3E0
0F87C3E0
0F87C3E0
0F8FC3E0
0F0FC7C0
1F0F87C0
1F0F87C0
1F0F8780
1F1F8F80
3E1F0F80
FE1F07E0
18000100
ENDCHAR
STARTCHAR uni04DD
ENCODING 1245
SWIDTH 882 0
DWIDTH 32 0
BBX 34 24 -1 0
BITMAP
0003870000
0003CF0000
0003CF8000
0003870000
0000000000
0000000000
0F80F83E00
1FE1F0FF00
31F1F1F700
31F1F1E700
60F1F3C700
00F1E3C000
00F3E7C000
00FFFF8000
00FFFF8000
01F3E78000
01E3CF8000
61E7CF8040
E1E7CF80C0
E3C7CF8080
E3C7C78100
E78F87C600
FF0F83FC00
7C0F81F000
ENDCHAR
STARTCHAR uni04DE
ENCODING 1246
SWIDTH 525 0
DWIDTH 19 0
BBX 19 34 0 -1
BITMAP
0061C0
00F3E0
00F3E0
00E1C0
000000
000000
00FE00
03FF00
071F80
0C0FC0
080FC0
180FC0
080FC0
000F80
001F80
001F00
007E00
03FC00
03FC00
007E00
003F00
001F80
001F80
001F80
001F80
301F80
F81F80
F01F00
E03F00
E03E00
F07C00
FFF800
3FE000
020000
ENDCHAR
STARTCHAR uni04DF
ENCODING 1247
SWIDTH 498 0
DWIDTH 18 0
BBX 19 33 0 -9
BITMAP
038600
07CF00
07CF00
038600
000000
000000
01F000
07FC00
0FFE00
1C7E00
383E00
303E00
203E00
603E00
603E00
407C00
C07C00
C0F800
01F020
0FE060
0FE060
01F0C0
01F180
00FF00
00FC00
03F800
0FF800
1DF800
31F000
31F000
33E000
3FC000
0F8000
ENDCHAR
STARTCHAR uni04E2
ENCODING 1250
SWIDTH 705 0
DWIDTH 25 0
BBX 26 32 0 0
BITMAP
0007FF80
0007FF00
00000000
00000000
00000000
003E07C0
01FC0FC0
07FC0FC0
0E7C1FC0
1CFC1F80
38F83F80
78F83F80
70F87F80
F0F8FF80
F1F8FF00
71F1DF00
71F1DF00
31F39F00
03F3BF00
03E73E00
03E63E00
03EE3E00
03FC3E00
07FC7E00
07F87C00
07F87C00
07F07C00
07E0FC00
0FE0F800
0FC0F800
0FC0F800
0F80F800
ENDCHAR
STARTCHAR uni04E3
ENCODING 1251
SWIDTH 505 0
DWIDTH 18 0
BBX 20 23 0 0
BITMAP
07FF80
07FF00
080000
000000
000000
3F1F80
3E1F00
3E1F00
3E1F00
7E3F00
7C3E00
7C3E00
7C3E00
7C3E00
FC7E00
F87C00
F87C30
F8FC20
F8FC60
FFFFC0
FF7FC0
FE7F80
7C3E00
ENDCHAR
STARTCHAR uni04E4
ENCODING 1252
SWIDTH 705 0
DWIDTH 25 0
BBX 26 33 0 0
BITMAP
00038E00
00078F00
0007CF00
00038E00
00000000
00000000
003E07C0
01FC0FC0
07FC0FC0
0E7C1FC0
1CFC1F80
38F83F80
78F83F80
70F87F80
F0F8FF80
F1F8FF00
71F1DF00
71F1DF00
31F39F00
03F3BF00
03E73E00
03E63E00
03EE3E00
03FC3E00
07FC7E00
07F87C00
07F87C00
07F07C00
07E0FC00
0FE0F800
0FC0F800
0FC0F800
0F80F800
ENDCHAR
STARTCHAR uni04E5
ENCODING 1253
SWIDTH 505 0
DWIDTH 18 0
BBX 20 24 0 0
BITMAP
038E00
078F00
07CF00
038E00
000000
000000
3F1F80
3E1F00
3E1F00
3E1F00
7E3F00
7C3E00
7C3E00
7C3E00
7C3E00
FC7E00
F87C00
F87C30
F8FC20
F8FC60
FFFFC0
FF7FC0
FE7F80
7C3E00
ENDCHAR
STARTCHAR uni04E6
ENCODING 1254
SWIDTH 665 0
DWIDTH 24 0
BBX 23 33 1 0
BITMAP
000E1C
000F3C
001F3C
000E1C
000000
000000
003FC0
01FFF0
07C1F8
1F0278
3C7C7C
78F83C
71F03C
F1F03E
E3E03E
E7E03E
E7C03E
E7C03C
6FC07C
0F807C
0F807C
1F807C
1F80F8
1F00F8
1F00F8
1F01F0
1F01F0
1F03E0
1F87C0
1F8F80
0FFF00
07FE00
03F800
ENDCHAR
STARTCHAR uni04E7
ENCODING 1255
SWIDTH 439 0
DWIDTH 16 0
BBX 21 24 -1 0
BITMAP
01C380
03E780
03E780
01C380
000000
000000
01F800
07FC00
0FDC00
1F8E00
1F0E18
3E1E70
3E1FC0
7E0E00
7C0E00
7C1E00
7C1C00
7C1C00
FC3C00
7C3800
7C7800
7FF000
3FE000
1F8000
ENDCHAR
STARTCHAR uni04E8
ENCODING 1256
SWIDTH 665 0
DWIDTH 24 0
BBX 23 27 1 0
BITMAP
003FC0
01FFF0
07C1F8
1F0278
3C7C7C
78F83C
71F03C
F1F03E
E3E03E
E7E03E
E7C03E
E7C03C
6FC07C
0FFFFC
0FFFFC
1F807C
1F80F8
1F00F8
1F00F8
1F01F0
1F01F0
1F03E0
1F87C0
1F8F80
0FFF00
07FE00
03F800
ENDCHAR
STARTCHAR uni04E9
ENCODING 1257
SWIDTH 439 0
DWIDTH 16 0
BBX 21 18 -1 0
BITMAP
01F800
07FC00
0FDC00
1F8E00
1F0E18
3E1E70
3E1FC0
7E0E00
7FFE00
7FFE00
7C1C00
7C1C00
FC3C00
7C3800
7C7800
7FF000
3FE000
1F8000
ENDCHAR
STARTCHAR uni04EE
ENCODING 1262
SWIDTH 644 0
DWIDTH 23 0
BBX 26 32 0 0
BITMAP
0007FF80
0007FF80
00000000
00000000
00000000
003E01C0
01FE0180
07FE0380
0E7E0300
1C3F0700
383F0600
783F0600
701F0E00
F01F0C00
F01F9C00
701F9800
700F9800
300FB000
000FF000
000FF000
0007E000
0007E000
0007C000
0007C000
00038000
00038000
00038000
00E30000
00F70000
01FE0000
00FC0000
00F80000
ENDCHAR
STARTCHAR uni04EF
ENCODING 1263
SWIDTH 486 0
DWIDTH 18 0
BBX 19 32 0 -9
BITMAP
07FF80
0FFF00
000000
000000
000000
3F1F80
3E1F00
3E1F00
3E1F00
7E3F00
7C3E00
7C3E00
7C3E00
7C7E00
FC7C00
F87C00
F87C60
F8FC60
F8FC40
FFF8C0
FFF980
FEFF00
7CFE00
03F800
0FF000
1DF000
31F000
33F000
33E000
3FE000
3FC000
1F0000
ENDCHAR
STARTCHAR uni04F0
ENCODING 1264
SWIDTH 644 0
DWIDTH 23 0
BBX 26 33 0 0
BITMAP
00038700
0003CF00
0003CF80
00038700
00000000
00000000
003E01C0
01FE0180
07FE0380
0E7E0300
1C3F0700
383F0600
783F0600
701F0E00
F01F0C00
F01F9C00
701F9800
700F9800
300FB000
000FF000
000FF000
0007E000
0007E000
0007C000
0007C000
00038000
00038000
00038000
00E30000
00F70000
01FE0000
00FC0000
00F80000
ENDCHAR
STARTCHAR uni04F1
ENCODING 1265
SWIDTH 486 0
DWIDTH 18 0
BBX 19 33 0 -9
BITMAP
038E00
078F00
07CF00
038E00
000000
000000
3F1F80
3E1F00
3E1F00
3E1F00
7E3F00
7C3E00
7C3E00
7C3E00
7C7E00
FC7C00
F87C00
F87C60
F8FC60
F8FC40
FFF8C0
FFF980
FEFF00
7CFE00
03F800
0FF000
1DF000
31F000
33F000
33E000
3FE000
3FC000
1F0000
ENDCHAR
STARTCHAR uni04F2
ENCODING 1266
SWIDTH 644 0
DWIDTH 23 0
BBX 27 36 0 0
BITMAP
000079E0
0000F3C0
0000E380
0000C700
0001C700
00018E00
00030C00
00000000
00000000
003E01C0
01FE0180
07FE0380
0E7E0300
1C3F0700
383F0600
783F0600
701F0E00
F01F0C00
F01F9C00
701F9800
700F9800
300FB000
000FF000
000FF000
0007E000
0007E000
0007C000
0007C000
00038000
00038000
00038000
00E30000
00F70000
01FE0000
00FC0000
00F80000
ENDCHAR
STARTCHAR uni04F3
ENCODING 1267
SWIDTH 486 0
DWIDTH 18 0
BBX 19 36 0 -9
BITMAP
00F3C0
00E380
01E700
01C700
018E00
030C00
071C00
000000
000000
3F1F80
3E1F00
3E1F00
3E1F00
7E3F00
7C3E00
7C3E00
7C3E00
7C7E00
FC7C00
F87C00
F87C60
F8FC60
F8FC40
FFF8C0
FFF980
FEFF00
7CFE00
03F800
0FF000
1DF000
31F000
33F000
33E000
3FE000
3FC000
1F0000
ENDCHAR
STARTCHAR uni04F4
ENCODING 1268
SWIDTH 695 0
DWIDTH 25 0
BBX 26 33 0 0
BITMAP
00038600
0007CF00
0007CF00
00038E00
00000000
00000000
003E07C0
01FC07C0
07FC0FC0
0E7C0F80
1CFC0F80
38F80F80
78F80F80
70F81F00
71F81F00
F1F81F00
F1F01F00
71F01F00
31F83E00
00F87E00
00FFFE00
003F3E00
00007E00
00007C00
00007C00
00007C00
0000FC00
0000FC00
0000F800
0000F800
0000F800
0001F800
0001F000
ENDCHAR
STARTCHAR uni04F5
ENCODING 1269
SWIDTH 505 0
DWIDTH 18 0
BBX 19 24 1 0
BITMAP
071C00
0F3E00
0F3E00
071C00
000000
000000
7E3F00
7C3E00
7C3E00
7C3E00
FC7E00
F87C00
F87C00
F8FC00
FDFC00
FFF800
7FF800
3CF860
00F840
00F8C0
00FF80
00FF00
00FE00
007C00
ENDCHAR
STARTCHAR uni04F6
ENCODING 1270
SWIDTH 442 0
DWIDTH 16 0
BBX 23 33 0 -6
BITMAP
00FFFE
07FFFE
0FFFFC
3C7DF8
38FC00
78F800
70F800
70F800
F0F800
F1F800
71F000
71F000
09F000
03F000
03E000
03E000
03E000
03E000
07E000
07C000
07C000
07C000
07C000
0FC000
0F8000
0F8000
0FC000
01F000
01FE00
00FE00
00FE00
007C00
003800
ENDCHAR
STARTCHAR uni04F7
ENCODING 1271
SWIDTH 375 0
DWIDTH 14 0
BBX 16 27 -1 -9
BITMAP
03E0
0FF0
1FF8
39F8
30F8
60F8
41F8
03F0
07E0
1FC0
3F00
7E03
FC02
FC0C
FC18
FFF0
7FE0
1F80
0400
0E00
1E00
1F00
1F00
0F00
0600
0400
0400
ENDCHAR
STARTCHAR uni04F8
ENCODING 1272
SWIDTH 909 0
DWIDTH 33 0
BBX 34 34 0 -1
BITMAP
000038E000
00007CF000
00007CF000
000038E000
0000000000
0000000000
003E000FC0
01FC000F80
07FC000F80
0E7C000F80
1CFC000F80
38F8001F80
78F8001F00
70F8001F00
70F8001F00
F1F8001F00
F1F0003F00
71F0003E00
71FFE03E00
03FFF03E00
03F1F87E00
03E0F87C00
03E07C7C00
03E07C7C00
07E07C7C00
07C07CFC00
07C07CF800
07C0F8F800
07C0F8F800
0FE1F0F800
0FBFF1F800
0FBFE1F000
0F9FC1F000
0006000000
ENDCHAR
STARTCHAR uni04F9
ENCODING 1273
SWIDTH 642 0
DWIDTH 23 0
BBX 25 24 0 0
BITMAP
00408000
00F3C000
00F3C000
00F3C000
00000000
00000000
3E001800
3E007800
3E00F800
3E03F800
3C0FF800
7CFCF000
7DF1F000
7DF1F000
7C39F000
F839F000
F839E000
F83BE080
F873E100
F873E300
F8E3E200
FFE3FE00
7FC1FC00
3F00F000
ENDCHAR
STARTCHAR uni051A
ENCODING 1306
SWIDTH 665 0
DWIDTH 24 0
BBX 23 31 1 -4
BITMAP
003FC0
01FFF0
07C1F8
1F0278
3C7C7C
78F83C
71F03C
F1E03E
E3E03E
E7E03E
E7C03E
EFC03C
6F807C
0F807C
0F807C
1F807C
1F80F8
1F00F8
1F01F8
1F01F0
1F03F0
1FFBE0
1FBFC0
1F8F80
0FFF00
07FF00
03FF80
0007C0
0007F8
0003F0
0001E0
ENDCHAR
STARTCHAR uni051B
ENCODING 1307
SWIDTH 486 0
DWIDTH 18 0
BBX 17 27 0 -9
BITMAP
03EF80
0FFF80
1F9F80
3F1F80
3E1F00
7C1F00
7C1F00
FC3F00
F83E00
F83E00
F83E00
F83E00
F87E00
F87C00
F8FC00
FFFC00
7FFC00
3EF800
00F800
00F800
00F800
01F800
01F000
01F000
01F000
01E000
020000
ENDCHAR
STARTCHAR uni051C
ENCODING 1308
SWIDTH 962 0
DWIDTH 35 0
BBX 37 27 0 0
BITMAP
007C03E038
01FC03E038
07FC07E030
0E7C07E070
3C7C07E070
387C0FE060
707C0FE0E0
707C0FE0C0
F07C1FE0C0
F07C1BE1C0
F07C1BE180
707C3BE180
307C33E380
007C33E300
007C63E300
007E63E600
007E63E600
007EC3E600
007EC3EC00
007EC3EC00
007F83EC00
007F83F800
007F03F800
007F03F000
007F03F000
007E03F000
007E03E000
ENDCHAR
STARTCHAR uni051D
ENCODING 1309
SWIDTH 661 0
DWIDTH 24 0
BBX 23 18 0 0
BITMAP
3F1F9C
3E1F1E
3E1F1E
3E1F1E
7E3F06
7C3E06
7C3E06
7C3E06
7C3E0C
FC7E0C
F87C1C
F87C18
F87C38
F8FC30
F9FC70
FFFFE0
FF7FC0
7C3F00
ENDCHAR
STARTCHAR uni0524
ENCODING 1316
SWIDTH 742 0
DWIDTH 27 0
BBX 28 33 0 -6
BITMAP
00FFC010
07FFFFF0
0FFFFFF0
1FFFFFE0
3CFC1FC0
78F81F00
78F81F00
70F83F00
F0F83E00
F1F83E00
71F03E00
71F07E00
31F07C00
01F07C00
03F07C00
03E07C00
03E0FC00
03E0F800
07E0F800
07C0F800
07C1F800
07C1F000
07C1F000
0FC1F000
0F81F000
0F83F000
0F83F000
00007C40
00003F80
00003F80
00001F80
00001F00
00000E00
ENDCHAR
STARTCHAR uni0525
ENCODING 1317
SWIDTH 505 0
DWIDTH 18 0
BBX 21 27 -1 -9
BITMAP
1FBE00
1F7F00
1FFF00
1F9F00
3F1F00
3F1F00
3E1F00
3E1F00
3E1F00
7E1E00
7C3E00
7C3E18
7C3E10
7C3E30
FC3FE0
F83FE0
F83FC0
F81F00
000400
000E00
001E00
001F00
001F00
000F00
000600
000400
000400
ENDCHAR
STARTCHAR uni1E0C
ENCODING 7692
SWIDTH 663 0
DWIDTH 24 0
BBX 23 35 0 -8
BITMAP
003F80
01FFE0
07C1F8
0F0078
3C7C7C
38F83C
78F83E
70F83E
F1F83E
F1F03E
F1F03E
71F03E
71F03E
03F03E
03E03E
03E03E
03E07C
07E07C
07C07C
07C0F8
07C0F8
07C1F8
0FC1F0
0F83E0
0FFFE0
0FFFC0
1FBF00
000400
000000
00E000
01F000
01F000
01F000
01F000
00E000
ENDCHAR
STARTCHAR uni1E0D
ENCODING 7693
SWIDTH 525 0
DWIDTH 19 0
BBX 20 33 0 -8
BITMAP
0000E0
0007E0
0007C0
0007C0
0007C0
000FC0
000F80
03EF80
0FFF80
1F9F80
3F1F80
3E1F00
7C1F00
7C1F00
FC1F00
F83F00
F83E00
F83E00
F83E00
F87E10
F87E30
F8FE60
FFBFC0
7F3F80
3E1F00
000000
000000
0F0000
0F8000
1F8000
1F8000
0F8000
0F0000
ENDCHAR
STARTCHAR uni1E20
ENCODING 7712
SWIDTH 578 0
DWIDTH 21 0
BBX 19 39 1 -7
BITMAP
00FFE0
01FFE0
000000
000000
000000
007F00
01FFC0
07F1E0
0FC0E0
1F80E0
3F00E0
3F01E0
7E03E0
7C00C0
FC0000
FC0000
FC0000
F803E0
F803C0
F803C0
F807C0
F807C0
FC0FC0
FC0F80
7E3F80
7FFF80
3FEF80
0F8F00
001F00
001F00
0F9F00
3F9E00
3FBE00
383E00
783C00
387C00
3CF800
1FF000
0FC000
ENDCHAR
STARTCHAR uni1E21
ENCODING 7713
SWIDTH 507 0
DWIDTH 18 0
BBX 20 33 0 -9
BITMAP
03FF80
07FF80
000000
000000
000000
000000
03EF80
0FFF80
1F9F80
3F1F80
3E1F00
7C1F00
7C1F00
FC1F00
F83E00
F83E00
F83E00
F83E00
F87E30
F87C20
F8FC60
FFFCC0
7F7F80
3EFF00
01F800
07F800
0EF800
18F800
39F000
31F000
3BE000
1FE000
0F8000
ENDCHAR
STARTCHAR uni1E24
ENCODING 7716
SWIDTH 665 0
DWIDTH 24 0
BBX 25 35 0 -8
BITMAP
003E0F80
01FC1F80
07FC1F00
0E7C1F00
1CFC1F00
38F81F00
78F83F00
70F83E00
F0F83E00
F1F83E00
71F03E00
71FFFE00
31FFFC00
03FFFC00
03E07C00
03E07C00
03E0FC00
03E0F800
07E0F800
07C0F800
07C1F800
07C1F000
07C1F000
0FC1F000
0F81F000
0F83F000
0F83E000
00000000
00000000
00700000
00F80000
00F80000
00F80000
00F80000
00700000
ENDCHAR
STARTCHAR uni1E25
ENCODING 7717
SWIDTH 505 0
DWIDTH 18 0
BBX 21 33 -1 -8
BITMAP
01C000
07C000
0FC000
0F8000
0F8000
0F8000
0F8000
1FBE00
1F7F00
1FFF00
1F9F00
1F1F00
3F1F00
3E1F00
3E1F00
3E1F00
7E1F00
7C3E00
7C3E00
7C3E18
7C3E30
FC3E20
F83FE0
F83FC0
F80F00
000000
000000
070000
0F8000
0FC000
0FC000
0F8000
070000
ENDCHAR
STARTCHAR uni1E2A
ENCODING 7722
SWIDTH 665 0
DWIDTH 24 0
BBX 25 34 0 -7
BITMAP
003E0F80
01FC1F80
07FC1F00
0E7C1F00
1CFC1F00
38F81F00
78F83F00
70F83E00
F0F83E00
F1F83E00
71F03E00
71FFFE00
31FFFC00
03FFFC00
03E07C00
03E07C00
03E0FC00
03E0F800
07E0F800
07C0F800
07C1F800
07C1F000
07C1F000
0FC1F000
0F81F000
0F83F000
0F83E000
00000000
00000000
07038000
07038000
07870000
03FE0000
01F80000
ENDCHAR
STARTCHAR uni1E2B
ENCODING 7723
SWIDTH 505 0
DWIDTH 18 0
BBX 21 32 -1 -7
BITMAP
01C000
07C000
0FC000
0F8000
0F8000
0F8000
0F8000
1FBE00
1F7F00
1FFF00
1F9F00
1F1F00
3F1F00
3E1F00
3E1F00
3E1F00
7E1F00
7C3E00
7C3E00
7C3E18
7C3E30
FC3E20
F83FE0
F83FC0
F80F00
000000
000000
703800
703800
787000
3FE000
1F8000
ENDCHAR
STARTCHAR uni1E36
ENCODING 7734
SWIDTH 379 0
DWIDTH 14 0
BBX 24 36 0 -9
BITMAP
007C00
01FC00
07FC00
0EFC00
3CF800
38F800
70F800
70F800
F1F800
F1F000
F1F000
71F000
33F000
03E000
03E000
03E000
03E000
07E000
07C000
07C000
07C000
07C000
0F8000
0F8000
0F8000
0F8000
1FC000
1FF000
00FC00
003F00
0E1FC0
1F0FFF
1F07FE
3F01FE
1F00FE
0E003C
ENDCHAR
STARTCHAR uni1E37
ENCODING 7735
SWIDTH 293 0
DWIDTH 11 0
BBX 12 33 0 -8
BITMAP
01C0
07C0
0FC0
0F80
0F80
0F80
0F80
1F80
1F00
1F00
1F00
3F00
3E00
3E00
3E00
3E00
7E00
7C00
7C10
7C30
7C60
7FE0
7FC0
7F80
3E00
0000
0000
7000
F800
F800
F800
F800
7000
ENDCHAR
STARTCHAR uni1E42
ENCODING 7746
SWIDTH 787 0
DWIDTH 28 0
BBX 27 35 2 -8
BITMAP
007C0000
03FE03E0
07FE07E0
0F7E07E0
1C7E0FC0
38FC0FC0
78FC1FC0
70FC1FC0
71FC1FC0
F1FC3FC0
71FC3FC0
73FC7F80
33FC7F80
077CEF80
077CEF80
077CCF80
0E7DDF80
0E7DDF80
0E7F9F00
1C7F9F00
1C7F1F00
387F1F00
387E1F00
387E3F00
707E3F00
707C3E00
E07C3E00
00000000
00000000
00F00000
00F80000
01F80000
01F80000
01F80000
00F00000
ENDCHAR
STARTCHAR uni1E43
ENCODING 7747
SWIDTH 752 0
DWIDTH 27 0
BBX 30 26 -1 -8
BITMAP
1FBE1F00
1F7F7F80
1FFF7F80
1F9FCF80
3F1F8F80
3F1F0F80
3E1F0F80
3E1F0F80
3E1F0F80
7E3F1F00
7C3E1F00
7C3E1F04
7C3E1F08
7C7E1F18
FC7C1F30
F87C1FF0
F87C1FE0
F87C0780
00000000
00000000
00700000
00F80000
00F80000
00F80000
00F80000
00700000
ENDCHAR
STARTCHAR uni1E44
ENCODING 7748
SWIDTH 668 0
DWIDTH 24 0
BBX 26 35 0 0
BITMAP
00003800
00007C00
0000FC00
0000FC00
00007C00
00003800
00000000
00000000
00FC03C0
07FC03C0
0FFC0380
1EFE0380
3CFE0780
78FE0780
70FE0700
F0FF0700
F1FF0700
F1FF0F00
F1FF0F00
71DF0E00
71CF8E00
0BCF8E00
03CF9E00
038F9C00
0387DC00
0787DC00
0787DC00
0707FC00
0707F800
0703F800
0F03F800
0F03F800
0E03F800
0E01F000
1E01F000
ENDCHAR
STARTCHAR uni1E45
ENCODING 7749
SWIDTH 505 0
DWIDTH 18 0
BBX 21 27 -1 0
BITMAP
003C00
003C00
007E00
007E00
003E00
003C00
000000
000000
000000
1FBE00
1F7F00
1FFF00
1F9F00
3F1F00
3F1F00
3E1F00
3E1F00
3E1F00
7E1F00
7C3E00
7C3E00
7C3E18
7C3E30
FC3E20
F83FE0
F83FC0
F80F00
ENDCHAR
STARTCHAR uni1E46
ENCODING 7750
SWIDTH 668 0
DWIDTH 24 0
BBX 26 35 0 -8
BITMAP
00FC03C0
07FC03C0
0FFC0380
1EFE0380
3CFE0780
78FE0780
70FE0700
F0FF0700
F1FF0700
F1FF0F00
F1FF0F00
71DF0E00
71CF8E00
0BCF8E00
03CF9E00
038F9C00
0387DC00
0787DC00
0787DC00
0707FC00
0707F800
0703F800
0F03F800
0F03F800
0E03F800
0E01F000
1E01F000
00000000
00000000
00700000
00F80000
00FC0000
00FC0000
00F80000
00700000
ENDCHAR
STARTCHAR uni1E47
ENCODING 7751
SWIDTH 505 0
DWIDTH 18 0
BBX 21 26 -1 -8
BITMAP
1FBE00
1F7F00
1FFF00
1F9F00
3F1F00
3F1F00
3E1F00
3E1F00
3E1F00
7E1F00
7C3E00
7C3E00
7C3E18
7C3E30
FC3E20
F83FE0
F83FC0
F80F00
000000
000000
078000
07C000
0FC000
0FC000
07C000
078000
ENDCHAR
STARTCHAR uni1E5A
ENCODING 7770
SWIDTH 601 0
DWIDTH 22 0
BBX 21 35 0 -8
BITMAP
007F80
01FFE0
07C1F0
0F00F0
1C3C78
38F878
78F878
70F878
F1F870
F1F0F0
F1F1E0
71F3C0
71FFC0
03FFE0
03E3E0
03E1F0
03E1F0
07E1E0
07C3E0
07C3E0
07C3E0
07C3C0
0FC7C0
0F87C0
0F87C0
0F87C0
1F87E0
000100
000000
007000
00F800
01F800
01F800
00F800
007000
ENDCHAR
STARTCHAR uni1E5B
ENCODING 7771
SWIDTH 376 0
DWIDTH 14 0
BBX 16 26 -2 -8
BITMAP
0FDE
0FBF
0FFF
0F8F
1F8E
1F00
1F00
1F00
1F00
3F00
3E00
3E00
3E00
3E00
7E00
7C00
7C00
7C00
0000
0000
3800
7C00
FC00
FC00
7C00
7800
ENDCHAR
STARTCHAR uni1E60
ENCODING 7776
SWIDTH 570 0
DWIDTH 21 0
BBX 19 36 1 -1
BITMAP
000F00
001F00
001F80
001F80
001F80
000F00
000000
000000
007F00
01FF80
03E3C0
07C1E0
07C1E0
07C1E0
0FC1E0
0FC3C0
07E180
07E000
03F000
03F800
01FC00
00FE00
007F00
003F00
1E1F80
3F1F80
7C0F80
F80FC0
F00F80
F00F80
F00F80
781F00
7C3E00
3FFC00
1FF800
010000
ENDCHAR
STARTCHAR uni1E61
ENCODING 7777
SWIDTH 382 0
DWIDTH 14 0
BBX 16 27 -1 0
BITMAP
00F0
00F8
01F8
01F8
00F8
00F0
0000
0000
0010
03F0
03F0
07F0
07F0
07F0
0DF0
09F0
19F0
11F0
31F0
71F0
F1F1
F1F6
C1FC
C3F8
FFE0
7FC0
1F00
ENDCHAR
STARTCHAR uni1E62
ENCODING 7778
SWIDTH 570 0
DWIDTH 21 0
BBX 19 35 1 -8
BITMAP
007F00
01FF80
03E3C0
07C1E0
07C1E0
07C1E0
0FC1E0
0FC3C0
07E180
07E000
03F000
03F800
01FC00
00FE00
007F00
003F00
1E1F80
3F1F80
7C0F80
F80FC0
F00F80
F00F80
F00F80
781F00
7C3E00
3FFC00
1FF800
010000
000000
070000
0F8000
1F8000
1F8000
0F8000
070000
ENDCHAR
STARTCHAR uni1E63
ENCODING 7779
SWIDTH 382 0
DWIDTH 14 0
BBX 16 27 -1 -8
BITMAP
00F0
03F0
03F0
07F0
07F0
0FF0
0DF0
09F0
19F0
11F0
31F0
71F0
F1F1
F1F6
C1FC
C3F8
FFE0
7FC0
1F00
0000
0000
3800
7C00
7C00
7E00
7C00
3800
ENDCHAR
STARTCHAR uni1E6C
ENCODING 7788
SWIDTH 481 0
DWIDTH 17 0
BBX 26 35 0 -8
BITMAP
00FF0040
07FFE0C0
0FFFFFC0
1E1FFF80
3C3FFF80
783F7F00
703F0000
F03E0000
F03E0000
F07E0000
F07E0000
F07C0000
707C0000
307C0000
00FC0000
00F80000
00F80000
00F80000
01F80000
01F80000
01F00000
01F00000
01F00000
03F00000
03E00000
03E00000
03E00000
00000000
00000000
03800000
07C00000
07C00000
07C00000
07C00000
03800000
ENDCHAR
STARTCHAR uni1E6D
ENCODING 7789
SWIDTH 267 0
DWIDTH 10 0
BBX 13 32 -2 -8
BITMAP
0020
07E0
07C0
07C0
07C0
07C0
1FF0
0F80
0F80
0F80
1F80
1F00
1F00
1F00
1F00
3F00
3E00
3E08
3E18
3E30
3FF0
3FE0
3FC0
1F00
0000
0000
3800
7C00
FC00
FC00
7C00
7800
ENDCHAR
STARTCHAR Wgrave
ENCODING 7808
SWIDTH 962 0
DWIDTH 35 0
BBX 37 36 0 0
BITMAP
0000078000
0000078000
0000038000
0000038000
0000038000
0000018000
000001C000
0000000000
0000000000
007C03E038
01FC03E038
07FC07E030
0E7C07E070
3C7C07E070
387C0FE060
707C0FE0E0
707C0FE0C0
F07C1FE0C0
F07C1BE1C0
F07C1BE180
707C3BE180
307C33E380
007C33E300
007C63E300
007E63E600
007E63E600
007EC3E600
007EC3EC00
007EC3EC00
007F83EC00
007F83F800
007F03F800
007F03F000
007F03F000
007E03F000
007E03E000
ENDCHAR
STARTCHAR wgrave
ENCODING 7809
SWIDTH 661 0
DWIDTH 24 0
BBX 23 27 0 0
BITMAP
007800
003800
003C00
003C00
001C00
001C00
001C00
000000
000000
3F1F9C
3E1F1E
3E1F1E
3E1F1E
7E3F06
7C3E06
7C3E06
7C3E06
7C3E0C
FC7E0C
F87C1C
F87C18
F87C38
F8FC30
F9FC70
FFFFE0
FF7FC0
7C3F00
ENDCHAR
STARTCHAR Wacute
ENCODING 7810
SWIDTH 962 0
DWIDTH 35 0
BBX 37 36 0 0
BITMAP
0000001E00
0000003C00
0000003800
0000007800
0000007000
000000E000
000000E000
000001C000
0000000000
007C03E038
01FC03E038
07FC07E030
0E7C07E070
3C7C07E070
387C0FE060
707C0FE0E0
707C0FE0C0
F07C1FE0C0
F07C1BE1C0
F07C1BE180
707C3BE180
307C33E380
007C33E300
007C63E300
007E63E600
007E63E600
007EC3E600
007EC3EC00
007EC3EC00
007F83EC00
007F83F800
007F03F800
007F03F000
007F03F000
007E03F000
007E03E000
ENDCHAR
STARTCHAR wacute
ENCODING 7811
SWIDTH 661 0
DWIDTH 24 0
BBX 23 27 0 0
BITMAP
0001E0
0001C0
0003C0
000380
000780
000700
000E00
000000
000000
3F1F9C
3E1F1E
3E1F1E
3E1F1E
7E3F06
7C3E06
7C3E06
7C3E06
7C3E0C
FC7E0C
F87C1C
F87C18
F87C38
F8FC30
F9FC70
FFFFE0
FF7FC0
7C3F00
ENDCHAR
STARTCHAR Wdieresis
ENCODING 7812
SWIDTH 962 0
DWIDTH 35 0
BBX 37 33 0 0
BITMAP
00000E3800
00001E3C00
00001F3C00
00000E3800
0000000000
0000000000
007C03E038
01FC03E038
07FC07E030
0E7C07E070
3C7C07E070
387C0FE060
707C0FE0E0
707C0FE0C0
F07C1FE0C0
F07C1BE1C0
F07C1BE180
707C3BE180
307C33E380
007C33E300
007C63E300
007E63E600
007E63E600
007EC3E600
007EC3EC00
007EC3EC00
007F83EC00
007F83F800
007F03F800
007F03F000
007F03F000
007E03F000
007E03E000
ENDCHAR
STARTCHAR wdieresis
ENCODING 7813
SWIDTH 661 0
DWIDTH 24 0
BBX 23 25 0 0
BITMAP
0071C0
00F1E0
00F3E0
0071C0
000000
000000
000000
3F1F9C
3E1F1E
3E1F1E
3E1F1E
7E3F06
7C3E06
7C3E06
7C3E06
7C3E0C
FC7E0C
F87C1C
F87C18
F87C38
F8FC30
F9FC70
FFFFE0
FF7FC0
7C3F00
ENDCHAR
STARTCHAR uni1E8E
ENCODING 7822
SWIDTH 620 0
DWIDTH 22 0
BBX 25 35 0 0
BITMAP
00007000
0000F800
0000FC00
0000FC00
0000F800
00007000
00000000
00000000
007C0180
01FE0300
07FE0300
0E7E0700
3C7E0600
383F0E00
703F0C00
703F0C00
F03F1800
F01F9800
F01FB800
701FB000
300FB000
000FE000
000FE000
000FC000
000FC000
000FC000
000FC000
000F8000
001F8000
001F8000
001F8000
001F8000
001F0000
003F0000
003F0000
ENDCHAR
STARTCHAR uni1E8F
ENCODING 7823
SWIDTH 505 0
DWIDTH 18 0
BBX 19 36 0 -9
BITMAP
007000
00F800
00F800
00F800
00F800
007000
000000
000000
000000
3F1F80
3E1F00
3E1F00
3E1F00
7E3F00
7C3E00
7C3E00
7C3E00
7C7E00
FC7C00
F87C00
F87C60
F8FC60
F8FC40
FFF8C0
FFF980
FEFF00
7CFE00
03F800
0FF000
1DF000
31F000
33F000
33E000
3FE000
3FC000
1F0000
ENDCHAR
STARTCHAR uni1E92
ENCODING 7826
SWIDTH 542 0
DWIDTH 20 0
BBX 20 44 0 -8
BITMAP
0000F0
0000F0
0001E0
0001C0
0003C0
000380
000300
000700
000000
07FFF0
0FFFE0
1E07E0
1E0FC0
1E0FC0
0E1F80
001F80
003F00
003F00
007E00
007E00
00FC00
00FC00
01F800
01F800
03F000
03F000
07E000
07E000
0FC000
0FC000
1F81C0
1F83C0
3F03C0
3F03C0
7FFF80
FFFE00
000000
000000
038000
07C000
07C000
07E000
07C000
038000
ENDCHAR
STARTCHAR uni1E93
ENCODING 7827
SWIDTH 428 0
DWIDTH 15 0
BBX 15 26 0 -8
BITMAP
0FFE
1FFE
387C
3CF8
38F8
11F0
01F0
03E0
03E0
07C0
0FC0
0F80
1F00
1F1C
3E3C
7E1C
7FF8
FFF0
0000
0000
1C00
3E00
7E00
7E00
3E00
1C00
ENDCHAR
STARTCHAR uni1E97
ENCODING 7831
SWIDTH 267 0
DWIDTH 10 0
BBX 13 29 0 0
BITMAP
1C70
3CF0
3CF8
1C70
0000
0380
1F80
1F00
1F00
1F00
1F00
7FC0
3E00
3E00
3E00
7E00
7C00
7C00
7C00
7C00
FC00
F800
F820
F860
F8C0
FFC0
FF80
FF00
7C00
ENDCHAR
STARTCHAR uni1E9E
ENCODING 7838
SWIDTH 559 0
DWIDTH 20 0
BBX 24 36 -2 -9
BITMAP
001FFF
007FFE
00FC7C
00F8FC
01F0F8
01F1F8
03E1F0
03E3F0
03E3E0
07E7E0
07C7C0
07CFC0
07CF80
0FC780
0F83C0
0F83E0
0F83E0
0F81F0
1F81F0
1F01F0
1F01F0
1F01F0
1F03E0
3E03E0
3E4FC0
3EFF80
3E7F00
3E1800
7C0000
7C0000
7C0000
7C0000
7C0000
F80000
F80000
800000
ENDCHAR
STARTCHAR uni1EA0
ENCODING 7840
SWIDTH 668 0
DWIDTH 24 0
BBX 25 35 0 -8
BITMAP
00000F80
00003F80
0000FF80
0001DF00
00039F00
00071F00
00073F00
000E3E00
001C3E00
003C3E00
00383E00
0FF87E00
3FFFFC00
78F1FC00
F1E07C00
F9E07C00
73C0FC00
03C0F800
07C0F800
0780F800
0781F800
0F81F000
0F01F000
0F01F000
1F01F000
1F03F000
1F03E000
1E000000
1E000000
0E0E0000
011F0000
001F0000
001F0000
001F0000
000E0000
ENDCHAR
STARTCHAR uni1EA1
ENCODING 7841
SWIDTH 526 0
DWIDTH 19 0
BBX 20 26 0 -8
BITMAP
03EF80
0FFF80
1F9F80
3F1F80
3E1F00
7C1F00
7C1F00
FC1F00
F83F00
F83E00
F83E00
F83E00
F87E10
F87E30
F8FE60
FFBFC0
7F3F80
3E1F00
000000
000000
0F0000
0F8000
1F8000
1F8000
0F8000
0F0000
ENDCHAR
STARTCHAR uni1EA2
ENCODING 7842
SWIDTH 668 0
DWIDTH 24 0
BBX 27 39 0 -4
BITMAP
00000780
00001FC0
000008E0
000000E0
000007C0
00000600
00000600
00000000
00000F80
00003F80
0000FF80
0001DF00
00039F00
00071F00
00073F00
000E3E00
001C3E00
003C3E00
00383E00
0FF87E00
3FFFFC00
78F1FC00
F1E07C00
F9E07C00
73C0FC00
03C0F800
07C0F800
0780F800
0781F800
0F81F000
0F01F000
0F01F000
1F01F000
1F03F000
1F03E000
1F000000
1E000000
0E000000
07000000
ENDCHAR
STARTCHAR uni1EA3
ENCODING 7843
SWIDTH 526 0
DWIDTH 19 0
BBX 20 28 0 0
BITMAP
003E00
007F00
002700
000300
000300
001E00
001800
001800
000000
000000
03EF80
0FFF80
1F9F80
3F1F80
3E1F00
7C1F00
7C1F00
FC1F00
F83F00
F83E00
F83E00
F83E00
F87E10
F87E30
F8FE60
FFBFC0
7F3F80
3E1F00
ENDCHAR
STARTCHAR uni1EA4
ENCODING 7844
SWIDTH 668 0
DWIDTH 24 0
BBX 31 40 0 -4
BITMAP
0000000E
0000000C
0000008C
00000198
00000790
00000EF0
000018C0
00003040
00000000
00000F80
00003F80
0000FF80
0001DF00
00039F00
00071F00
00073F00
000E3E00
001C3E00
003C3E00
00383E00
0FF87E00
3FFFFC00
78F1FC00
F1E07C00
F9E07C00
73C0FC00
03C0F800
07C0F800
0780F800
0781F800
0F81F000
0F01F000
0F01F000
1F01F000
1F03F000
1F03E000
1F000000
1E000000
0E000000
07000000
ENDCHAR
STARTCHAR uni1EA5
ENCODING 7845
SWIDTH 526 0
DWIDTH 19 0
BBX 22 32 0 0
BITMAP
00001C
000038
000038
000070
000060
0004C0
000C00
003E00
007E00
00E600
018200
020100
000000
000000
03EF80
0FFF80
1F9F80
3F1F80
3E1F00
7C1F00
7C1F00
FC1F00
F83F00
F83E00
F83E00
F83E00
F87E10
F87E30
F8FE60
FFBFC0
7F3F80
3E1F00
ENDCHAR
STARTCHAR uni1EA6
ENCODING 7846
SWIDTH 668 0
DWIDTH 24 0
BBX 29 39 0 -4
BITMAP
00000038
00000018
00000198
00000398
00000EC8
000018C0
00002000
00000000
00000F80
00003F80
0000FF80
0001DF00
00039F00
00071F00
00073F00
000E3E00
001C3E00
003C3E00
00383E00
0FF87E00
3FFFFC00
78F1FC00
F1E07C00
F9E07C00
73C0FC00
03C0F800
07C0F800
0780F800
0781F800
0F81F000
0F01F000
0F01F000
1F01F000
1F03F000
1F03E000
1F000000
1E000000
0E000000
07000000
ENDCHAR
STARTCHAR uni1EA7
ENCODING 7847
SWIDTH 526 0
DWIDTH 19 0
BBX 20 30 0 0
BITMAP
0001C0
0000C0
0000E0
0004E0
000C60
001E60
003E00
007600
00C200
030100
000000
000000
03EF80
0FFF80
1F9F80
3F1F80
3E1F00
7C1F00
7C1F00
FC1F00
F83F00
F83E00
F83E00
F83E00
F87E10
F87E30
F8FE60
FFBFC0
7F3F80
3E1F00
ENDCHAR
STARTCHAR uni1EA8
ENCODING 7848
SWIDTH 668 0
DWIDTH 24 0
BBX 31 39 0 -4
BITMAP
0000003C
00000006
00000186
0000079C
00000ED0
000038C0
00000000
00000000
00000F80
00003F80
0000FF80
0001DF00
00039F00
00071F00
00073F00
000E3E00
001C3E00
003C3E00
00383E00
0FF87E00
3FFFFC00
78F1FC00
F1E07C00
F9E07C00
73C0FC00
03C0F800
07C0F800
0780F800
0781F800
0F81F000
0F01F000
0F01F000
1F01F000
1F03F000
1F03E000
1F000000
1E000000
0E000000
07000000
ENDCHAR
STARTCHAR uni1EA9
ENCODING 7849
SWIDTH 526 0
DWIDTH 19 0
BBX 20 29 0 0
BITMAP
0001F0
000010
0004F0
000C80
003E00
007E00
00E600
018300
020000
000000
000000
03EF80
0FFF80
1F9F80
3F1F80
3E1F00
7C1F00
7C1F00
FC1F00
F83F00
F83E00
F83E00
F83E00
F87E10
F87E30
F8FE60
FFBFC0
7F3F80
3E1F00
ENDCHAR
STARTCHAR uni1EAA
ENCODING 7850
SWIDTH 668 0
DWIDTH 24 0
BBX 29 40 0 -4
BITMAP
00000100
000007F8
00001FF0
000001C0
00000780
00000EC0
000018C0
00003040
00000000
00000F80
00003F80
0000FF80
0001DF00
00039F00
00071F00
00073F00
000E3E00
001C3E00
003C3E00
00383E00
0FF87E00
3FFFFC00
78F1FC00
F1E07C00
F9E07C00
73C0FC00
03C0F800
07C0F800
0780F800
0781F800
0F81F000
0F01F000
0F01F000
1F01F000
1F03F000
1F03E000
1F000000
1E000000
0E000000
07000000
ENDCHAR
STARTCHAR uni1EAB
ENCODING 7851
SWIDTH 526 0
DWIDTH 19 0
BBX 20 30 0 0
BITMAP
003FE0
004F80
000000
000400
000C00
003E00
007E00
00E600
018200
020100
000000
000000
03EF80
0FFF80
1F9F80
3F1F80
3E1F00
7C1F00
7C1F00
FC1F00
F83F00
F83E00
F83E00
F83E00
F87E10
F87E30
F8FE60
FFBFC0
7F3F80
3E1F00
ENDCHAR
STARTCHAR uni1EAC
ENCODING 7852
SWIDTH 668 0
DWIDTH 24 0
BBX 28 44 0 -8
BITMAP
00000080
000001C0
000003C0
000007C0
00000FE0
00001C60
00003020
00006030
00000000
00000F80
00003F80
0000FF80
0001DF00
00039F00
00071F00
00073F00
000E3E00
001C3E00
003C3E00
00383E00
0FF87E00
3FFFFC00
78F1FC00
F1E07C00
F9E07C00
73C0FC00
03C0F800
07C0F800
0780F800
0781F800
0F81F000
0F01F000
0F01F000
1F01F000
1F03F000
1F03E000
1E000000
1E000000
0E0E0000
011F0000
001F0000
001F0000
001F0000
000E0000
ENDCHAR
STARTCHAR uni1EAD
ENCODING 7853
SWIDTH 526 0
DWIDTH 19 0
BBX 20 35 0 -8
BITMAP
000400
000C00
003E00
007E00
00F600
01C300
030100
000000
000000
03EF80
0FFF80
1F9F80
3F1F80
3E1F00
7C1F00
7C1F00
FC1F00
F83F00
F83E00
F83E00
F83E00
F87E10
F87E30
F8FE60
FFBFC0
7F3F80
3E1F00
000000
000000
0F0000
0F8000
1F8000
1F8000
0F8000
0F0000
ENDCHAR
STARTCHAR uni1EAE
ENCODING 7854
SWIDTH 668 0
DWIDTH 24 0
BBX 29 40 0 -4
BITMAP
000000E0
000000C0
000001C0
00000180
000033B8
00003B30
00003870
00001FC0
00000300
00000F80
00003F80
0000FF80
0001DF00
00039F00
00071F00
00073F00
000E3E00
001C3E00
003C3E00
00383E00
0FF87E00
3FFFFC00
78F1FC00
F1E07C00
F9E07C00
73C0FC00
03C0F800
07C0F800
0780F800
0781F800
0F81F000
0F01F000
0F01F000
1F01F000
1F03F000
1F03E000
1F000000
1E000000
0E000000
07000000
ENDCHAR
STARTCHAR uni1EAF
ENCODING 7855
SWIDTH 526 0
DWIDTH 19 0
BBX 20 30 0 0
BITMAP
000700
000E00
000E00
000C00
001800
0399C0
03C380
01FF00
00FC00
000000
000000
000000
03EF80
0FFF80
1F9F80
3F1F80
3E1F00
7C1F00
7C1F00
FC1F00
F83F00
F83E00
F83E00
F83E00
F87E10
F87E30
F8FE60
FFBFC0
7F3F80
3E1F00
ENDCHAR
STARTCHAR uni1EB0
ENCODING 7856
SWIDTH 668 0
DWIDTH 24 0
BBX 29 39 0 -4
BITMAP
00000700
00000700
00000300
00000300
00003B38
00003870
00001FE0
00000700
00000F80
00003F80
0000FF80
0001DF00
00039F00
00071F00
00073F00
000E3E00
001C3E00
003C3E00
00383E00
0FF87E00
3FFFFC00
78F1FC00
F1E07C00
F9E07C00
73C0FC00
03C0F800
07C0F800
0780F800
0781F800
0F81F000
0F01F000
0F01F000
1F01F000
1F03F000
1F03E000
1F000000
1E000000
0E000000
07000000
ENDCHAR
STARTCHAR uni1EB1
ENCODING 7857
SWIDTH 526 0
DWIDTH 19 0
BBX 20 30 0 0
BITMAP
007000
003000
003800
001800
001800
0381C0
03C380
01FF00
00FC00
000000
000000
000000
03EF80
0FFF80
1F9F80
3F1F80
3E1F00
7C1F00
7C1F00
FC1F00
F83F00
F83E00
F83E00
F83E00
F87E10
F87E30
F8FE60
FFBFC0
7F3F80
3E1F00
ENDCHAR
STARTCHAR uni1EB2
ENCODING 7858
SWIDTH 668 0
DWIDTH 24 0
BBX 29 39 0 -4
BITMAP
00000780
000000C0
000000C0
00000388
00003A70
00003FE0
00000FC0
00000000
00000F80
00003F80
0000FF80
0001DF00
00039F00
00071F00
00073F00
000E3E00
001C3E00
003C3E00
00383E00
0FF87E00
3FFFFC00
78F1FC00
F1E07C00
F9E07C00
73C0FC00
03C0F800
07C0F800
0780F800
0781F800
0F81F000
0F01F000
0F01F000
1F01F000
1F03F000
1F03E000
1F000000
1E000000
0E000000
07000000
ENDCHAR
STARTCHAR uni1EB3
ENCODING 7859
SWIDTH 526 0
DWIDTH 19 0
BBX 20 30 0 0
BITMAP
003C00
002600
000600
001C00
001000
0381C0
03C380
01FF00
00FC00
000000
000000
000000
03EF80
0FFF80
1F9F80
3F1F80
3E1F00
7C1F00
7C1F00
FC1F00
F83F00
F83E00
F83E00
F83E00
F87E10
F87E30
F8FE60
FFBFC0
7F3F80
3E1F00
ENDCHAR
STARTCHAR uni1EB4
ENCODING 7860
SWIDTH 668 0
DWIDTH 24 0
BBX 29 40 0 -4
BITMAP
00000200
00000FF8
00001FF0
00000080
00003038
00003830
00003870
00001FC0
00000300
00000F80
00003F80
0000FF80
0001DF00
00039F00
00071F00
00073F00
000E3E00
001C3E00
003C3E00
00383E00
0FF87E00
3FFFFC00
78F1FC00
F1E07C00
F9E07C00
73C0FC00
03C0F800
07C0F800
0780F800
0781F800
0F81F000
0F01F000
0F01F000
1F01F000
1F03F000
1F03E000
1F000000
1E000000
0E000000
07000000
ENDCHAR
STARTCHAR uni1EB5
ENCODING 7861
SWIDTH 526 0
DWIDTH 19 0
BBX 20 30 0 0
BITMAP
007FC0
009F80
000000
000000
000000
0381C0
01C380
01FF00
00FC00
000000
000000
000000
03EF80
0FFF80
1F9F80
3F1F80
3E1F00
7C1F00
7C1F00
FC1F00
F83F00
F83E00
F83E00
F83E00
F87E10
F87E30
F8FE60
FFBFC0
7F3F80
3E1F00
ENDCHAR
STARTCHAR uni1EB6
ENCODING 7862
SWIDTH 668 0
DWIDTH 24 0
BBX 30 42 0 -8
BITMAP
0000701C
00007038
00007878
00003FF0
00001F80
00000000
00000000
00000F80
00003F80
0000FF80
0001DF00
00039F00
00071F00
00073F00
000E3E00
001C3E00
003C3E00
00383E00
0FF87E00
3FFFFC00
78F1FC00
F1E07C00
F9E07C00
73C0FC00
03C0F800
07C0F800
0780F800
0781F800
0F81F000
0F01F000
0F01F000
1F01F000
1F03F000
1F03E000
1E000000
1E000000
0E0E0000
011F0000
001F0000
001F0000
001F0000
000E0000
ENDCHAR
STARTCHAR uni1EB7
ENCODING 7863
SWIDTH 526 0
DWIDTH 19 0
BBX 20 34 0 -8
BITMAP
0781E0
0381C0
03C380
01FF00
00FC00
000000
000000
000000
03EF80
0FFF80
1F9F80
3F1F80
3E1F00
7C1F00
7C1F00
FC1F00
F83F00
F83E00
F83E00
F83E00
F87E10
F87E30
F8FE60
FFBFC0
7F3F80
3E1F00
000000
000000
0F0000
0F8000
1F8000
1F8000
0F8000
0F0000
ENDCHAR
STARTCHAR uni1EB8
ENCODING 7864
SWIDTH 459 0
DWIDTH 17 0
BBX 18 35 0 -8
BITMAP
003E00
00FF80
01F380
03E1C0
03C1C0
07C1C0
078380
078780
078000
07C000
07C000
03E000
03F800
0FC000
1F8000
3F0000
3F0000
7E0000
7E0000
FE0000
FE0000
FE0080
FE0180
7E0300
7FFE00
3FFC00
1FF000
020000
000000
0E0000
1F0000
1F0000
1F0000
1F0000
0E0000
ENDCHAR
STARTCHAR uni1EB9
ENCODING 7865
SWIDTH 384 0
DWIDTH 14 0
BBX 15 26 0 -8
BITMAP
03F0
0FF8
1FB8
3F38
3E38
7C38
7C78
FCF0
F9E0
FFC0
FF00
F800
F806
F80C
FC38
FFF0
7FE0
3F00
0000
0000
3800
7C00
7E00
7E00
7C00
3800
ENDCHAR
STARTCHAR uni1EBA
ENCODING 7866
SWIDTH 459 0
DWIDTH 17 0
BBX 18 37 0 -1
BITMAP
001F80
001FC0
0011C0
0001C0
0001C0
000F80
000C00
000C00
000000
003E00
00FF80
01F380
03E1C0
03C1C0
07C1C0
078380
078780
078000
07C000
07C000
03E000
03F800
0FC000
1F8000
3F0000
3F0000
7E0000
7E0000
FE0000
FE0000
FE0080
FE0180
7E0300
7FFE00
3FFC00
1FF000
020000
ENDCHAR
STARTCHAR uni1EBB
ENCODING 7867
SWIDTH 384 0
DWIDTH 14 0
BBX 15 28 0 0
BITMAP
01F0
03F8
011C
001C
0018
00F0
00C0
00C0
0000
0000
03F0
0FF8
1FB8
3F38
3E38
7C38
7C78
FCF0
F9E0
FFC0
FF00
F800
F806
F80C
FC38
FFF0
7FE0
3F00
ENDCHAR
STARTCHAR uni1EBC
ENCODING 7868
SWIDTH 459 0
DWIDTH 17 0
BBX 22 34 0 -1
BITMAP
001F84
007FF8
00FFF0
0107E0
000000
000000
003E00
00FF80
01F380
03E1C0
03C1C0
07C1C0
078380
078780
078000
07C000
07C000
03E000
03F800
0FC000
1F8000
3F0000
3F0000
7E0000
7E0000
FE0000
FE0000
FE0080
FE0180
7E0300
7FFE00
3FFC00
1FF000
020000
ENDCHAR
STARTCHAR uni1EBD
ENCODING 7869
SWIDTH 384 0
DWIDTH 14 0
BBX 16 25 0 0
BITMAP
0100
0FF1
1FFE
3FFC
0020
0000
0000
03F0
0FF8
1FB8
3F38
3E38
7C38
7C78
FCF0
F9E0
FFC0
FF00
F800
F806
F80C
FC38
FFF0
7FE0
3F00
ENDCHAR
STARTCHAR uni1EBE
ENCODING 7870
SWIDTH 459 0
DWIDTH 17 0
BBX 22 37 0 -1
BITMAP
00000C
000018
000118
000330
000FE0
001980
007080
000040
000000
003E00
00FF80
01F380
03E1C0
03C1C0
07C1C0
078380
078780
078000
07C000
07C000
03E000
03F800
0FC000
1F8000
3F0000
3F0000
7E0000
7E0000
FE0000
FE0000
FE0080
FE0180
7E0300
7FFE00
3FFC00
1FF000
020000
ENDCHAR
STARTCHAR uni1EBF
ENCODING 7871
SWIDTH 384 0
DWIDTH 14 0
BBX 20 32 0 0
BITMAP
000070
0000E0
0000E0
0001C0
000180
001380
003000
007800
00F800
01C800
030C00
040400
000000
000000
03F000
0FF800
1FB800
3F3800
3E3800
7C3800
7C7800
FCF000
F9E000
FFC000
FF0000
F80000
F80600
F80C00
FC3800
FFF000
7FE000
3F0000
ENDCHAR
STARTCHAR uni1EC0
ENCODING 7872
SWIDTH 459 0
DWIDTH 17 0
BBX 20 37 0 -1
BITMAP
000070
000030
000330
000730
000D90
003980
0060C0
000000
000000
003E00
00FF80
01F380
03E1C0
03C1C0
07C1C0
078380
078780
078000
07C000
07C000
03E000
03F800
0FC000
1F8000
3F0000
3F0000
7E0000
7E0000
FE0000
FE0000
FE0080
FE0180
7E0300
7FFE00
3FFC00
1FF000
020000
ENDCHAR
STARTCHAR uni1EC1
ENCODING 7873
SWIDTH 384 0
DWIDTH 14 0
BBX 17 30 0 0
BITMAP
000380
000380
000380
001180
003180
007980
00F800
01F800
038C00
060400
000000
000000
03F000
0FF800
1FB800
3F3800
3E3800
7C3800
7C7800
FCF000
F9E000
FFC000
FF0000
F80000
F80600
F80C00
FC3800
FFF000
7FE000
3F0000
ENDCHAR
STARTCHAR uni1EC2
ENCODING 7874
SWIDTH 459 0
DWIDTH 17 0
BBX 23 36 0 -1
BITMAP
00007C
000006
000304
000F3C
001DB0
007180
000040
000000
003E00
00FF80
01F380
03E1C0
03C1C0
07C1C0
078380
078780
078000
07C000
07C000
03E000
03F800
0FC000
1F8000
3F0000
3F0000
7E0000
7E0000
FE0000
FE0000
FE0080
FE0180
7E0300
7FFE00
3FFC00
1FF000
020000
ENDCHAR
STARTCHAR uni1EC3
ENCODING 7875
SWIDTH 384 0
DWIDTH 14 0
BBX 18 29 0 0
BITMAP
000780
0000C0
001380
003200
007800
00F800
018800
030C00
040000
000000
000000
03F000
0FF800
1FB800
3F3800
3E3800
7C3800
7C7800
FCF000
F9E000
FFC000
FF0000
F80000
F80600
F80C00
FC3800
FFF000
7FE000
3F0000
ENDCHAR
STARTCHAR uni1EC4
ENCODING 7876
SWIDTH 459 0
DWIDTH 17 0
BBX 20 37 0 -1
BITMAP
000200
000FF0
003FE0
000380
000F00
001980
007080
000040
000000
003E00
00FF80
01F380
03E1C0
03C1C0
07C1C0
078380
078780
078000
07C000
07C000
03E000
03F800
0FC000
1F8000
3F0000
3F0000
7E0000
7E0000
FE0000
FE0000
FE0080
FE0180
7E0300
7FFE00
3FFC00
1FF000
020000
ENDCHAR
STARTCHAR uni1EC5
ENCODING 7877
SWIDTH 384 0
DWIDTH 14 0
BBX 17 30 0 0
BITMAP
00FF80
013E00
000000
001000
003000
007800
00F800
01C800
030C00
040400
000000
000000
03F000
0FF800
1FB800
3F3800
3E3800
7C3800
7C7800
FCF000
F9E000
FFC000
FF0000
F80000
F80600
F80C00
FC3800
FFF000
7FE000
3F0000
ENDCHAR
STARTCHAR uni1EC6
ENCODING 7878
SWIDTH 459 0
DWIDTH 17 0
BBX 18 44 0 -8
BITMAP
000100
000300
000700
001F80
003D80
007180
01C0C0
000000
000000
003E00
00FF80
01F380
03E1C0
03C1C0
07C1C0
078380
078780
078000
07C000
07C000
03E000
03F800
0FC000
1F8000
3F0000
3F0000
7E0000
7E0000
FE0000
FE0000
FE0080
FE0180
7E0300
7FFE00
3FFC00
1FF000
020000
000000
0E0000
1F0000
1F0000
1F0000
1F0000
0E0000
ENDCHAR
STARTCHAR uni1EC7
ENCODING 7879
SWIDTH 384 0
DWIDTH 14 0
BBX 15 35 0 -8
BITMAP
0010
0038
0078
00F8
01DC
070C
0C04
0000
0000
03F0
0FF8
1FB8
3F38
3E38
7C38
7C78
FCF0
F9E0
FFC0
FF00
F800
F806
F80C
FC38
FFF0
7FE0
3F00
0000
0000
3800
7C00
7E00
7E00
7C00
3800
ENDCHAR
STARTCHAR uni1EC8
ENCODING 7880
SWIDTH 375 0
DWIDTH 14 0
BBX 17 35 0 0
BITMAP
003E00
007F00
002380
000300
001F00
001C00
001800
000000
007C00
01FC00
07FC00
0EFC00
3CF800
38F800
70F800
70F800
F1F800
F1F000
F1F000
71F000
33F000
03E000
03E000
03E000
03E000
07E000
07C000
07C000
07C000
07C000
0FC000
0F8000
0F8000
0F8000
1F8000
ENDCHAR
STARTCHAR uni1EC9
ENCODING 7881
SWIDTH 267 0
DWIDTH 10 0
BBX 11 28 0 0
BITMAP
0F80
1FC0
09C0
00C0
01C0
0F80
0C00
0C00
0000
0000
3F00
3E00
3E00
3E00
7E00
7C00
7C00
7C00
7C00
FC00
F800
F820
F860
F8C0
FDC0
FF80
FF00
7C00
ENDCHAR
STARTCHAR uni1ECA
ENCODING 7882
SWIDTH 375 0
DWIDTH 14 0
BBX 14 35 0 -8
BITMAP
007C
01FC
07FC
0EFC
3CF8
38F8
70F8
70F8
F1F8
F1F0
F1F0
71F0
33F0
03E0
03E0
03E0
03E0
07E0
07C0
07C0
07C0
07C0
0FC0
0F80
0F80
0F80
1F80
0000
0000
1E00
3E00
3F00
3F00
3E00
1E00
ENDCHAR
STARTCHAR uni1ECB
ENCODING 7883
SWIDTH 267 0
DWIDTH 10 0
BBX 13 33 -2 -8
BITMAP
03C0
03C0
07E0
07E0
03E0
03C0
0000
0FC0
0F80
0F80
0F80
1F80
1F00
1F00
1F00
1F00
3F00
3E00
3E08
3E18
3E30
3F70
3FE0
3FC0
1F00
0000
0000
3800
7C00
FC00
FC00
7C00
7800
ENDCHAR
STARTCHAR uni1ECC
ENCODING 7884
SWIDTH 665 0
DWIDTH 24 0
BBX 23 35 1 -8
BITMAP
003FC0
01FFF0
07C1F8
1F0278
3C7C7C
78F83C
71F03C
F1F03E
E3E03E
E7E03E
E7C03E
E7C03C
6FC07C
0F807C
0F807C
1F807C
1F80F8
1F00F8
1F00F8
1F01F0
1F01F0
1F03E0
1F87C0
1F8F80
0FFF00
07FE00
03F800
000000
000000
01C000
03E000
03E000
03E000
03E000
01C000
ENDCHAR
STARTCHAR uni1ECD
ENCODING 7885
SWIDTH 433 0
DWIDTH 16 0
BBX 21 26 -1 -8
BITMAP
01F000
07FC00
0FDC00
1F0E00
1F1E18
3E1E70
3E1FC0
7C1E00
7C1E00
7C1C00
FC1C00
FC1C00
FC3800
FC3800
7C7000
7FE000
3FC000
1F8000
000000
000000
1C0000
3E0000
3F0000
3F0000
3E0000
1C0000
ENDCHAR
STARTCHAR uni1ECE
ENCODING 7886
SWIDTH 665 0
DWIDTH 24 0
BBX 23 36 1 0
BITMAP
0003E0
0007F0
000270
000030
000070
0003E0
000300
000300
000000
003FC0
01FFF0
07C1F8
1F0278
3C7C7C
78F83C
71F03C
F1F03E
E3E03E
E7E03E
E7C03E
E7C03C
6FC07C
0F807C
0F807C
1F807C
1F80F8
1F00F8
1F00F8
1F01F0
1F01F0
1F03E0
1F87C0
1F8F80
0FFF00
07FE00
03F800
ENDCHAR
STARTCHAR uni1ECF
ENCODING 7887
SWIDTH 433 0
DWIDTH 16 0
BBX 21 28 -1 0
BITMAP
007C00
00FE00
004F00
000700
000600
003C00
003000
003000
000000
000000
01F000
07FC00
0FDC00
1F0E00
1F1E18
3E1E70
3E1FC0
7C1E00
7C1E00
7C1C00
FC1C00
FC1C00
FC3800
FC3800
7C7000
7FE000
3FC000
1F8000
ENDCHAR
STARTCHAR uni1ED0
ENCODING 7888
SWIDTH 665 0
DWIDTH 24 0
BBX 24 36 1 0
BITMAP
000007
000006
0000CE
0001CC
0003F8
000660
001C20
000000
000000
003FC0
01FFF0
07C1F8
1F0278
3C7C7C
78F83C
71F03C
F1F03E
E3E03E
E7E03E
E7C03E
E7C03C
6FC07C
0F807C
0F807C
1F807C
1F80F8
1F00F8
1F00F8
1F01F0
1F01F0
1F03E0
1F87C0
1F8F80
0FFF00
07FE00
03F800
ENDCHAR
STARTCHAR uni1ED1
ENCODING 7889
SWIDTH 433 0
DWIDTH 16 0
BBX 21 32 -1 0
BITMAP
000038
000070
000070
0000E0
0000C0
0009C0
001800
003C00
007C00
00E400
018600
020200
000000
000000
01F000
07FC00
0FDC00
1F0E00
1F1E18
3E1E70
3E1FC0
7C1E00
7C1E00
7C1C00
FC1C00
FC1C00
FC3800
FC3800
7C7000
7FE000
3FC000
1F8000
ENDCHAR
ENDFONT
